<svg id="Layer_1" data-name="Layer 1" xmlns="http://www.w3.org/2000/svg" viewBox="0 0 10 10"><defs><style>.cls-1{fill:#fff;}</style></defs><title>12- tarikh</title><path class="cls-1" d="M9.24.78H8.36V0H7.58V.78H2.42V0H1.64V.78H.76A.76.76,0,0,0,0,1.54V9.24A.76.76,0,0,0,.76,10H9.24A.76.76,0,0,0,10,9.24V1.54A.76.76,0,0,0,9.24.78Zm0,8.44H.78V3.67H9.22Zm0-6.33H.78V2a.39.39,0,0,1,.39-.39h.47v.78h.78V1.56H7.58v.78h.78V1.56h.47A.39.39,0,0,1,9.22,2Z"/><path class="cls-1" d="M1,3.89V9H9V3.89ZM2.27,8.4H1.48V7.62h.78Zm0-1.56H1.48V6.05h.78Zm0-1.56H1.48V4.49h.78ZM3.83,8.4H3V7.62h.78Zm0-1.56H3V6.05h.78Zm0-1.56H3V4.49h.78ZM5.39,8.4H4.61V7.62h.78Zm0-1.56H4.61V6.05h.78Zm0-1.56H4.61V4.49h.78ZM7,8.4H6.17V7.62H7ZM7,6.84H6.17V6.05H7ZM7,5.27H6.17V4.49H7ZM8.52,6.84H7.73V6.05h.78Zm0-1.56H7.73V4.49h.78Z"/></svg>