<svg id="Layer_1" data-name="Layer 1" xmlns="http://www.w3.org/2000/svg" viewBox="0 0 20 20"><defs><style>.cls-1{fill:#fff;}</style></defs><title>14 - poshtibani online</title><path class="cls-1" d="M0,2.17v12a2,2,0,0,0,2,2H4.67V19.5a.33.33,0,0,0,.21.31l.12,0a.34.34,0,0,0,.25-.11l3.23-3.56H18a2,2,0,0,0,2-2v-12a2,2,0,0,0-2-2H2a2,2,0,0,0-2,2ZM13.33,8.5a1.33,1.33,0,1,1,1.33,1.33A1.34,1.34,0,0,1,13.33,8.5Zm-4.67,0A1.33,1.33,0,1,1,10,9.83,1.34,1.34,0,0,1,8.67,8.5ZM4,8.5A1.33,1.33,0,1,1,5.33,9.83,1.34,1.34,0,0,1,4,8.5Zm0,0"/></svg>