<svg id="Layer_1" data-name="Layer 1" xmlns="http://www.w3.org/2000/svg" viewBox="0 0 20 20"><defs><style>.cls-1{fill:#fff;}</style></defs><title>14 - poshtibani</title><path class="cls-1" d="M8,19.69A1.71,1.71,0,0,1,9,16.6c1.17,0,2.33,0,3.5,0h.11v1l.05,0c.87,0,1.74,0,2.6,0a1.72,1.72,0,0,0,1.42-1.08H14.75V8.75h2.05a6.85,6.85,0,0,0-2.49-6A6.79,6.79,0,0,0,6.71,2,6.89,6.89,0,0,0,3.12,8.74H5.21v7.7H3.1V8.79H1.91c0-.28,0-.56,0-.84A8,8,0,0,1,7.31.47,7.84,7.84,0,0,1,15,1.76,7.67,7.67,0,0,1,17.9,6.85a19,19,0,0,1,.09,2h0l-1.17-.07c0,.1,0,.15,0,.2,0,1.48,0,3,0,4.45a16.84,16.84,0,0,1-.1,3.1h1.2a3.06,3.06,0,0,1-1.85,2.13,2.94,2.94,0,0,1-1.16.22H12.6V20H8.88A1.75,1.75,0,0,1,8,19.69Z"/><path class="cls-1" d="M18,8.82a2.53,2.53,0,0,1,2,2,3.64,3.64,0,0,1,0,.54c0,.84,0,1.68,0,2.52a2.54,2.54,0,0,1-2,2.54l-.09,0h0c0-.3.07-.6.07-.89,0-2,0-4,0-5.94,0-.28,0-.56,0-.84Z"/><path class="cls-1" d="M1.93,8.8a1.52,1.52,0,0,1,0,.17q0,3.66,0,7.33s0,.08,0,.14a2.33,2.33,0,0,1-1.1-.57A2.33,2.33,0,0,1,0,14.05c0-.94,0-1.89,0-2.83a2.3,2.3,0,0,1,1.06-2,5.85,5.85,0,0,1,.87-.42Z"/></svg>