<svg id="Layer_1" data-name="Layer 1" xmlns="http://www.w3.org/2000/svg" viewBox="0 0 30 30"><defs><style>.cls-1{fill:#282f6c;}</style></defs><title>2 - name &amp;amp; name khanevadegi</title><path class="cls-1" d="M24,21.44l-4.78-2.39a1.32,1.32,0,0,1-.73-1.18V16.18q.17-.21.36-.48a11.42,11.42,0,0,0,1.48-2.9A2,2,0,0,0,21.5,11V9A2,2,0,0,0,21,7.69V5a4.48,4.48,0,0,0-1-3.26C18.93.59,17.26,0,15,0s-3.93.59-5,1.77A4.47,4.47,0,0,0,9,5V7.69A2,2,0,0,0,8.5,9v2a2,2,0,0,0,.75,1.55A10.47,10.47,0,0,0,11,16.17v1.66A1.32,1.32,0,0,1,10.31,19L5.85,21.42a4.51,4.51,0,0,0-2.35,4V27c0,2.37,7.52,3,11.5,3s11.5-.63,11.5-3V25.48a4.49,4.49,0,0,0-2.49-4Zm0,0"/></svg>