<svg id="Layer_1" data-name="Layer 1" xmlns="http://www.w3.org/2000/svg" viewBox="0 0 19 19"><defs><style>.cls-1{fill:#fff;}.cls-2{fill:#282f6c;}</style></defs><title>3 - icon adreshaye montakhab</title><path class="cls-1" d="M9.5,0A6.68,6.68,0,0,0,3.82,10.19l5.3,8.54a.56.56,0,0,0,.47.26h0a.56.56,0,0,0,.47-.27l5.17-8.63A6.68,6.68,0,0,0,9.5,0Z"/><path class="cls-2" d="M9.73,2.64l1,2.12A.25.25,0,0,0,11,4.9l2.34.34a.25.25,0,0,1,.14.43L11.75,7.32a.25.25,0,0,0-.07.22l.4,2.33a.25.25,0,0,1-.37.27L9.62,9a.25.25,0,0,0-.23,0l-2.09,1.1a.25.25,0,0,1-.37-.27l.4-2.33a.25.25,0,0,0-.07-.22L5.55,5.67a.25.25,0,0,1,.14-.43L8,4.9a.25.25,0,0,0,.19-.14l1-2.12A.25.25,0,0,1,9.73,2.64Z"/></svg>