<svg id="Layer_1" data-name="Layer 1" xmlns="http://www.w3.org/2000/svg" viewBox="0 0 19 19"><defs><style>.cls-1{fill:#fff;}</style></defs><title>3 - icon poshtibani</title><path class="cls-1" d="M15,14.69l-1.73-.77h0l0,0a6.09,6.09,0,0,1-.72.6l-.07,0,.07,0c.82.38,1.53.69,2.13,1,2.23,1,2.51,1.16,2.51,1.69a.86.86,0,0,1-.8.8H2.7a.86.86,0,0,1-.8-.8c0-.53.28-.72,2.51-1.69.6-.26,1.31-.57,2.13-1l.07,0-.07,0a6.15,6.15,0,0,1-.72-.6l0,0h0L4,14.69C1.79,15.67,1,16,1,17.25A1.82,1.82,0,0,0,2.7,19H16.3a1.82,1.82,0,0,0,1.75-1.75C18.05,16,17.21,15.67,15,14.69Z"/><path class="cls-1" d="M2.85,10.45H3.8a.94.94,0,0,0,.7-.32l.09.12c.66,2.6,2.61,4.5,4.91,4.5s4.34-2,5-4.69a.93.93,0,0,0,.75.39h.95a1,1,0,0,0,1-.95V6.65a1,1,0,0,0-1-1H15.2a5.7,5.7,0,1,0-11.4,0H2.85a1,1,0,0,0-1,1V9.5A1,1,0,0,0,2.85,10.45ZM9.5,13.8a4.15,4.15,0,0,1-3.61-2.69,10,10,0,0,0,3.61.76.47.47,0,1,0,0-.95,7.81,7.81,0,0,1-4-1.14A7,7,0,0,1,5.3,8.32c0-3,1.89-5.48,4.2-5.48s4.2,2.46,4.2,5.48S11.82,13.8,9.5,13.8Zm6.65-7.15V9.5H15.2V6.65ZM9.5,1A4.76,4.76,0,0,1,14.25,5.7s0,.07,0,.11C13.45,3.52,11.63,1.9,9.5,1.9s-4,1.62-4.74,3.91c0,0,0-.07,0-.11A4.76,4.76,0,0,1,9.5,1ZM2.85,6.65H3.8V9.5H2.85Z"/></svg>