<svg id="Layer_1" data-name="Layer 1" xmlns="http://www.w3.org/2000/svg" viewBox="0 0 20 20"><defs><style>.cls-1{fill:#282f6c;}</style></defs><title>3 - search</title><path class="cls-1" d="M15,7.5A7.5,7.5,0,1,0,7.5,15,7.5,7.5,0,0,0,15,7.5M7.5,13.12A5.63,5.63,0,1,1,13.13,7.5,5.63,5.63,0,0,1,7.5,13.12"/><path class="cls-1" d="M19.45,16.8l-4.59-4.59a8.82,8.82,0,0,1-2.65,2.65l4.59,4.59a1.87,1.87,0,0,0,2.65-2.65"/><path class="cls-1" d="M4.27,7.69A3.74,3.74,0,0,1,6.64,4.54.88.88,0,0,0,6,2.89,5.52,5.52,0,0,0,2.52,7.58a.92.92,0,0,0,0,.16.88.88,0,0,0,1.75,0Zm0,0"/><path class="cls-1" d="M9.07,4.45a.86.86,0,1,1,.76-1,.86.86,0,0,1-.76,1Zm0,0"/></svg>