<svg id="Layer_1" data-name="Layer 1" xmlns="http://www.w3.org/2000/svg" viewBox="0 0 144 177"><defs><style>.cls-1{fill:#e6e7e8;}.cls-2{fill:#231f20;opacity:0.21;}.cls-3{fill:#9d9fa2;}.cls-4{fill:#fff;}.cls-5{fill:#a1a3a6;}</style></defs><title>4 - darbe manzel no</title><rect class="cls-1" width="144" height="177" rx="12" ry="12"/><circle class="cls-2" cx="72" cy="68.5" r="57.28"/><path class="cls-3" d="M95.93,103.32H35.82v-2.73a2.73,2.73,0,0,1,2.73-2.73H93.2a2.73,2.73,0,0,1,2.73,2.73Zm0,0"/><rect class="cls-3" x="45.38" y="29.55" width="40.99" height="62.84"/><rect class="cls-4" x="50.85" y="35.01" width="30.06" height="51.92"/><rect class="cls-4" x="42.65" y="92.39" width="46.45" height="5.46"/><rect class="cls-4" x="82.08" y="83.31" width="26.15" height="24.21"/><rect class="cls-5" x="83.06" y="84.34" width="24.19" height="22.02"/><rect class="cls-4" x="75.43" y="94.98" width="22.04" height="0.72" transform="translate(-9.03 181.62) rotate(-89.9)"/><rect class="cls-4" x="90.51" y="84.31" width="0.71" height="22.04"/><rect class="cls-4" x="94.93" y="84.32" width="0.71" height="22.04"/><rect class="cls-4" x="83.06" y="84.33" width="0.85" height="21.99"/><rect class="cls-4" x="86.83" y="84.33" width="0.85" height="21.99"/><rect class="cls-4" x="80.65" y="94.9" width="21.99" height="0.85" transform="translate(-3.93 186.71) rotate(-89.84)"/><rect class="cls-4" x="95.64" y="84.33" width="0.85" height="21.99"/><rect class="cls-4" x="100.06" y="84.33" width="0.85" height="21.99"/><rect class="cls-4" x="104.48" y="84.33" width="0.85" height="21.99"/><rect class="cls-4" x="99.35" y="84.32" width="0.72" height="22.04"/><rect class="cls-4" x="103.77" y="84.32" width="0.72" height="22.04"/><polygon class="cls-5" points="81.75 82.97 86.7 82.97 107.25 106.36 102.18 106.38 81.75 82.97"/><polygon class="cls-4" points="82.77 83.31 103.14 106.38 106.31 106.38 85.91 83.31 82.77 83.31"/><rect class="cls-5" x="98.64" y="86.59" width="5.82" height="5.01"/><path class="cls-4" d="M104.65,91.8H98.44V86.4h6.21Zm-5.82-.39h5.42V86.79H98.83Z"/><rect class="cls-5" x="58.97" y="89.76" width="20.5" height="17.76"/><path class="cls-4" d="M79.87,107.92H58.58V89.37H79.87Zm-20.5-.79H79.08v-17H59.36Z"/><rect class="cls-4" x="60.84" y="91.61" width="4.41" height="3.8"/><rect class="cls-4" x="60.84" y="105" width="6.74" height="0.86"/><rect class="cls-5" x="88.95" y="70.34" width="13.4" height="11.61"/><path class="cls-4" d="M102.54,82.15H88.75v-12h13.79Zm-13.4-.39h13V70.54h-13Z"/><rect class="cls-4" x="90.17" y="71.55" width="2.88" height="2.48"/><rect class="cls-4" x="90.17" y="80.3" width="4.4" height="0.56"/><path class="cls-3" d="M49.82,143l.06.17s-.05,0-.12,0a3.65,3.65,0,0,1-.58-.08q.15,2.34.1,9.16,0,5.17-5.45,5.17-4,0-4-3.62a6.12,6.12,0,0,1,.42-2q.44-1.23.83-1.23c.24,0,.36.16.36.47a3.26,3.26,0,0,1-.18.85,3.29,3.29,0,0,0-.18.89Q41,155,44.1,155a6,6,0,0,0,3.12-.66q.74-.45.74-.85,0-2.4-.32-5.77a51.74,51.74,0,0,0-.8-5.71l1.8-1.62c.1-.09.18-.08.22,0Q49.2,141.41,49.82,143Z"/><path class="cls-3" d="M58.89,152.68h-.43a3.29,3.29,0,0,1-1.47-.26,6.26,6.26,0,0,1-1.8,4.72q-.55.53-.7.53a11.48,11.48,0,0,1-3.91-.5c-.17-.06-.18-.13,0-.19A13.54,13.54,0,0,0,54,155.07q1.86-1.4,1.86-2.41a2.39,2.39,0,0,0-.68-1.3,9.05,9.05,0,0,0-1.11-1.13l1-2.08c.06-.12.13-.12.22,0q1.47,2,2.71,2h.85ZM55.94,145l-1.32,1.34-1.33-1.33,1.34-1.33Z"/><path class="cls-3" d="M65.9,152.68H65a3,3,0,0,1-2.54-1.45,2.74,2.74,0,0,1-2.51,1.45H58.38v-2.52h1.16a2.51,2.51,0,0,0,2-.64,2.57,2.57,0,0,0,.44-1.19q.12-.64.48-.64t.46.64a3.18,3.18,0,0,0,.37,1.19,1.86,1.86,0,0,0,1.63.64h1Zm-3-8.76-1.33,1.33-1.33-1.33,1.33-1.33Z"/><path class="cls-3" d="M72.56,150.61a2.26,2.26,0,0,1-.61,1.64,2.16,2.16,0,0,1-1.62.63,2.63,2.63,0,0,1-2.24-1.42,2,2,0,0,1-1.84,1.21H65.4v-2.52h.84A2.29,2.29,0,0,0,67.3,150c.12-.08.16-.26.14-.54a2.63,2.63,0,0,1,.6-1.86,2.25,2.25,0,0,1,1.84-.94A2.28,2.28,0,0,1,72,148,5.41,5.41,0,0,1,72.56,150.61Zm-1.2-.56a2.83,2.83,0,0,0-.41-1.33q-.47-.84-1-.84t-.67.89a3.25,3.25,0,0,0,.35,1.41q.43.89,1,.89T71.36,150.05Z"/><path class="cls-3" d="M90.4,148.74A3.41,3.41,0,0,1,89,151.8q-1.57,1.06-6.24,1.06a9.88,9.88,0,0,1-3.84-.58,3.06,3.06,0,0,1-1.92-3,3.91,3.91,0,0,1,.51-1.9q.46-.83.76-.83t.37.41a2.33,2.33,0,0,1-.15.61,2.32,2.32,0,0,0-.15.69,1.93,1.93,0,0,0,1.71,2,17.08,17.08,0,0,0,3.22.19q5.73,0,5.73-1a2.25,2.25,0,0,0-.5-.82,8.52,8.52,0,0,0-.67-.79l1.28-1.62a.6.6,0,0,1,.14-.15s.08,0,.16.12A4,4,0,0,1,90.4,148.74Zm-5.53,7L83.54,157l-1.34-1.34,1.34-1.33Z"/><path class="cls-3" d="M97.54,152a6.56,6.56,0,0,1-1.86,4.73q-.58.6-.71.6a11.4,11.4,0,0,1-3.91-.5q-.28-.11,0-.2a12.34,12.34,0,0,0,3.41-1.88q1.83-1.41,1.83-2.54a2.49,2.49,0,0,0-.67-1.31,6.24,6.24,0,0,0-1.09-1.11l1-2c.06-.12.14-.14.24,0A5.83,5.83,0,0,1,97.54,152Z"/><path class="cls-3" d="M105.89,149.12q0,3.56-4.45,3.56-2.55,0-2.55-2.38a4,4,0,0,1,0-.47q.16-1.3.71-1.3.31,0,.35.45a1.5,1.5,0,0,0,.25.85,2.09,2.09,0,0,0,1.59.45,9.77,9.77,0,0,0,1.63-.15q1.28-.22,1.28-.65,0-.78-1.37-1.92a6,6,0,0,0-2-1.26l.59-2.2c0-.15.08-.23.13-.23a.54.54,0,0,1,.22.1,9.74,9.74,0,0,1,2.43,2.18A4.84,4.84,0,0,1,105.89,149.12Z"/><circle class="cls-4" cx="55.96" cy="63.78" r="2.57"/><circle class="cls-3" cx="55.96" cy="63.78" r="2.22"/><ellipse class="cls-4" cx="55.24" cy="63.14" rx="1.02" ry="0.7" transform="translate(-28.26 71.3) rotate(-54.4)"/></svg>