<svg id="Layer_1" data-name="Layer 1" xmlns="http://www.w3.org/2000/svg" viewBox="0 0 144 177"><defs><style>.cls-1{fill:#e6e7e8;}.cls-2{fill:#231f20;opacity:0.21;}.cls-3{fill:#9d9fa2;}.cls-4{fill:#455e77;opacity:0.2;}.cls-4,.cls-6,.cls-8,.cls-9{fill-rule:evenodd;}.cls-5{fill:#fff;}.cls-6{fill:#8f9194;}.cls-7{fill:#cfd1d2;}.cls-10,.cls-8{fill:#a1a3a6;}.cls-9{fill:#dadbdc;}.cls-11{fill:#7e8083;}.cls-12{fill:#c4c6c8;}.cls-13{fill:#cbccce;}</style></defs><title>4 - terminal no</title><rect class="cls-1" x="-0.09" width="144" height="177" rx="12" ry="12"/><circle class="cls-2" cx="71.91" cy="68.5" r="57.28"/><path class="cls-3" d="M38,145.16l.06.17s-.05,0-.12,0a3.69,3.69,0,0,1-.58-.08q.15,2.34.1,9.16,0,5.17-5.45,5.17-4,0-4-3.62a6.12,6.12,0,0,1,.42-2q.44-1.23.83-1.23c.24,0,.36.16.36.47a3.26,3.26,0,0,1-.18.85,3.29,3.29,0,0,0-.18.89q0,2.14,3.06,2.14a6,6,0,0,0,3.12-.66q.74-.45.74-.85,0-2.4-.32-5.77a51.74,51.74,0,0,0-.8-5.71l1.8-1.62c.1-.09.18-.08.22,0Q37.37,143.58,38,145.16Z"/><path class="cls-3" d="M43.67,154.84H42.51a2.32,2.32,0,0,1-1.66-.65,3.47,3.47,0,0,1-.91-2.64q0-1.21-.15-3.64-.17-2.73-.32-3.59c0-.19,0-.31,0-.37l1.6-1.31a1.26,1.26,0,0,1,.34-.24h0s.06.1.06.27v8.25q0,1.39,1.56,1.39h.59Z"/><path class="cls-3" d="M50.67,154.84h-.93a3,3,0,0,1-2.54-1.45,2.74,2.74,0,0,1-2.51,1.45H43.15v-2.52H44.3a2.51,2.51,0,0,0,2-.64,2.57,2.57,0,0,0,.44-1.19q.12-.64.48-.64t.46.64a3.18,3.18,0,0,0,.37,1.19,1.86,1.86,0,0,0,1.63.64h1Zm-3-8.76-1.33,1.33L45,146.08l1.33-1.33Z"/><path class="cls-3" d="M57.68,154.84h-.93a3,3,0,0,1-2.54-1.45,2.74,2.74,0,0,1-2.51,1.45H50.15v-2.52h1.16a2.51,2.51,0,0,0,2-.64,2.57,2.57,0,0,0,.44-1.19q.12-.64.48-.64t.46.64a3.18,3.18,0,0,0,.37,1.19,1.86,1.86,0,0,0,1.63.64h1Zm-4.17,2.93L52.32,159l-1.21-1.21,1.2-1.2Zm2.67,0L55,159l-1.21-1.21,1.2-1.2Z"/><path class="cls-3" d="M64.33,152.78a2.26,2.26,0,0,1-.61,1.64,2.16,2.16,0,0,1-1.62.63,2.63,2.63,0,0,1-2.24-1.42A2,2,0,0,1,58,154.84h-.84v-2.52H58a2.29,2.29,0,0,0,1.06-.15c.12-.08.16-.26.14-.54a2.63,2.63,0,0,1,.6-1.86,2.25,2.25,0,0,1,1.84-.94,2.28,2.28,0,0,1,2.1,1.33A5.41,5.41,0,0,1,64.33,152.78Zm-1.2-.56a2.83,2.83,0,0,0-.41-1.33q-.47-.84-1-.84t-.67.89a3.25,3.25,0,0,0,.35,1.41q.43.89,1,.89T63.14,152.22Z"/><path class="cls-3" d="M73.28,154.84h-.43a3.29,3.29,0,0,1-1.47-.26,6.26,6.26,0,0,1-1.8,4.72q-.55.53-.7.53a11.48,11.48,0,0,1-3.91-.5c-.17-.06-.18-.13,0-.19a13.54,13.54,0,0,0,3.44-1.91q1.86-1.4,1.86-2.41a2.39,2.39,0,0,0-.68-1.3,9.05,9.05,0,0,0-1.11-1.13l1-2.08c.06-.12.13-.12.22,0q1.47,2,2.71,2h.85Z"/><path class="cls-3" d="M76.63,151a5,5,0,0,1-.56,2.46,2.52,2.52,0,0,1-2.35,1.37h-.94v-2.52h1.09q1.41,0,1.41-.53t-1.1-1.67a.22.22,0,0,1,0-.31l1.15-1.6c.1-.14.2-.15.29,0a3.67,3.67,0,0,1,.74,1.33A4.7,4.7,0,0,1,76.63,151Zm-1-5.72-1.21,1.2-1.2-1.2,1.2-1.2Zm2.68,0-1.21,1.2-1.2-1.2,1.2-1.2Z"/><path class="cls-3" d="M95.3,150.9A3.41,3.41,0,0,1,93.9,154Q92.33,155,87.66,155a9.88,9.88,0,0,1-3.84-.58,3.06,3.06,0,0,1-1.92-3,3.91,3.91,0,0,1,.51-1.9q.46-.83.76-.83t.37.41a2.33,2.33,0,0,1-.15.61,2.32,2.32,0,0,0-.15.69,1.93,1.93,0,0,0,1.71,2,17.08,17.08,0,0,0,3.22.19q5.73,0,5.73-1a2.25,2.25,0,0,0-.5-.82,8.52,8.52,0,0,0-.67-.79L94,148.35a.6.6,0,0,1,.14-.15s.08,0,.16.12A4,4,0,0,1,95.3,150.9Zm-5.53,7-1.33,1.33-1.34-1.34,1.34-1.33Z"/><path class="cls-3" d="M102.43,154.16a6.56,6.56,0,0,1-1.86,4.73q-.58.6-.71.6A11.4,11.4,0,0,1,96,159q-.28-.11,0-.2a12.34,12.34,0,0,0,3.41-1.88q1.83-1.41,1.83-2.54a2.49,2.49,0,0,0-.67-1.31A6.24,6.24,0,0,0,99.43,152l1-2c.06-.12.14-.14.24,0A5.83,5.83,0,0,1,102.43,154.16Z"/><path class="cls-3" d="M110.78,151.28q0,3.56-4.45,3.56-2.55,0-2.55-2.38a4,4,0,0,1,0-.47q.16-1.3.71-1.3.31,0,.35.45a1.5,1.5,0,0,0,.25.85,2.09,2.09,0,0,0,1.59.45,9.77,9.77,0,0,0,1.63-.15q1.28-.22,1.28-.65,0-.78-1.37-1.92a6,6,0,0,0-2-1.26l.59-2.2c0-.15.08-.23.13-.23a.54.54,0,0,1,.22.1,9.74,9.74,0,0,1,2.43,2.18A4.84,4.84,0,0,1,110.78,151.28Z"/><polygon class="cls-4" points="32.98 49.26 66.73 40.91 97.21 49.26 97.21 95.74 32.98 95.74 32.98 49.26"/><rect class="cls-5" x="34.99" y="51.86" width="60.03" height="43.89"/><rect class="cls-5" x="34.99" y="51.86" width="4.25" height="43.89"/><rect class="cls-5" x="90.77" y="51.86" width="4.25" height="43.89"/><polygon class="cls-6" points="35.02 51.86 95.17 51.86 95.17 51.86 66.73 43.91 35.02 51.86"/><rect class="cls-5" x="34.99" y="51.86" width="60.03" height="4.25"/><polygon class="cls-6" points="39.23 56.11 46.38 60.5 46.38 95.74 39.23 95.74 39.23 56.11"/><polygon class="cls-6" points="39.23 56.11 46.38 60.5 83.62 60.5 90.77 56.11 39.23 56.11"/><polygon class="cls-6" points="90.77 56.11 83.62 60.5 83.62 95.74 90.77 95.74 90.77 56.11"/><rect class="cls-7" x="62.26" y="68.92" width="11.68" height="10.47"/><rect class="cls-7" x="62.1" y="68.92" width="11.98" height="1.74"/><polygon class="cls-8" points="73.93 79.39 69.55 79.39 62.26 70.66 73.93 70.66 73.93 79.39"/><polygon class="cls-9" points="72.93 68.92 71.65 68.92 71.65 71.33 71.92 71.2 72.17 71.32 72.52 71.11 72.93 71.33 72.93 68.92"/><polygon class="cls-9" points="64.54 68.92 63.26 68.92 63.26 71.33 63.54 71.2 63.79 71.32 64.13 71.11 64.54 71.33 64.54 68.92"/><rect class="cls-7" x="50.12" y="68.92" width="11.68" height="10.47"/><rect class="cls-7" x="49.96" y="68.92" width="11.98" height="1.74"/><polygon class="cls-8" points="61.8 79.39 57.41 79.39 50.12 70.66 61.8 70.66 61.8 79.39"/><polygon class="cls-9" points="60.79 68.92 59.51 68.92 59.51 71.33 59.79 71.2 60.04 71.32 60.38 71.11 60.79 71.33 60.79 68.92"/><polygon class="cls-9" points="52.4 68.92 51.12 68.92 51.12 71.33 51.4 71.2 51.65 71.32 51.99 71.11 52.4 71.33 52.4 68.92"/><rect class="cls-10" x="41.76" y="79.79" width="16.53" height="15.95"/><rect class="cls-11" x="43.17" y="81.14" width="2.07" height="13.12"/><rect class="cls-11" x="45.24" y="81.14" width="2.07" height="13.12"/><rect class="cls-11" x="47.32" y="81.14" width="2.07" height="13.12"/><rect class="cls-11" x="49.39" y="81.14" width="2.07" height="13.12"/><rect class="cls-11" x="51.47" y="81.14" width="2.07" height="13.12"/><rect class="cls-11" x="53.54" y="81.14" width="2.07" height="13.12"/><rect class="cls-11" x="55.62" y="81.14" width="1.2" height="13.12"/><rect class="cls-10" x="43.54" y="82.17" width="0.83" height="11.83"/><rect class="cls-10" x="45.62" y="82.17" width="0.83" height="11.83"/><rect class="cls-10" x="47.69" y="82.17" width="0.82" height="11.83"/><rect class="cls-10" x="49.77" y="82.17" width="0.83" height="11.83"/><rect class="cls-10" x="51.84" y="82.17" width="0.83" height="11.83"/><rect class="cls-10" x="53.91" y="82.17" width="0.83" height="11.83"/><rect class="cls-10" x="55.99" y="82.17" width="0.83" height="11.83"/><rect class="cls-12" x="44.37" y="81.14" width="0.88" height="13.12"/><rect class="cls-12" x="46.44" y="81.14" width="0.88" height="13.12"/><rect class="cls-12" x="48.52" y="81.14" width="0.88" height="13.12"/><rect class="cls-12" x="50.59" y="81.14" width="0.88" height="13.12"/><rect class="cls-12" x="52.67" y="81.14" width="0.88" height="13.12"/><rect class="cls-12" x="54.74" y="81.14" width="0.88" height="13.12"/><rect class="cls-10" x="58.69" y="79.79" width="16.53" height="15.95"/><rect class="cls-11" x="60.1" y="81.14" width="2.08" height="13.12"/><rect class="cls-11" x="62.17" y="81.14" width="2.07" height="13.12"/><rect class="cls-11" x="64.25" y="81.14" width="2.07" height="13.12"/><rect class="cls-11" x="66.32" y="81.14" width="2.07" height="13.12"/><rect class="cls-11" x="68.4" y="81.14" width="2.07" height="13.12"/><rect class="cls-11" x="70.47" y="81.14" width="2.08" height="13.12"/><rect class="cls-11" x="72.55" y="81.14" width="1.2" height="13.12"/><rect class="cls-10" x="60.47" y="82.17" width="0.83" height="11.83"/><rect class="cls-10" x="62.55" y="82.17" width="0.83" height="11.83"/><rect class="cls-10" x="64.62" y="82.17" width="0.83" height="11.83"/><rect class="cls-10" x="66.7" y="82.17" width="0.83" height="11.83"/><rect class="cls-10" x="68.77" y="82.17" width="0.83" height="11.83"/><rect class="cls-10" x="70.85" y="82.17" width="0.83" height="11.83"/><rect class="cls-10" x="72.92" y="82.17" width="0.83" height="11.83"/><rect class="cls-12" x="61.3" y="81.14" width="0.88" height="13.12"/><rect class="cls-12" x="63.37" y="81.14" width="0.88" height="13.12"/><rect class="cls-12" x="65.45" y="81.14" width="0.87" height="13.12"/><rect class="cls-12" x="67.52" y="81.14" width="0.88" height="13.12"/><rect class="cls-12" x="69.6" y="81.14" width="0.88" height="13.12"/><rect class="cls-12" x="71.67" y="81.14" width="0.88" height="13.12"/><rect class="cls-13" x="50.12" y="79.39" width="23.8" height="0.4"/><rect class="cls-13" x="58.29" y="79.79" width="0.4" height="15.95"/><rect class="cls-7" x="75.58" y="85.27" width="11.68" height="10.47"/><rect class="cls-7" x="75.43" y="85.27" width="11.98" height="1.74"/><polygon class="cls-8" points="87.26 95.74 82.88 95.74 75.58 87.02 87.26 87.02 87.26 95.74"/><polygon class="cls-9" points="86.26 85.27 84.98 85.27 84.98 87.68 85.25 87.56 85.5 87.67 85.85 87.47 86.26 87.68 86.26 85.27"/><polygon class="cls-9" points="77.87 85.27 76.59 85.27 76.59 87.68 76.86 87.56 77.11 87.67 77.46 87.47 77.87 87.68 77.87 85.27"/><path class="cls-5" d="M108.29,94H93.15c0,.36,0,.7,0,1,0,.52-.2.71-.71.72-.7,0-1.41,0-2.11,0-.53,0-.69-.19-.7-.72,0-.33,0-.65,0-1-1-.1-1.12-.82-1.11-1.66,0-6,0-12.1,0-18.15,0-.36-.09-.52-.46-.47a3.81,3.81,0,0,1-.44,0c-.57,0-.63.08-.62.66,0,.26.06.41.35.39s.43.17.43.46q0,1.72,0,3.43a.43.43,0,0,1-.48.49h-1c-.55,0-.66-.12-.67-.66,0-1,0-1.93,0-2.89,0-.75,0-.77.74-.89.12-.5-.17-1.22.47-1.47A6.94,6.94,0,0,1,88.5,73c0-.13,0-.29,0-.45,0-1.49,0-3,0-4.46a2.24,2.24,0,0,1,2.09-2.35,77.64,77.64,0,0,1,11.89-.55c2.72.11,5.44.34,8.16.53a2.26,2.26,0,0,1,2.25,2.44q0,2.13,0,4.27c0,.19,0,.38,0,.57a7.15,7.15,0,0,1,1.68.21c.65.25.38,1,.47,1.46.76.15.76.15.76.93,0,1,0,1.93,0,2.89,0,.46-.19.66-.65.64s-.69,0-1,0a.45.45,0,0,1-.51-.51c0-1.13,0-2.26,0-3.38,0-.51.35-.51.69-.5.28-1,.07-1.14-1.38-1,0,.19,0,.4,0,.6q0,9,0,18.1c0,1.1-.07,1.21-1.1,1.61,0,.34,0,.7,0,1.06a.54.54,0,0,1-.57.64c-.78,0-1.57,0-2.35,0-.4,0-.58-.26-.59-.64S108.29,94.38,108.29,94Zm-7.57-22.73h-9.8a1.17,1.17,0,0,0-1.35,1.3q0,5.56,0,11.11A1.18,1.18,0,0,0,90.75,85c2.13.18,4.26.39,6.39.5a77.88,77.88,0,0,0,13.5-.49,1.2,1.2,0,0,0,1.22-1.36c0-1.17,0-2.35,0-3.52,0-2.48,0-5,0-7.45,0-1-.44-1.39-1.43-1.39Zm0-4.43h-7.5c-.59,0-.83.23-.84.82s0,1.11,0,1.67.25.87.86.87h14.89a.73.73,0,0,0,.82-.81c0-.54,0-1.08,0-1.62,0-.7-.24-.93-.94-.93Zm-.08,26.08c.95,0,1.9,0,2.84,0,.49,0,.63-.19.61-.64,0-.71,0-.79-.61-.79-1.89,0-3.79,0-5.68,0-.48,0-.57.24-.56.64,0,.72,0,.78.56.79Zm5.83-3.51a1.17,1.17,0,0,0,1.15,1.16,1.14,1.14,0,0,0,1.1-1.14,1.11,1.11,0,0,0-1.11-1.12A1.13,1.13,0,0,0,106.52,89.38Zm-12.74-1.1a1.1,1.1,0,0,0-1.11,1.12,1.13,1.13,0,0,0,1.1,1.14,1.17,1.17,0,0,0,1.15-1.15A1.13,1.13,0,0,0,93.78,88.28ZM90.72,88a1.15,1.15,0,0,0-1.15,1.1,1.14,1.14,0,1,0,2.28,0A1.14,1.14,0,0,0,90.72,88Zm21.13,1.13a1.13,1.13,0,0,0-2.26,0,1.16,1.16,0,0,0,1.13,1.17A1.15,1.15,0,0,0,111.85,89.13Z"/><path class="cls-10" d="M100.73,71.24h9.71c1,0,1.43.41,1.43,1.39,0,2.48,0,5,0,7.45,0,1.17,0,2.35,0,3.52A1.2,1.2,0,0,1,110.64,85a77.88,77.88,0,0,1-13.5.49c-2.13-.11-4.26-.32-6.39-.5a1.18,1.18,0,0,1-1.18-1.29q0-5.56,0-11.11a1.17,1.17,0,0,1,1.35-1.3h9.8Z"/><path class="cls-10" d="M100.77,66.82h7.3c.7,0,.94.24.94.93,0,.54,0,1.08,0,1.62a.73.73,0,0,1-.82.81H93.29c-.61,0-.85-.26-.86-.87s0-1.11,0-1.67.25-.82.84-.82h7.5Z"/><path class="cls-10" d="M100.69,92.9H97.85c-.52,0-.55-.07-.56-.79,0-.41.08-.65.56-.64,1.89,0,3.79,0,5.68,0,.56,0,.59.08.61.79,0,.45-.13.65-.61.64C102.59,92.88,101.64,92.9,100.69,92.9Z"/><path class="cls-10" d="M106.52,89.38a1.13,1.13,0,0,1,1.14-1.1,1.11,1.11,0,0,1,1.11,1.12,1.14,1.14,0,0,1-1.1,1.14A1.17,1.17,0,0,1,106.52,89.38Z"/><path class="cls-10" d="M93.78,88.28a1.13,1.13,0,0,1,1.14,1.11,1.17,1.17,0,0,1-1.15,1.15,1.13,1.13,0,0,1-1.1-1.14A1.1,1.1,0,0,1,93.78,88.28Z"/><path class="cls-10" d="M90.72,88a1.14,1.14,0,0,1,1.13,1.11,1.14,1.14,0,1,1-2.28,0A1.15,1.15,0,0,1,90.72,88Z"/><path class="cls-10" d="M111.85,89.13a1.15,1.15,0,0,1-1.13,1.12,1.16,1.16,0,0,1-1.13-1.17,1.13,1.13,0,0,1,2.26,0Z"/></svg>