<svg id="Layer_1" data-name="Layer 1" xmlns="http://www.w3.org/2000/svg" viewBox="0 0 320.5 373.48"><defs><style>.cls-1{fill:#c3e8f6;}.cls-14,.cls-2{fill:#231f20;}.cls-2,.cls-4{opacity:0.1;}.cls-3{fill:#b2875d;}.cls-5{fill:#fff;}.cls-6{fill:#c3996c;}.cls-7{fill:#d21c59;}.cls-8{fill:#efeff1;}.cls-9{fill:#424143;}.cls-10{fill:#d7d7de;}.cls-11{fill:#faad60;}.cls-12{fill:#f79152;}.cls-13{opacity:0.2;}.cls-15{fill:#f2f2f2;}.cls-16{fill:#e6e7e7;}</style></defs><title>Artboard 1 copy</title><path class="cls-1" d="M115.9,246.9a13.24,13.24,0,0,0,2.74.29h47.67a10.35,10.35,0,0,1-.53,20.27H154.54a13.21,13.21,0,0,0-2.05.18,13.31,13.31,0,0,0,2.05,26.47h85.77V220.54H118.63a13.32,13.32,0,0,0-2.74,26.36Z"/><path class="cls-1" d="M302.33,246.9a13.24,13.24,0,0,1-2.74.29H251.92a10.35,10.35,0,0,0,.53,20.27h11.24a13.21,13.21,0,0,1,2.05.18,13.31,13.31,0,0,1-2.05,26.47H177.91V220.54H299.59a13.32,13.32,0,0,1,2.74,26.36Z"/><path class="cls-1" d="M44.59,63.79a13.25,13.25,0,0,1,2.74-.29H95l.06,0h.54V90.15H47.33a13.32,13.32,0,0,1-2.74-26.36Z"/><path class="cls-1" d="M69.59,113.79a13.25,13.25,0,0,1,2.74-.29H95.61v26.65H72.33a13.32,13.32,0,0,1-2.74-26.36Z"/><path class="cls-2" d="M271.79,348.8c0,5.92-59.13,5.17-132.08,5.17S7.63,354.72,7.63,348.8s59.13-10.72,132.08-10.72S271.79,342.88,271.79,348.8Z"/><polygon class="cls-3" points="227.07 348.08 50.65 348.08 50.66 212.12 227.06 212.12 227.07 348.08"/><g class="cls-4"><rect class="cls-5" x="50.74" y="269.01" width="17.92" height="9.83"/></g><g class="cls-4"><rect class="cls-5" x="50.74" y="291.9" width="17.92" height="9.83"/></g><g class="cls-4"><rect class="cls-5" x="50.74" y="314.8" width="17.92" height="9.83"/></g><g class="cls-4"><rect class="cls-5" x="209.11" y="269.01" width="17.92" height="9.83"/></g><g class="cls-4"><rect class="cls-5" x="209.11" y="291.9" width="17.92" height="9.83"/></g><g class="cls-4"><rect class="cls-5" x="209.11" y="314.8" width="17.92" height="9.83"/></g><polygon class="cls-6" points="261.19 248.49 224.9 214.4 227.06 212.12 263.34 246.2 261.19 248.49"/><polygon class="cls-6" points="16.53 248.49 52.82 214.4 50.66 212.12 14.38 246.2 16.53 248.49"/><polygon class="cls-6" points="238.84 257.32 38.88 257.32 50.66 212.12 227.06 212.12 238.84 257.32"/><path class="cls-7" d="M254.23,157.6l-44.83.6.44,14.22-41.65,8.47,10.59,5.65L171,197.83l27.53,9.88-9.92,13.09-13.61,18c-.77,0-1.53,0-2.29,0L184,220.33l6.83-11.2-27.53-8.47,5.65-11.29-21.18-10.59,41.65-12-13.21-8.13-79.46,1.07-17.43-108L262.8,34.07ZM268.45,46.78,260,146.3,272.68,48.9ZM73.63,58.07l-2.82,4.24,12,36.7ZM236,23.49,120.22,41.13,237.39,30.54ZM82.2,148.42l2,5.65h4.94l-1.1-5.65ZM80,106.78H67.28l12.64,35.29h6.91Zm189.87.71h4.94l2-5.65H271ZM279,60.19l-6.85,35.29h6.91l12.64-35.29Z"/><path class="cls-5" d="M141.1,129.72V116.36H118.3V112l21.9-31.34h7.17v30.51h6.87v5.21h-6.87v13.37Zm0-18.58V94.76q0-3.85.23-7.7h-.23c-1.51,2.87-2.72,5-4.08,7.25L125,111v.15Z"/><path class="cls-5" d="M191.93,104.65c0,16.69-6.19,25.9-17.07,25.9-9.59,0-16.08-9-16.24-25.22,0-16.46,7.1-25.52,17.07-25.52C186,79.81,191.93,89,191.93,104.65Zm-26.66.76c0,12.76,3.93,20,10,20,6.8,0,10-7.93,10-20.46,0-12.08-3.1-20-10-20C169.5,84.94,165.27,92,165.27,105.41Z"/><path class="cls-5" d="M218.58,129.72V116.36H195.78V112l21.9-31.34h7.17v30.51h6.87v5.21h-6.87v13.37Zm0-18.58V94.76q0-3.85.23-7.7h-.23c-1.51,2.87-2.72,5-4.08,7.25L202.5,111v.15Z"/><path class="cls-8" d="M157.35,68.14h-4.82v4.47h5.37V74h-7V61.55h6.7v1.34h-5.1v3.92h4.82Z"/><path class="cls-8" d="M160,61.72a16.68,16.68,0,0,1,3.07-.26,5.08,5.08,0,0,1,3.59,1,3.09,3.09,0,0,1,1,2.36A3.26,3.26,0,0,1,165.28,68V68a3.09,3.09,0,0,1,1.82,2.5,19.68,19.68,0,0,0,1,3.4H166.4a16,16,0,0,1-.83-3c-.37-1.71-1-2.36-2.48-2.41h-1.51V74H160Zm1.6,5.65h1.64c1.71,0,2.8-.94,2.8-2.36,0-1.6-1.16-2.3-2.85-2.32a6.57,6.57,0,0,0-1.58.15Z"/><path class="cls-8" d="M169.88,61.72a16.68,16.68,0,0,1,3.07-.26,5.07,5.07,0,0,1,3.59,1,3.09,3.09,0,0,1,1,2.36A3.26,3.26,0,0,1,175.18,68V68a3.09,3.09,0,0,1,1.82,2.5,19.68,19.68,0,0,0,1,3.4H176.3a16,16,0,0,1-.83-3c-.37-1.71-1-2.36-2.48-2.41h-1.51V74h-1.6Zm1.6,5.65h1.64c1.71,0,2.8-.94,2.8-2.36,0-1.6-1.16-2.3-2.85-2.32a6.57,6.57,0,0,0-1.58.15Z"/><path class="cls-8" d="M190.44,67.62c0,4.27-2.59,6.53-5.76,6.53s-5.58-2.54-5.58-6.29c0-3.94,2.45-6.51,5.76-6.51S190.44,63.94,190.44,67.62Zm-9.62.2c0,2.65,1.44,5,4,5s4-2.34,4-5.15c0-2.47-1.29-5-4-5S180.81,65.1,180.81,67.83Z"/><path class="cls-8" d="M192.52,61.72a16.68,16.68,0,0,1,3.07-.26,5.08,5.08,0,0,1,3.59,1,3.09,3.09,0,0,1,1,2.36A3.26,3.26,0,0,1,197.82,68V68a3.09,3.09,0,0,1,1.82,2.5,19.68,19.68,0,0,0,1,3.4h-1.66a16,16,0,0,1-.83-3c-.37-1.71-1-2.36-2.48-2.41h-1.51V74h-1.6Zm1.6,5.65h1.64c1.71,0,2.8-.94,2.8-2.36,0-1.6-1.16-2.3-2.85-2.32a6.57,6.57,0,0,0-1.58.15Z"/><circle class="cls-5" cx="115.19" cy="290.33" r="15.28"/><circle class="cls-9" cx="115.19" cy="290.33" r="11.33"/><circle class="cls-5" cx="111.77" cy="282.51" r="3.86"/><circle class="cls-5" cx="107.89" cy="290.58" r="1.92"/><circle class="cls-5" cx="112.13" cy="295.78" r="2.93"/><path class="cls-5" d="M125,292.17c-3.38.53-3.81,1-4.33,4.33-.53-3.38-1-3.81-4.33-4.33,3.38-.52,3.81-1,4.33-4.33C121.16,291.22,121.59,291.65,125,292.17Z"/><circle class="cls-5" cx="164.23" cy="290.33" r="15.28"/><circle class="cls-9" cx="164.23" cy="290.33" r="11.33"/><circle class="cls-5" cx="160.8" cy="282.51" r="3.86"/><circle class="cls-5" cx="156.93" cy="290.58" r="1.92"/><circle class="cls-5" cx="161.17" cy="295.78" r="2.93"/><path class="cls-5" d="M174,292.17c-3.38.53-3.81,1-4.33,4.33-.53-3.38-1-3.81-4.33-4.33,3.38-.52,3.81-1,4.33-4.33C170.2,291.22,170.62,291.65,174,292.17Z"/><path class="cls-9" d="M159.71,333.93a2.28,2.28,0,0,1-2.28-2.28,17.72,17.72,0,0,0-35.44,0,2.28,2.28,0,0,1-4.55,0,22.28,22.28,0,1,1,44.55,0A2.28,2.28,0,0,1,159.71,333.93Z"/><path class="cls-10" d="M259,339.69c18.77,2.43,26.52,8.47,17.32,13.49s-31.88,7.13-50.65,4.71-26.52-8.47-17.32-13.49S240.26,337.27,259,339.69Z"/><path class="cls-11" d="M204.49,346.53l.64-2.78a2.71,2.71,0,0,0-.06.67,2.71,2.71,0,0,1,.06-.67,5.46,5.46,0,0,1,1.35-2.45,6.53,6.53,0,0,1,.48-.48c.29-.26.7-.59,1-.82s.92-.6,1.33-.85,1.24-.65,1.78-.9,1.1-.47,1.58-.65c.93-.34,2.18-.74,3.13-1,.61-.18,1.43-.38,2-.54,1.4-.35,3.64-.77,4.16-.86.67-.11,1.57-.27,2.24-.36,1.4-.19,3.28-.43,4.69-.57a118,118,0,0,1,12.7-.51c1.89,0,1.89,0,5.21.19.77,0,1.8.13,2.58.18s2.37.2,5.08.55c.22,0,2.19.28,4.57.74,1.2.23,2.79.61,4,.9a36.9,36.9,0,0,1,5.25,1.78,19,19,0,0,1,2.48,1.29,11.12,11.12,0,0,1,1.86,1.42,7.14,7.14,0,0,1,.72.79,6,6,0,0,1,.48.71,5,5,0,0,1,.32.67,4.44,4.44,0,0,1,.2.64,2.72,2.72,0,0,1,0,.33,2.73,2.73,0,0,0,0-.33l.65,2.78c.39,1.65-.73,3.35-3.54,5-8.59,4.88-29.75,6.92-47.26,4.57C211,354.15,203.6,350.37,204.49,346.53Z"/><path class="cls-12" d="M254.23,334.73c16.33,2.2,23.08,7.66,15.07,12.21s-27.74,6.46-44.07,4.26-23.08-7.66-15.07-12.21S237.9,332.53,254.23,334.73Zm-35.93,5.36c-5.8,3.3-.91,7.26,10.92,8.85s26.13.21,31.94-3.09.91-7.26-10.92-8.85-26.13-.21-31.94,3.09"/><path class="cls-12" d="M233.37,281a3.35,3.35,0,0,1,1.62-2,7.37,7.37,0,0,1,2.85-.82,15.41,15.41,0,0,1,3.75,0,6.57,6.57,0,0,1,2.93,1,3.46,3.46,0,0,1,.88.85,3.13,3.13,0,0,1,.46.95c.09.3-.11.61-.62.9-1.52.87-5.28,1.23-8.39.81C234.48,282.38,233.17,281.7,233.37,281Z"/><path class="cls-11" d="M263.53,342.41l-1.77-6.14-.88-3.07-1.77-6.14-1.77-6.14-.88-3.07-1.77-6.14-1.77-6.14-.88-3.07-1.77-6.14-1.77-6.14-.88-3.07L245.87,281c.09.3-.11.61-.62.9-1.52.87-5.28,1.23-8.39.81-2.38-.32-3.69-1-3.49-1.69h0l-1.74,6.15-1.74,6.15-1.74,6.15-1.74,6.15-1.74,6.15-1.74,6.15L222,321l-1.74,6.15-1.74,6.15-.87,3.07-1.74,6.15c-.75,2.63,4.24,5.23,13.29,6.45,11.83,1.59,26.13.21,31.94-3.09C263.12,344.74,263.86,343.55,263.53,342.41Z"/><path class="cls-5" d="M225.3,309.46c-.45,1.59,2.56,3.16,8,3.9,7.15,1,15.78.13,19.29-1.86,1.18-.67,1.63-1.39,1.43-2.08l-1.77-6.14-.88-3.07L250.17,296c.15.51-.18,1-1,1.52-2.57,1.46-8.89,2.07-14.13,1.37-4-.54-6.21-1.69-5.88-2.85l-1.74,6.15-.87,3.07-1.2,4.25"/><path class="cls-5" d="M218.34,334c-.67,2.36,3.81,4.7,11.94,5.8,10.63,1.43,23.48.19,28.69-2.77,1.76-1,2.42-2.06,2.13-3.09l-1.77-6.14-.88-3.07-1.22-4.24c.24.84-.3,1.72-1.74,2.54-4.28,2.43-14.81,3.45-23.53,2.28-6.67-.9-10.34-2.81-9.79-4.75L218.34,334"/><polygon class="cls-11" points="205.13 343.75 205.12 343.75 205.12 343.75 205.13 343.75"/><g class="cls-13"><polygon class="cls-14" points="76.88 278.48 76.9 278.47 32.53 278.47 32.53 347.77 97.09 348.08 88.96 290.64 76.88 278.48"/></g><polygon class="cls-15" points="74.42 278.79 74.44 278.78 30.07 278.78 30.07 348.07 87.64 348.07 87.64 292.01 74.42 278.79"/><rect class="cls-16" x="33.39" y="284.12" width="43.98" height="0.76"/><rect class="cls-16" x="33.39" y="290.93" width="51.11" height="0.76"/><rect class="cls-16" x="33.39" y="297.75" width="51.11" height="0.76"/><rect class="cls-16" x="33.39" y="304.56" width="51.11" height="0.76"/><rect class="cls-16" x="33.39" y="311.38" width="51.11" height="0.76"/><rect class="cls-16" x="33.39" y="318.19" width="51.11" height="0.76"/><rect class="cls-16" x="33.39" y="325.01" width="51.11" height="0.76"/><rect class="cls-16" x="33.39" y="331.82" width="51.11" height="0.76"/><rect class="cls-16" x="33.39" y="338.64" width="51.11" height="0.76"/><rect class="cls-16" x="33.39" y="345.45" width="51.11" height="0.76"/><polygon class="cls-5" points="87.65 292.02 74.42 292.02 74.42 278.79 87.65 292.02"/></svg>