<svg id="Layer_1" data-name="Layer 1" xmlns="http://www.w3.org/2000/svg" viewBox="0 0 55 55"><defs><style>.cls-1{fill:#eaf1fa;}.cls-2,.cls-3{fill:#8aa2c2;}.cls-3{stroke:#eaf1fa;stroke-miterlimit:10;}</style></defs><title>6- bime</title><circle class="cls-1" cx="27.5" cy="27.5" r="27.5"/><path class="cls-2" d="M46.31,17.41a.61.61,0,0,0-.06-.26.5.5,0,0,0-.12-.27l-2.86-3.34H21.45l-2.86,3.34a.5.5,0,0,0-.12.27.61.61,0,0,0-.06.26v5H19.8V41.45H44.92V22.38h1.39ZM21.88,14.48h21l2,2.33H19.89ZM44,40.52H20.74V22.38H44Zm1.39-19.06h-26V17.73h26Zm0,0"/><path class="cls-2" d="M37.94,24.24H26.78v4.65H37.94ZM37,28h-9.3V25.18H37Zm0,0"/><path class="cls-2" d="M39.34,31.22h-14v6.51h14ZM38.4,36.8H26.32V32.15H38.4Zm0,0"/><path class="cls-2" d="M28.64,35.87H31a.46.46,0,0,0,0-.93H28.64a.46.46,0,1,0,0,.93Zm0,0"/><path class="cls-2" d="M31,34h5.11a.46.46,0,1,0,0-.93H31A.46.46,0,1,0,31,34Zm0,0"/><path class="cls-2" d="M28.64,34a.46.46,0,1,0-.33-.13.48.48,0,0,0,.33.13Zm0,0"/><path class="cls-2" d="M33,35.07a.46.46,0,1,0,.66,0,.49.49,0,0,0-.66,0Zm0,0"/><path class="cls-2" d="M36.08,34.94h-.46a.46.46,0,1,0,0,.93h.46a.46.46,0,1,0,0-.93Zm0,0"/><circle class="cls-1" cx="19.3" cy="27.5" r="9.34"/><path class="cls-2" d="M19.63,21.61a5.89,5.89,0,1,0,5.89,5.89,5.9,5.9,0,0,0-5.89-5.89Zm4,4.8-4.21,4.21a.84.84,0,0,1-1.19,0l-2.52-2.52a.84.84,0,0,1,1.19-1.19l1.93,1.93,3.61-3.61a.84.84,0,1,1,1.19,1.19Zm0,0"/><path class="cls-3" d="M29.72,16.56h-2a10.63,10.63,0,0,1-7.53-3.18.84.84,0,0,0-1.19,0,10.63,10.63,0,0,1-7.53,3.18h-2a.84.84,0,0,0-.84.84V27.5c0,7.56,5.5,11.08,9.14,13.37a7.29,7.29,0,0,0,1.8,1,7,7,0,0,0,1.76-1C25,38.6,30.57,35.08,30.57,27.5V17.4a.84.84,0,0,0-.84-.84ZM19.63,35.07A7.57,7.57,0,1,1,27.2,27.5a7.58,7.58,0,0,1-7.57,7.57Zm0,0"/></svg>