<svg id="Layer_1" data-name="Layer 1" xmlns="http://www.w3.org/2000/svg" viewBox="0 0 70 70"><defs><style>.cls-1{fill:#dc8743;}.cls-2{fill:#3b566a;}.cls-3{fill:#647a8a;}.cls-4{fill:#fcd463;}.cls-5{fill:#f5c359;}</style></defs><title>png 9 - 2 copy</title><path class="cls-1" d="M56.54,31.5H13.46a4,4,0,0,0-4,4v30a4,4,0,0,0,4,4H56.54a4,4,0,0,0,4-4v-30A4,4,0,0,0,56.54,31.5Z"/><path class="cls-2" d="M35,7.24A12.08,12.08,0,0,1,47.07,19.31v9.78h6.69V19.31A18.78,18.78,0,0,0,35,.54h0V7.24Z"/><path class="cls-3" d="M32.57,7.49A12.07,12.07,0,0,1,35,7.24V.54A18.78,18.78,0,0,0,16.24,19.31v.2h6.69v-.2A12.09,12.09,0,0,1,32.57,7.49Z"/><path class="cls-4" d="M22.93,29.09H13.46a4,4,0,0,0-4,4v30a4,4,0,0,0,4,4H35v-38Z"/><path class="cls-5" d="M56.54,29.09H35V67H56.54a4,4,0,0,0,4-4v-30A4,4,0,0,0,56.54,29.09Z"/><path class="cls-1" d="M39.54,42.27a4.54,4.54,0,1,0-7,3.83l-1.36,6.46h7.57L37.43,46.1A4.53,4.53,0,0,0,39.54,42.27Z"/></svg>