<svg id="Layer_1" data-name="Layer 1" xmlns="http://www.w3.org/2000/svg" viewBox="0 0 19 19"><defs><style>.cls-1{fill:#fff;}</style></defs><title>icon b2b amar copy 2</title><path class="cls-1" d="M14.7,16.15H4.14a.85.85,0,1,0,0,1.69H14.7a.85.85,0,1,0,0-1.69Zm0,0"/><path class="cls-1" d="M3.08,7.81v4.11a.64.64,0,0,0,1.27,0V7.81a.64.64,0,0,0-.64-.64.64.64,0,0,0-.63.64Zm0,0"/><path class="cls-1" d="M5.19,7v5a.64.64,0,0,0,.64.63.63.63,0,0,0,.63-.63V7a.63.63,0,0,0-.63-.63A.64.64,0,0,0,5.19,7Zm0,0"/><path class="cls-1" d="M7.31,6.12v5.8a.63.63,0,0,0,1.26,0V6.12a.63.63,0,1,0-1.26,0Zm0,0"/><path class="cls-1" d="M17.88,1H1a.85.85,0,0,0-.85.85V14.46A.85.85,0,0,0,1,15.3H17.1L17,15.24l-1.17-1.17a4.55,4.55,0,0,1-2.23.58,4.48,4.48,0,0,1-2.89-1H1.81V2.73H17V7.12a4.47,4.47,0,0,1,1.14,3,4.54,4.54,0,0,1-.58,2.22l1.13,1.13V1.89A.85.85,0,0,0,17.88,1Zm0,0"/><path class="cls-1" d="M16.89,12.84a.37.37,0,0,0-.31-.11l-.18-.18a3.68,3.68,0,1,0-6.46-2.43A3.68,3.68,0,0,0,11,12.73a3.63,3.63,0,0,0,2.6,1.08,3.7,3.7,0,0,0,2.44-.92l.18.17a.36.36,0,0,0,.1.31l1.28,1.27a.34.34,0,0,0,.26.11.35.35,0,0,0,.27-.11.37.37,0,0,0,0-.53Zm-1.18-.65a2.94,2.94,0,0,1-5-2.07,2.94,2.94,0,1,1,5,2.07Zm0,0"/></svg>