<svg id="Layer_1" data-name="Layer 1" xmlns="http://www.w3.org/2000/svg" viewBox="0 0 19 19"><defs><style>.cls-1{fill:#fff;}</style></defs><title>moarrefi b doostan</title><path class="cls-1" d="M17.86,11a3.9,3.9,0,0,0-2.41-1.13A3.85,3.85,0,1,0,9,6.77a5.08,5.08,0,0,1,2.58,6.86,5.13,5.13,0,0,1,2.76,4.59v.05l0,.64H19l0-5.1A3.89,3.89,0,0,0,17.86,11Zm0,0"/><path class="cls-1" d="M9.6,14.3a3.85,3.85,0,1,0-5.15,0,3.89,3.89,0,0,0-3.6,3.85l0,.77H13.1l0-.71A3.9,3.9,0,0,0,9.6,14.3Zm0,0"/><path class="cls-1" d="M2.49,4.71V6.14a1.07,1.07,0,0,0,2.15,0V4.71H6.07a1.07,1.07,0,0,0,0-2.15H4.64V1.15a1.07,1.07,0,0,0-2.15,0V2.56H1.08a1.07,1.07,0,0,0,0,2.15Zm0,0"/></svg>