<svg id="Layer_1" data-name="Layer 1" xmlns="http://www.w3.org/2000/svg" viewBox="0 0 50 50"><defs><style>.cls-1{fill:#49b96e;fill-rule:evenodd;}.cls-2{fill:#fff;}</style></defs><title>locstion</title><path class="cls-1" d="M35.34,0H14.66A10.38,10.38,0,0,0,4.31,10.34V31A10.38,10.38,0,0,0,14.66,41.38H35.34L45.69,50V10.34A10.38,10.38,0,0,0,35.34,0Z"/><path class="cls-2" d="M26.9,20.88l-1.06.61v11L35.34,27V16Zm0,0"/><path class="cls-2" d="M28.62,11,25,8.91l-9.77,5.64,3.66,2.12Zm0,0"/><path class="cls-2" d="M34.72,14.55l-4.21-2.4-9.76,5.64.56.29L25,20.19l3.64-2.1Zm0,0"/><path class="cls-2" d="M20,21.83l-1.75-.9V18.13l-3.61-2.08V27l9.44,5.45V21.51L20,19.16Zm0,0"/></svg>