<svg id="Layer_1" data-name="Layer 1" xmlns="http://www.w3.org/2000/svg" xmlns:xlink="http://www.w3.org/1999/xlink" viewBox="0 0 500 500"><defs><style>.cls-1,.cls-13{fill:none;}.cls-2{clip-path:url(#clip-path);}.cls-3{fill:#dcdbdb;}.cls-4{fill:#03aab7;}.cls-5{fill:#7dbd73;}.cls-6{fill:#d7c8d3;}.cls-7{fill:#aec93a;}.cls-8{fill:#df1c76;}.cls-9{fill:#e0225b;}.cls-10{fill:#fff4f2;}.cls-11{fill:#fff;}.cls-12{fill:#715869;}.cls-13{stroke:#aeaeae;stroke-miterlimit:10;stroke-width:2px;stroke-dasharray:6 8;}.cls-14{fill:#092445;opacity:0.1;}.cls-15{fill:#49b96e;fill-rule:evenodd;}</style><clipPath id="clip-path"><path class="cls-1" d="M500.84,0l.36,499.66H-1.2V0Z"/></clipPath></defs><title>18 - tasvire kart copy 7</title><g class="cls-2"><rect class="cls-3" x="-74.68" y="-12.19" width="659.49" height="659.49"/><path class="cls-4" d="M439.6,401.17l9.2,108.46,136-8.24V416.92s-18.93-3.32-54.34-2.28C498.08,415.59,439.6,401.17,439.6,401.17Z"/><polygon class="cls-5" points="298.12 -33.66 349.09 -38.65 357.01 -9.78 314.66 10.09 298.12 -33.66"/><polygon class="cls-5" points="113.23 200.15 144.58 266.95 193.64 266.95 179.62 215.84 155.67 173.11 113.23 200.15"/><polyline class="cls-6" points="385.81 61.41 404.22 127.92 528.77 103.12 516.55 46.06 499.82 9.03 379.65 61.56"/><polyline class="cls-7" points="1.65 181.77 20.07 248.27 109.05 205.79 93.06 176.79 66.14 140.53 -24 157.31"/><g id="Calles_anchas" data-name="Calles anchas"><path class="cls-8" d="M24.1,3.46l-1.89,0c0-.64,0-1.28,0-1.91l1.89,0C24.07,2.21,24.08,2.83,24.1,3.46Z"/><path class="cls-8" d="M64.47,132.2l-.9-1.64,1.65-.92c.3.53.6,1.08.92,1.66Z"/><path class="cls-8" d="M61.8,127.45c-.59-1-1.14-1.94-1.66-2.81l-.15-.26,1.62-1,.16.26,1.67,2.83Zm-3.63-6.19c-.65-1.15-1.19-2.17-1.7-3.21l1.7-.83c.49,1,1,2,1.65,3.11ZM55,114.73c-.44-1.06-.86-2.17-1.29-3.39l1.78-.63c.42,1.19.83,2.27,1.26,3.3Zm-2.43-6.81c-.34-1.07-.69-2.21-1-3.45l1.82-.53c.35,1.22.7,2.36,1,3.41Zm-2-6.92c-.3-1.09-.61-2.25-.93-3.47l1.83-.48c.32,1.22.63,2.37.92,3.45Zm-2.11-6.72L47,91l1.74-.72c.48,1.13.94,2.24,1.38,3.31Zm-2.75-6.62-1.37-3.32L46,83.62l1.38,3.31ZM42.92,81,41.56,77.7,43.32,77c.45,1.12.9,2.23,1.35,3.32Z"/><polygon class="cls-8" points="40.21 74.32 39.51 72.56 41.27 71.87 41.97 73.62 40.21 74.32"/><path class="cls-8" d="M103.61,205.57l-1.88.22s-.07-.62-.3-1.79l1.85-.36C103.53,204.88,103.61,205.54,103.61,205.57Z"/><path class="cls-8" d="M100.72,200.91c-.23-.91-.51-1.94-.84-3.08l1.81-.54q.51,1.76.87,3.15Z"/><path class="cls-8" d="M98.92,194.77c-.19-.57-.39-1.16-.61-1.78l1.79-.62c.22.62.42,1.22.62,1.81Z"/></g><polygon class="cls-9" points="465.6 71.69 458.9 71.85 458.74 65.16 448.7 65.39 448.86 72.09 442.16 72.25 442.4 82.29 449.1 82.13 449.25 88.82 459.3 88.59 459.14 81.89 465.83 81.73 465.6 71.69"/><path class="cls-10" d="M544.82-12,502,3.42,479.36-42.19H456.6Q447.66-38,434.47-31.61c-14,6.8-28.17,13.85-35.55,17.53a3.38,3.38,0,0,0-1,.15L373.42-6.21,361-3.95A124.68,124.68,0,0,1,357.76-16c-.83-4.11-1.77-8-2.68-11.74a139.9,139.9,0,0,1-2.95-14.42h-7.61c0,.18,0,.37.05.56l-16.31,2.27-.06-2.83h-6.63l.09,3.76-15,2.1q-.89-2.91-1.77-5.86H289.06q1.69,5.82,3.45,11.47a3.29,3.29,0,0,0-1.94-.64l-54.1.23A3.3,3.3,0,0,0,234-30a3.21,3.21,0,0,0-.74,2.64l4.43,25.76c-5.35,0-11.22,0-17.27.16l-.17-7,11.22-.71a3.3,3.3,0,0,0,3.09-3.52A3.3,3.3,0,0,0,231-15.68l-20.06,1.27a3.3,3.3,0,0,0-3.1,3.36,3.31,3.31,0,0,0,3.21,3.25l2.54.08.16,6.5c-25.35.81-42.8,3-51.92,6.52l-.35.13L136.39-6.81l11.75-23.54a156.15,156.15,0,0,0,18.7,2.15c42,1.93,51,1.45,53.46-2.86.92-1.62,2.16-6.1,2.64-11.13h-6.66a30.83,30.83,0,0,1-1.52,7.41c-3.28,1.33-17.32,1.15-30.7.68l.56-8.09H177l-.53,7.79c-3.4-.14-6.59-.29-9.36-.42a146.51,146.51,0,0,1-16.94-1.89c.3-1.59.62-3.48.88-5.48h-6.71c-.19,1.4-.42,2.84-.69,4.29-6.25-1.23-12.45-2.73-18.25-4.29H102.68a329.59,329.59,0,0,0,38.7,10.57L130.44-9.71,95.21-26.9l.38-15.29H90.86L90.5-27.62l-58.8-.16c.14-4.56.28-9.4.42-14.41H17c-.14,5-.27,9.82-.42,14.36L-16.15-28l2.54-14.22h-6.73L-22.87-28c-10.51-.06-18.1-.12-20.36-.18-5.79-.16-11.35,1.84-15.62,4A94.28,94.28,0,0,0-69-42.19H-87.67C-79.83-31.8-75.36-24.7-72.89-18.43-69-8.47-70.06.38-72.24,18c-.28,2.34-.59,4.8-.9,7.42-3.29,27.73-.24,47.91,2.82,59.79l-44.36,3.42v6.64l39.51-3.05A5.31,5.31,0,0,0-75,93l5.73,19.77-10.62,2-.15,0L-98,118.26l-12.46-20.33a4.25,4.25,0,0,0-4.21-2v11.41l11,17.86a4.26,4.26,0,0,0,4.42,2l17.4-3.32L-75,141.94l-15.12,8a4.25,4.25,0,0,0-1.78,5.75,4.26,4.26,0,0,0,5.75,1.77l18.45-9.74a4.26,4.26,0,0,0,2-5.28l-7.69-20.2,6.5-1.25,11.06,38.15-4.91,1.47a4.24,4.24,0,0,0-2.72,2.49,4.22,4.22,0,0,0,.24,3.68L-8.7,263.49c-1,.64-2,1.27-3.07,1.95-3.24,2.1-6.59,4.31-10,6.6l-49.72-69.9a4.24,4.24,0,0,0-5.12-1.45l-29.53,12.5c-2.67-2.86-5.5-6-8.49-9.39v12.75l1.69,1.83-1.69,1.94v13l7.57-8.74C-98,234-91,240.19-85.67,244.88c8,7.11,10.58,9.51,10.65,12.8l.1,4.31c-9.24,2.49-24.84,10.62-39.76,19.6v17.88C-98.13,289-78.51,278-70.18,276.39a195.37,195.37,0,0,1,16.9,16.29c-21.23,13.62-44.23,27.32-61.4,33.57v39c8.34,22.42,21.27,65.76,26.25,93.42a.13.13,0,0,0,0,.06l-10.7,1-15.56-82.11v45.73l7.05,37.16-7.05.65v8.55l8.64-.8,9.62,50.79a4.26,4.26,0,0,0,3.79,3.45l6.18.57c1.44,8.82,4,16.94,8.31,21.58,1.29,1.37,2.54,2.61,3.77,3.76-12.74,2.48-26.49,7.8-40,13l-.27.1v16.22q2.88-1.1,5.73-2.21c27.32-10.57,53.12-20.55,64.72-6.48,3.21,3.89,6.46,7.66,9.69,11.29-6.8,17.05-6.5,30.13-5.76,36.26H-25c-.12-.5-1.88-8.2,1.2-20.63a4.28,4.28,0,0,0,3.72,1.21,4.17,4.17,0,0,0,.75-.2l.23-.08c7.64,7.79,14.69,14.48,20.43,19.71h23c-3.12-2.61-14.13-12-27.7-25.43l11-4a4.26,4.26,0,0,0-2.92-8L-10,585.21q-3.27-3.36-6.63-7c1.44-2.72,3.08-5.55,5-8.47s4.07-5.85,6.24-8.8a120.47,120.47,0,0,0,8.89-13.19c.3-.54.59-1.08.86-1.63a294.08,294.08,0,0,0,38-6.17L62.75,617.3h8.81l-21-79.43q4.06-1.12,8-2.42L82.93,617.3h8.89L66.56,532.51a82,82,0,0,0,11.83-5.83c11-6.65,24.64-11,42-14.64l9.06,29.22,0,.09,18.94,61.14-3.25,1.43-.53.26q-14.39,7.7-27.33,13.12h35c3.91-1.72,17.26-7.58,29.79-13.22,2.19,6.76,3.63,11.17,3.93,12.08a6.57,6.57,0,0,0,.47,1.13h18.28a36.52,36.52,0,0,1-4.57-6.44c-.52-1.62-2.06-6.33-4.25-13.11,1.54-.71,3-1.39,4.26-2,15.64-7.46,33.15-11.31,53.17-11.68l1.41,33.23H318c14.55-2.41,26.65-4.84,29.35-5.68,10.21-3.17,136.56-22.25,146.36-21a4.15,4.15,0,0,0,2.06.16,4.25,4.25,0,0,0,1.16-8c-1.76-.86-5.05-2.46-75.84,8-32.69,4.85-71.13,11.11-76.27,12.71-8.91,2.78-66.59,12.28-81.55,11.19L262,584.13c2.13.07,4.27.15,6.45.29,6.28.39,13.33.55,20.68.55l.65,21.37a4.24,4.24,0,0,0,4.38,4.12,3.68,3.68,0,0,0,.58-.05,4.25,4.25,0,0,0,3.54-4.33l-.64-21.18c30.14-.46,62.24-3.1,66.09-3.43,14-.08,41.69-2.79,68.58-7h.17c16.74-2.63,33.14-5.83,45.69-9.35a301.46,301.46,0,0,1,66.69-10.57V539.4a312.42,312.42,0,0,0-70.77,11.13,377,377,0,0,1-37.4,7.89c-3.38-12.65-11-42-18-73.89,17.12-.48,36.48-2,60.69-4.71,17.78-1.95,41.38-2.76,65.51-2.94V461.72c-24.54.19-48.69,1-67.16,3.06-25.13,2.76-44.85,4.32-62.26,4.68-2.84-13.73-5.42-27.52-7.38-40.3-2.29-15-4.86-32.8-7.5-51.42a94.46,94.46,0,0,1,30.54,2.07c10.45,2.53,34.63,5.54,57.49,7.18,14.82,1.06,40.19,2.31,56.27,0v-6.69c-27.06,4.27-93.21-2.35-112.21-6.94a100.38,100.38,0,0,0-33-2.21c-1.3-9.2-2.61-18.53-3.9-27.78l7.83-.19a3.1,3.1,0,0,0,.54-.05,3.76,3.76,0,0,0,3.15-3.67l.32-21.36a9.59,9.59,0,0,0,7.19-.58c3.39-1.87,5-5.88,4.68-11.92-.4-8.26-.49-13.23-.5-16l11.6-2a3.78,3.78,0,0,0,3.08-4.46c0-.05-.24-1.26-.68-3.66,4.91.16,9.87.33,14.84.54l-1.21,6.09a2.37,2.37,0,0,0,4.64.92l1.35-6.81q6.42.29,12.82.64l.25,13.17a2.35,2.35,0,0,0,2.41,2.32l.35,0a2.36,2.36,0,0,0,2-2.38l-.24-12.81q5.31.31,10.52.68l.29,12.2a3.3,3.3,0,0,0,3.39,3.23,3.57,3.57,0,0,0,.47,0,3.31,3.31,0,0,0,2.76-3.34l-.27-11.55q3.27.25,6.5.54l-.56,10.48a3.31,3.31,0,0,0,6.61.36l.55-10.23q4.82.47,9.43,1L507.63,293a3.33,3.33,0,0,0,3.29,4.12l9.05-.22-4,60.12a3.31,3.31,0,0,0,6.61.43l4.19-63.72a3.32,3.32,0,0,0-3.38-3.53l-8.33.19,1.28-5.1c8.36,1.08,16.09,2.33,22.89,3.78l5.54,1.14v-9.66l-2.17-.44a108.18,108.18,0,0,0,1.61-13.75c.26-4.2.4-8.76.41-13.64h.15v-6.65l-.21,0c-.27-14.06-1.46-30.53-3.58-49.26a4.18,4.18,0,0,0-.17-.78,4,4,0,0,0,0-.78l-.49-13.84,4.4.13V173l-5.58-.16q-.69-8.19-1.48-16c1.93.07,4.32.1,7.06.11v-8.49c-3.38,0-6.1-.05-7.94-.15q-.82-7.51-1.69-14.65l9.63.21v-7.56l-10.59-.24q-1.31-10-2.7-19.28c2.4-.11,7.14-.3,13.29-.45V98.78c-7.1.18-12.36.41-14.45.51-3.43-21.73-7-39.78-10.15-53.62l24.6-10.61V27.85L518.71,39.11c-2.79-11.85-5-19.8-6.06-23.45L544.82,4.09ZM-109.81,188.48a4.32,4.32,0,0,0,3.29-.17l39.49-19a4.25,4.25,0,0,0,2-5.68,4.26,4.26,0,0,0-5.68-2l-35.58,17.11c-1.43-3.1-3.5-7.57-5.74-12.35l14.5-6.69a4.27,4.27,0,0,0,2.25-2.5,4.25,4.25,0,0,0-.28-3.35l-19.11-36.07V136l9.49,17.9-9.49,4.37v22.68c.87,1.87,1.69,3.66,2.44,5.31A4.28,4.28,0,0,0-109.81,188.48ZM401.53-8c7.26-3.63,21.65-10.78,35.84-17.68,14.4-7,25-12,31.62-14.9a3.16,3.16,0,0,0,1.22-.93L493.92,6.32l-35.7,12.83L432.69-1.35,419.53-9A3.33,3.33,0,0,0,416-9.26C409.5-5.72,402.48-3.9,401.3-4.89,401.29-4.9,400.91-5.64,401.53-8Zm-6.93,3.2A7,7,0,0,0,397,.13c2.82,2.41,7.44,2.41,14.13,0a64,64,0,0,0,6.16-2.63l33.42,24.34C420,32.88,393.82,42.27,380.4,47c-4.23-10.2-8.48-20.74-12.18-30.53,7-5.16,12.84-10.16,17.44-14.1A105,105,0,0,1,394.6-4.78ZM321.71,353.91h-.1l-15.88.38-.47-19.63v-.11l-.54-23,38.49,6.33a4.27,4.27,0,0,0,4.94-4.41l-1.77-34.87h2.72l7.4,0-5.91,74.78-1.65-.11h-.39ZM325,467.67c-5,.58-10.56,1.23-16.55,1.95L305.93,362.8l11.86-.28ZM50.68,473.3l1.77,6.63-2.22.89c-18.65,7.5-28.46,6.23-33.41,3.84a11.27,11.27,0,0,1-5.75-5.86c.78-1.18,4.79-5.65,21.91-9.71,27.2-6.47,74.41-23.76,91.23-30,3.06,5.44,5.88,10.54,8.23,15-14.27,3.77-43.16,11.88-72,22.77l-1.54-5.73a4.25,4.25,0,1,0-8.22,2.19ZM292.57,107.1a3.31,3.31,0,0,0,1.83,6.31,3.1,3.1,0,0,0,.58-.15c1.75-.63,17.33-6.25,25.35-11.1a3.31,3.31,0,1,0-3.43-5.66c-1.62,1-3.61,2-5.75,3l-4.43-9.29c9.46-3.81,18.56-7.35,27-10.54,3.48,12.08,7.32,29.48,11.18,48.86l-5.68.85c-2.66.16-28.66,1.92-47.21,11.12-10.89,5.39-25.16,6.69-37.91,6.61a4.23,4.23,0,0,0-2.4-.45,4.38,4.38,0,0,0-1.35.39c-6.62-.17-12.68-.65-17.4-1-2.6-.21-4.85-.39-6.71-.48-7.3-.38-12.39,1.69-15.68,3.91a62.34,62.34,0,0,0-4.27-10.81C233,122,268.37,105.91,300.58,92.72l4.37,9.17-12.38,5.21ZM318.37,266l-5.61-57.09L325.6,207l11.63,59.24.14,2.63L318,268.17A4.14,4.14,0,0,0,318.37,266ZM312,201.28,306.28,143c2.13-.66,4.28-1.26,6.41-1.8l11.43,58.21Zm22,4.43L345.54,204h0a4,4,0,0,0,2.46-1.69,4.12,4.12,0,0,0,.6-3l-10.87-57.57a3.78,3.78,0,1,0-7.43,1.43l10.15,53.75-7.95,1.23L321,139.39A164.41,164.41,0,0,1,339.83,137l.36,0,6.2-.93c4.75,24.41,9.46,51.16,13.47,74,1.68,9.52,3.24,18.41,4.65,26.23,1.52,8.45,3.35,20,5.29,33-8.3,0-15.37,0-20.73,0h-2.32l-.84,0-.19-3.59a2.8,2.8,0,0,0,0-.4h0a1.75,1.75,0,0,0-.06-.33Zm-150.51,147a4.27,4.27,0,0,0,6-.28l7.91-8.7,3.56,1.56c-.28.66-.55,1.3-.81,1.93-.82,1.93-1.59,3.76-2.26,5.49-5.47,14.2-.71,42-.28,44.45l.32,2.74-14.48,4.49-12.31-132,39.76,1.4c2.43,31.6-2.07,50.51-6.81,63.55l-6.07-2.66a4.25,4.25,0,0,0-4.86,1l-10,11A4.26,4.26,0,0,0,183.52,352.75ZM160.58,239a4.26,4.26,0,0,0-5.74-1.81l-15.1,7.87-19.65-40.53c10.41-7.61,21.86-16.31,34.55-26.34l19.13,30.91,9.67,32.3a.65.65,0,0,0,0,.13l6.62,22.12L148,262.18l-4.57-9.43,15.32-8A4.27,4.27,0,0,0,160.58,239Zm-31.84,2.88,9.66,20-34.71-1.23ZM92.86,258.09,80.4,231.73c9.62-6.08,20.39-13.3,32.69-22.11L125,234.1Zm126.65,16.08,28.79,1,4.58,59.88-40.23,3.87C217.46,325.32,221.84,305.81,219.51,274.17ZM199.08,264l-6-20.06,19.87-2.23,4.54,22.94-2.29-.08a2.77,2.77,0,0,0-.41,0Zm27.13,1-4.78-24.2,14.46-1.63H236L257,236.75,260,265.8c0,.11.05.22.07.33Zm11.95-34.65c-4.95-11.75-23.19-55.67-25-68.53-.2-1.42-.42-2.78-.66-4.09,1.29-1.45,5.26-5,13.34-4.55,1.75.09,3.95.27,6.5.47,4.39.35,9.86.78,15.91,1l7.78,73.71ZM213.4,191.14c5.62,15.24,12.47,31.85,15.94,40.14l-38.75,4.35-8.83-29.49a4.09,4.09,0,0,0-.18-.49Zm-36.3,7.19-15.75-25.46q10.78-8.62,22.75-18.52c4.45-3.67,9.49-7.36,15-11a64,64,0,0,1,5.66,19.61c.6,4.39,2.83,11.76,5.76,20.18Zm28.79,157.48c.61-1.6,1.36-3.37,2.15-5.23.37-.9.76-1.82,1.16-2.77l45.1-4.34,2.91,25.31-53.32,5.58C203.7,367.37,204.12,360.39,205.89,355.81Zm51-80.33,17.1.6,3.84,56.58-16.13,1.55a4.15,4.15,0,0,0-.38-.76Zm11.52-9.06a4.5,4.5,0,0,0,.11-1.52L256.85,154.69a120.59,120.59,0,0,0,22.58-2.14l15.62,114.81Zm27,10.42.71,29.72v.18l.57,24.1-10.39,1-3.76-55.46ZM295,203.92l-7.28-53.53a57.31,57.31,0,0,0,7.66-3.1c.86-.42,1.74-.83,2.64-1.22l5.55,56.52Zm-89.44-82.49L188.65,92.52c11.91-7.86,27.62-18.84,43.82-30.38l22,34C237.32,104.11,220.49,112.64,205.57,121.43Zm-7.28,4.41a222,222,0,0,0-23.83,16.85c-26.45,21.89-48.25,38.76-66.63,52.06C104.9,185.08,98.5,169,84.73,149q-3-4.29-5.52-8.41l91.54-37.19.25-.11a120.69,120.69,0,0,0,10.49-6.12ZM167.41,95.55l-5.17,2.1-9.82-39,15.82-5.74L178.47,89C173.7,92.06,169.9,94.33,167.41,95.55Zm-11.57,4.7L74.78,133.18c-3.56-6.2-6.47-11.94-8.82-17l46.62-15.59,39.2-13.38Zm-25-12.9a31.51,31.51,0,0,1-2.93-9c-.63-3.24-1.31-6.68-2-10.21l15.87-5.57L146.17,61l4.91,19.5Zm8.7-31.06-15,5.25c-1.31-6.52-2.67-13.22-4-19.66L133.28,37l10.5,17.81ZM121.45,79.58a40.94,40.94,0,0,0,3.1,9.93l-14.09,4.81L63.27,110.1a131.09,131.09,0,0,1-5.7-15.72,7.72,7.72,0,0,0-.32-1l-.44-1.08,62.82-22C120.26,73.51,120.88,76.63,121.45,79.58ZM54.28,86.21l-.34-.81c-3-7.26-6.51-15.67-9.86-24.69L114.31,44c1.33,6.5,2.69,13.25,4,19.79ZM41.82,54.44C36.41,39,31.81,22.27,30.87,6.63l75.73,0c1.06,5.09,3.54,17,6.38,30.88ZM40,91.21c1.1,2.66,2.14,5.16,3.09,7.48.83,3,5.2,17.73,16.13,37.66l-28,5.06-.27.05-49.18,8.88c-18.24-31.75-31.95-55.41-34.29-59.45-.23-.52-.89-2.11-1.72-4.69l87.73-11C35.71,81,37.94,86.33,40,91.21ZM29.4,150.38l26.24,52.94a4.25,4.25,0,0,0,4.52,2.3,4,4,0,0,0,1.18-.38,4.26,4.26,0,0,0,1.93-5.7L38.12,148.8l25.56-4.61c2.57,4.29,5.42,8.76,8.58,13.36,16,23.21,21,40.34,22.41,46.54C68,222.58,49.26,232.94,33.47,241c-16-28.38-32.81-57.69-47.25-82.84Zm42.91,86.36,14.26,30.18a4.74,4.74,0,0,0,4.11,2.71l16.38.57a4.37,4.37,0,0,0-1,.44L64.4,296.18c-7.2-13-15.18-27.25-23.48-42C50.1,249.5,60.26,244,72.31,236.74Zm13.28,56.43,3.19,4.77a4.26,4.26,0,0,0,7.08-4.73l-3-4.49,17.64-10.82a4.25,4.25,0,0,0,1.4-5.85,4.21,4.21,0,0,0-2.15-1.75l29.48,1-61,50.12c-3-5.53-6.26-11.5-9.74-17.82ZM69.77,337.64c5,9.34,8.84,16.83,11.15,21.79,9.76,20.88,23,44.05,34.68,64.5l1,1.79c-9.24,3.43-25.1,9.22-41.74,14.86l-2.47-9.24,24.65-7.69a4.26,4.26,0,0,0,2.54-6L66.87,352.29a4.26,4.26,0,0,0-5.74-1.89c-.37.19-4.72,2.41-10.6,5.67L46.87,349C55.9,344.31,64.63,340.09,69.77,337.64Zm-5.49,96.23,2.53,9.42c-13.59,4.5-27.08,8.63-37.33,11.07-2.82.67-5.43,1.39-7.89,2.14l-1.31-8.9ZM19,439.07,17.39,427.9l42-12.4,2.71,10.15Zm46.3-34.2-11-41.16c2.68-1.49,5.06-2.77,6.89-3.74l20.12,40.18Zm19.86,3L89.76,417l-19.55,6.1-2.68-10Zm-28-.6-41,12.11-4.69-31.94A85.14,85.14,0,0,0,33,376.59c4.19-2.88,9-5.84,13.63-8.54Zm74,13.38-2.43-4.24c-11.54-20.19-24.62-43.08-34.11-63.4-2.53-5.41-6.78-13.66-12.26-23.92l67.55-55.54a4.25,4.25,0,0,0,1.27-1.8l11.42.4,8.8,94.35-30.55,9.78a4.26,4.26,0,0,0,2.6,8.11l28.76-9.22,3,31.83Zm68.64-5.44,3.37,28.33,3.55,39.16c-6.21.9-12.09,1.78-17.5,2.63-7.22,1.14-14.11,2.19-20.68,3.2l-7.27,1.11c-3.82-12.12-6.62-21.23-7.51-24.63a58.84,58.84,0,0,0-3.43-8.91c-.06-.15-.13-.29-.2-.43-2.72-5.86-6.63-13.15-11.33-21.54Zm6.5-17.36-.21-1.79c0-.09,0-.17,0-.25-.51-2.81-1.2-7.56-1.67-12.95l58-6.07a4.26,4.26,0,0,0,3.78-4.72l-3.38-29.43,34.08-3.28.46,19.33v.09l.53,22.36a8,8,0,0,0-2.34.06Zm15.33,12.53.56,40.46a4.26,4.26,0,0,0,4.32,4.19,3.49,3.49,0,0,0,.65-.06,4.26,4.26,0,0,0,3.55-4.25l-.59-41.92,19.16-3.58,1.09,22.32a4.26,4.26,0,0,0,4.46,4,4.43,4.43,0,0,0,.51-.06,4.24,4.24,0,0,0,3.53-4.4l-1.14-23.48L280,399.5l5.12,51.39a4.25,4.25,0,0,0,4.65,3.81l.29,0A4.27,4.27,0,0,0,293.6,450l-5.19-52.11,9.79-1.83L300,470.63c-25.94,3.12-57.69,7.08-84.79,10.88l-3.52-38.79a.49.49,0,0,0,0-.12l-3.54-29.68ZM296,211.44l8.29-1.25,5.57,56.66a4,4,0,0,0,.26,1l-6.48-.22a3.6,3.6,0,0,0,0-.36Zm19.85,66.12.21,9.06a3.31,3.31,0,0,0,6.62-.16l-.2-8.67,15.33.54,1.53,30.32-34.87-5.74-.61-25.77Zm34.83,84.37c7.84.5,23.51,1.37,32.56,1.86,1.52,10.84,3,21.59,4.51,31.89l-42.55,3.13-.83-35.43Zm6.48-8.13,5.94-75.2c2.54,0,5.24,0,8.07,0,1.8,12.24,3.65,25.24,5.4,37.7,1.34,9.5,2.71,19.25,4.08,29l1.38,9.88C375,354.81,364.83,354.25,357.2,353.8Zm23.91-110.34c-.6-3.63-1.17-7-1.71-10-.1-.56-.2-1.14-.31-1.71l37.36-7.15q1,6.54,1.84,12.32C405.25,239.19,390,241.89,381.11,243.46Zm-3.51-20c-.9-5.09-1.85-10.48-2.84-16.11-1.36-7.72-2.79-15.89-4.29-24.28L391,176.61a3.31,3.31,0,1,0-2-6.31l-19.77,6.17c-.86-4.8-1.74-9.65-2.63-14.5l39.66-7c2,12.37,4,26.71,6.42,43.85q1.29,9.27,2.47,17.45Zm-12.36-69.21c-1.28-6.91-2.58-13.77-3.88-20.48l40-6c1.27,6,2.47,12.38,3.68,19.49Zm-5.34-27.91c-1.8-9-3.6-17.68-5.38-25.63l33.83-15.43a210.23,210.23,0,0,1,11.38,35.08ZM353,94.09C351.28,86.65,349.58,80,348,74.4c13.74-5,24.73-8.81,31.11-11,2.32,5.51,4.58,10.8,6.69,15.73ZM374.81.27a2.6,2.6,0,0,0,.4-.1l4.56-1.44C375.89,2,371.23,6,365.82,10.05c-1-2.64-1.86-5.2-2.7-7.65Zm-13,20.78c3.48,9.14,7.4,18.85,11.35,28.38C366.59,51.65,356,55.29,343,60.05c-1.53-3.85-3.4-8.35-5.56-13.55-1.3-3.14-2.69-6.49-4.14-10A149.87,149.87,0,0,0,361.84,21.05ZM324.07-32.09a3.21,3.21,0,0,0,1.48.11l20.1-3.08c.6,3,1.33,6,2.08,9.07.89,3.68,1.81,7.49,2.61,11.46A134.81,134.81,0,0,0,354-1.14l-20.47,14a3.31,3.31,0,0,0,3.74,5.46L356.14,5.4c1,3,2.12,6.07,3.3,9.27a144.74,144.74,0,0,1-28.7,15.68C324,13.63,316-6.8,308.64-29.93ZM306,8.62c6.36,17.05,12.49,31.81,17.42,43.68,2.07,5,3.87,9.34,5.34,13-20.3,7.65-44.39,17.27-68.17,28.05L237.86,58.28Q242.91,54.66,248,51l14.58,21.54a3.31,3.31,0,0,0,5.36.18l21.72-28L302.3,37l2.25,3.55a3.31,3.31,0,0,0,5.62-3.5l-3.87-6.35a3.59,3.59,0,0,0-.66-.78l-9.1-14.32ZM253.32,47.16c14.11-10.2,27.49-20,37.87-27.62l7.55,11.88-13.08,7.94a3.14,3.14,0,0,0-.9.8L265.45,65.08ZM215.81,5.34a3.35,3.35,0,0,0,1.34.28l46-.15a3.31,3.31,0,0,0,.11-6.62c-.12,0-7.78-.28-18.93-.38l-4-23,47.43-.22,3.25,17A3.29,3.29,0,0,0,295-5a3.3,3.3,0,0,0,2.63-3.87l-2.75-14.45c2.67,8.25,5.39,16.16,8.1,23.67-16,11.84-82.1,60.59-117,83.83l-9.24-32.62,24.1-.57a3.31,3.31,0,0,0-.16-6.62l-25.81.61-9.58-33.82C174.1,8,191.49,6,215.81,5.34ZM166.43,46.55l-16.32,5.92L139.53,34.53l8.47-3.3a3.31,3.31,0,0,0,2.11-3.16l-.23-9.77,7.49-3.72ZM131.72.38l19.85,9.69-6.52,3.24a3.31,3.31,0,0,0-1.84,3l.23,9.56-7.32,2.84-3.84-6.52-5.56-16Zm-14.6-7.12,8.45,4.12-5.11,5.94a3.29,3.29,0,0,0-.62,3.24l6.29,18.15a3.24,3.24,0,0,0,.27.6l3.47,5.88L119.29,35.3c-3.13-15.29-5.8-28.08-6.55-31.69ZM30.78-3.14c.21-4.35.43-9.84.65-16.13,28.1.09,54.6.15,60.34.16l19.39,9.46L107.09,0,30.69,0C30.71-1,30.73-2.1,30.78-3.14ZM-17.67-19.46c9.93.05,21.77.1,34,.14-.21,6-.42,11.26-.62,15.44-.13,2.67-.14,5.38-.05,8.1l-37-2.81ZM-58.11,27.23c.31-2.6.61-5,.89-7.35,1.94-15.75,3-25.93.91-35.78,3.43-1.91,8.17-3.91,12.85-3.78,2.21.06,9.26.13,19.08.18L-34,34.41a3.3,3.3,0,0,0,2.6,3.82,3.31,3.31,0,0,0,3.89-2.52l6.21-27.65L16,10.89c1.74,19.74,8.22,40.22,15,58l-87,10.9C-58.57,69.19-61,51.44-58.11,27.23Zm4.89,140,3.84-1.16a4.26,4.26,0,0,0,2.87-5.26l-17-58.58c7.86,13.59,34.31,59.35,62.64,109l-21.1,11.39Zm35.45,62.85L3.37,218.67c5.52,9.69,11.08,19.48,16.55,29.16C12.52,251.52,5.65,255-1.4,259.09Zm-1.67,58.53Q-11,283-3.52,278.12C7,271.27,16.55,266.42,27.37,261c8.55,15.15,16.75,29.79,24.11,43.08L23.94,321l-5.1-11.15a4.25,4.25,0,1,0-7.74,3.53l7.09,15.53a4.26,4.26,0,0,0,2.63,2.3,4.17,4.17,0,0,0,1.95.13,4.26,4.26,0,0,0,1.52-.57l31.31-19.2c3.65,6.63,7.06,12.86,10.14,18.56-9.46,4.51-29.81,14.43-43.45,22.75-6.42,3.91-23.11,6.88-33.66,8.34-3.28-18.31-6.58-34.52-8.75-42.39a76.55,76.55,0,0,0-10.94-22.54Q-25.34,292.53-19.44,288.61Zm4.72,171a140.19,140.19,0,0,1-31.85,10c-2.08.35-3.91.57-5.52.7-1.28,0-2.54.09-3.79.15a15.72,15.72,0,0,1-6.46-1.06A22.39,22.39,0,0,1-69.77,464l55.2-11.21A53.81,53.81,0,0,1-14.72,459.63Zm-72.95-228c-3.55-3.26-7.62-7.14-12.24-11.86l23.42-9.91,6,8.47Zm26.79,32.8-.91-.78a10,10,0,0,0-4.63-2.25l-.09-3.92c-.17-7.16-4.91-11.35-13.51-19l-1.23-1.09,15.72-12.15,36.61,51.47c-3.66,2.43-7.51,5-11.48,7.58A206.54,206.54,0,0,0-60.88,264.43Zm-27,221.83a206.26,206.26,0,0,0,.34,28.83l-1.13-.11-8.88-46.83,11.8-1.08a31.6,31.6,0,0,0,5.81,8.26C-84.41,477.61-87.78,481-87.86,486.26ZM-73.54,456c-1-5.57-2.34-11.84-3.9-18.5l47.82-8.48a4.26,4.26,0,0,0,3.45-4.94,4.28,4.28,0,0,0-4.94-3.45l-48.35,8.58c-7.86-31.34-19.63-68.06-26-81.29a33.78,33.78,0,0,0-4.7-7.33c18.08-6.39,40.59-19.53,66.37-36.1a61.73,61.73,0,0,1,9.07,18.31c1.28,4.63,3.15,13.13,5.27,24l-14.78,4.52-2.16-11.09a4.25,4.25,0,0,0-5-3.36,4.25,4.25,0,0,0-3.36,5l3.06,15.73a4.27,4.27,0,0,0,2,2.83,4.22,4.22,0,0,0,2.9.55,3.53,3.53,0,0,0,.54-.13l18.41-5.63c2.27,12.16,4.71,26.39,7,41.09,3.39,22.23,5.11,37.64,5.86,47.9L-73.53,456.1S-73.54,456.06-73.54,456Zm56,96c-2.29,3.12-4.66,6.34-6.73,9.51-1.06,1.63-2,3.23-3,4.82q-2.64-3.06-5.25-6.22a34.58,34.58,0,0,0-6-5.76c8.7-4.08,18.2-7.58,23.28-7.29.38,0,.8,0,1.26,0C-15.14,548.69-16.35,550.33-17.59,552Zm11.73-20.17a84.36,84.36,0,0,1-8.58.13c-12.39-.7-31.75,9-39.88,13.41A55.33,55.33,0,0,1-67.1,535c-4.82-5.14-6.69-27.67-5.74-46.34,2.73-1.35,9.09-2.5,17.35-3,1.36,0,2.79-.06,4.27-.17a158.59,158.59,0,0,1,24.59,1.27c15.59,2,21.83,5.5,23.14,6.84C-2.09,503.69-.4,516.84-5.86,531.84Zm3.16-59.39a14.73,14.73,0,0,0-1.27,4,68.52,68.52,0,0,0-6.61-2c6.87-3,7.84-4.46,8.58-5.6,2.08-3.16,6-9-3.5-72-1.33-8.88-2.84-18.17-4.4-27.2,10.1-1.39,28.43-4.48,36.62-9.47,3.77-2.3,8.12-4.75,12.62-7.18l3.77,7.3c-5,2.89-10.26,6.13-14.89,9.31C16,378,5.93,380.17,5.84,380.19A4.26,4.26,0,0,0,2.48,385l10.94,74.48C5.12,463-.21,467.3-2.7,472.45Zm73.23,41.3c-14.34,8.72-40.11,14-60,16.55a84.7,84.7,0,0,0,2-31c6.53,2.54,14.33,3.05,23.34,1.53a97.86,97.86,0,0,0,20.08-5.92c33.17-13.36,68.86-23.16,83-26.84.1.3.18.59.25.85.89,3.36,3.48,11.85,7,23.15C112.82,497.38,89.08,502.48,70.53,513.75ZM156.28,599l-17.66-57,13.71-8a4.26,4.26,0,1,0-4.28-7.36l-12,7-7.22-23.32c6.79-1.28,14.09-2.51,22-3.76,8.31,26.18,19.2,59.87,26.68,83C170.15,592.89,162.37,596.34,156.28,599Zm37.47-16.95-2.45,1.16c-7.24-22.37-17.42-53.91-25.4-79l4.94-.76,12.6-1.93,19.11,76.74Q198.08,580,193.75,582.09Zm16.87-6.62-18.74-75.23c11.4-1.79,24.89-3.71,39.13-5.63l4.59,11.94-16.16,2.27a4.26,4.26,0,1,0,1.19,8.43l21.33-3,.24,0L255,512.43l6.11,31.9-37.46,6.15h0a4.25,4.25,0,0,0,1.4,8.39l18.16-3,2.36,13.35A145.79,145.79,0,0,0,210.62,575.47Zm192.54-90.81c1.38,6.33,2.78,12.57,4.18,18.63l-35.45,5.11-25.52.6a4.26,4.26,0,0,0,.2,8.51l25.78-.61a4.38,4.38,0,0,0,.51,0l36.42-5.25c5,21.16,9.69,39.2,12.33,49.14-23.37,3.38-46.35,5.55-58.28,5.59-.21,0-.42,0-.62,0-.59,0-59.66,5-93.36,2.94-5.22-.32-10.29-.44-15.24-.38l-2.55-14.41,15.21-2.5h0a4.25,4.25,0,0,0,3.48-5l-7.69-40.18a4.26,4.26,0,0,0-4.77-3.42l-13.55,1.91-4.57-11.89c20.53-2.71,42-5.38,60.64-7.62l.16,6.48-24.12.57a4.25,4.25,0,0,0-4.13,4.67l1,10.06a4.25,4.25,0,0,0,4.65,3.82l.3,0a4.24,4.24,0,0,0,3.52-4.61l-.53-5.5,23.78-.56a4.27,4.27,0,0,0,4.16-4.36l-.28-11.55c21.67-2.58,38.15-4.45,42.35-4.93A336.43,336.43,0,0,0,403.16,484.66ZM400,469.45a324.27,324.27,0,0,1-47.35-4.67,7.7,7.7,0,0,0-2.09,0c-.26,0-6.69.75-17.06,1.95l-7.15-104.37,11.44-.27,1,40.4a3.3,3.3,0,0,0,3.55,3.23l46.48-3.42c1.51,10.44,3,20.31,4.32,29.2C394.91,443.54,397.31,456.49,400,469.45Zm-.25-133.72-2.9.06-4.24-14.72-.6-4.24,8-.54Zm.4-27-9.2.62c-1.47-10.43-3-20.81-4.39-30.65,4.49,0,9.19.09,14.05.16Zm-15-39.49c-1-6.85-2-13.32-2.95-19.21,8.81-1.57,24.09-4.27,37.12-6.49,1.71,11.1,3.14,19.81,4.24,26.31C409.83,269.47,396.75,269.29,385.12,269.21Zm29.42,13.49a3.78,3.78,0,0,0-3.14,3.48c0,.18-.28,4.55.45,19.8.19,4.13-.76,4.93-.77,4.93-.46.25-1.91-.09-3.42-.81l.47-31.15c5.54.09,11.25.22,17.05.37.1.55.19,1.06.28,1.52Zm9.35-59.48,52.12-10c1.4,5.47,3.71,14.57,6.28,25.18-2.08-.21-3.74-.33-4.87-.35-3.8-.06-8.22-1-12.89-2-8-1.75-17-3.72-26.92-2.25-2.9.43-7.05,1.1-11.86,1.91Q424.85,229.85,423.89,223.22Zm25.23,47.46-.06-2.34,9.46-.23.07,3Q453.85,270.87,449.12,270.68ZM484,272.51l-.16.13c-6.74-.5-13.62-.92-20.55-1.29l-.13-5.71a2.42,2.42,0,0,0-.73-1.66,2.36,2.36,0,0,0-1.69-.65l-14.18.33a2.37,2.37,0,0,0-2.31,2.42l.1,4.41c-4.41-.17-8.8-.32-13.14-.45-1.13-6.61-2.64-15.81-4.49-27.8,4.81-.8,8.95-1.47,11.83-1.9,8.68-1.3,16.74.46,24.54,2.17,5,1.09,9.74,2.12,14.2,2.19,1.29,0,3.59.23,6.55.55C486.61,259.07,484.73,269.46,484,272.51Zm50.26,6c-12.64-2.28-27.63-4-43.62-5.32a73.53,73.53,0,0,0,.09-27.1c4.56.57,9.81,1.26,15.19,2,12.13,1.6,22.1,2.88,30.18,3.8C536.14,266,535.08,274.29,534.29,278.49Zm1.76-33.32c-9.91-1.14-20.83-2.58-29.23-3.69-6.64-.88-12.62-1.67-17.52-2.26-2.75-11.38-5.25-21.28-6.77-27.22l50.54-9.66C535,220,535.81,234.08,536.05,245.17Zm-3.76-51.33-53,10.14a3.28,3.28,0,0,0-3.89.75l-52.7,10.08q-1.16-8-2.41-17.07c-1.23-8.83-2.37-16.9-3.46-24.38,37.84-6.35,95.81-15.49,112.4-16.74C530.38,168.4,531.43,180.83,532.29,193.84Zm-4-45.59c-22.7,1.74-93.08,13.39-112.77,16.69q-.89-5.92-1.76-11.33l26.57-4.72c.07,0,.1-.24.17-.26l44-10.24c1.68-.31,26.47-4.7,42-4.91Q527.47,140.68,528.31,148.25Zm-2.68-22.31c-16.72.37-41.33,4.82-42.52,5l-.18.05-44,10.27-26.41,4.63c-1.19-7-2.38-13.39-3.63-19.31l39.06-5.86.23,0c.56-.12,50.32-10.81,74.85-13.32Q524.36,116.29,525.63,125.94Zm-3.77-26c-24.67,2.57-71.73,12.64-75.16,13.38l-39.46,5.92A217.28,217.28,0,0,0,395.19,82l-1.57-3.66c-2.22-5.21-4.74-11.08-7.37-17.31,14.7-5.23,43.49-15.56,76.57-27.44l8.49,13.31a3.29,3.29,0,0,0,3.34,1.49,3.44,3.44,0,0,0,1.23-.47,3.31,3.31,0,0,0,1-4.57l-7.68-12.06,35.41-12.73c1.12,3.87,3.37,12,6.16,24L505.08,45l-10.19,4.46a3.31,3.31,0,0,0-1.7,4.38l5.54,12.43,1.46,4.95a3.31,3.31,0,0,0,3.73,2.33,2.34,2.34,0,0,0,.38-.09,3.3,3.3,0,0,0,2.24-4.11L505,64.17a3.39,3.39,0,0,0-.15-.41l-4.27-9.59,7.11-3.11,4.56-2C515.23,62.4,518.62,79.48,521.86,99.91Z"/><polygon class="cls-11" points="187.39 394.8 193.54 394.84 193.62 382.53 201.83 382.59 201.87 376.44 193.67 376.38 193.71 370.23 187.56 370.19 187.52 376.34 179.31 376.28 179.27 382.44 187.47 382.49 187.39 394.8"/><path class="cls-12" d="M152.14,260.94a12.34,12.34,0,0,0-23.89.57l-3.84.09.14,6.21,3.84-.1a12.35,12.35,0,0,0,23.9-.56l3.84-.09-.15-6.21Zm-12-3.63a7,7,0,0,1,6.36,3.77l-12.54.3A7,7,0,0,1,140.1,257.31Zm.33,14a7,7,0,0,1-6.36-3.77l12.54-.3A7,7,0,0,1,140.43,271.35Z"/><path class="cls-12" d="M407.85,260.64a12.34,12.34,0,0,0-23.89.57l-3.84.09.15,6.2,3.84-.09a12.34,12.34,0,0,0,23.89-.56l3.84-.1-.14-6.2Zm-12-3.63a7,7,0,0,1,6.36,3.76l-12.54.3A7,7,0,0,1,395.82,257Zm.33,14a7,7,0,0,1-6.36-3.77l12.53-.3A7,7,0,0,1,396.15,271.05Z"/><path class="cls-12" d="M517.7,24.26a12.34,12.34,0,0,0-23.89.57l-3.84.09.15,6.2L494,31a12.34,12.34,0,0,0,23.89-.56l3.84-.09-.14-6.21Zm-12-3.63A7,7,0,0,1,512,24.4l-12.54.29A7,7,0,0,1,505.67,20.63Zm.33,14a7,7,0,0,1-6.36-3.77l12.53-.3A7,7,0,0,1,506,34.67Z"/><path class="cls-13" d="M-74.68,364.54s31.87-12.36,69.52-37.09S99.26,266,119.05,254.08c48.64-29.26,87.74-69.66,126.76-93.52,49.5-30.28,136.17-61.9,209.48-88.12,71-25.4,129.53-45.89,129.53-45.89"/><path class="cls-14" d="M-47.1-30V530H521.37V-30ZM274.7,397.53A96.5,96.5,0,1,1,371.19,301,96.49,96.49,0,0,1,274.7,397.53Z"/><line class="cls-13" x1="3.27" y1="645.65" x2="3.27" y2="476"/></g><circle class="cls-9" cx="304.3" cy="363.15" r="5.74"/><path class="cls-15" d="M277.66,245.13h-45.5a22.81,22.81,0,0,0-22.75,22.75v45.5a22.82,22.82,0,0,0,22.75,22.75h45.5l22.75,19V267.88A22.81,22.81,0,0,0,277.66,245.13Z"/><path class="cls-11" d="M259.08,291l-2.32,1.35v24.15l20.9-12.07V280.31Zm0,0"/><path class="cls-11" d="M262.87,269.38l-8-4.65-21.49,12.4,8,4.65Zm0,0"/><path class="cls-11" d="M276.3,277.13,267,271.85l-21.48,12.4,1.23.64,8,4.64,8-4.61Zm0,0"/><path class="cls-11" d="M243.94,293.13l-3.85-2V285l-7.93-4.57v24l20.75,12v-24l-9-5.17Zm0,0"/></svg>