<svg id="Layer_1" data-name="Layer 1" xmlns="http://www.w3.org/2000/svg" viewBox="0 0 50 50"><defs><style>.cls-1{fill:#717588;}.cls-2{fill:#5c5e6f;}.cls-3{fill:#969cb3;}.cls-4{fill:#464755;}.cls-5{fill:#d21c59;}</style></defs><title>mokhtasat</title><path class="cls-1" d="M25,43.1A18.1,18.1,0,1,1,43.1,25,18.12,18.12,0,0,1,25,43.1ZM25,8.62A16.38,16.38,0,1,0,41.38,25,16.4,16.4,0,0,0,25,8.62Z"/><path class="cls-2" d="M25,32.76A7.76,7.76,0,1,1,32.76,25,7.77,7.77,0,0,1,25,32.76ZM25,19a6,6,0,1,0,6,6A6,6,0,0,0,25,19Z"/><path class="cls-3" d="M25,32.76A7.76,7.76,0,1,1,32.76,25,7.77,7.77,0,0,1,25,32.76ZM25,19a6,6,0,1,0,6,6A6,6,0,0,0,25,19Z"/><path class="cls-2" d="M25,46.55A21.55,21.55,0,1,1,46.55,25,21.58,21.58,0,0,1,25,46.55ZM25,5.17A19.83,19.83,0,1,0,44.83,25,19.85,19.85,0,0,0,25,5.17Z"/><path class="cls-4" d="M25,11.21a.86.86,0,0,1-.86-.86V.86a.86.86,0,0,1,1.72,0v9.48A.86.86,0,0,1,25,11.21Z"/><path class="cls-4" d="M25,50a.86.86,0,0,1-.86-.86V39.66a.86.86,0,0,1,1.72,0v9.48A.86.86,0,0,1,25,50Z"/><path class="cls-4" d="M38.79,25a.86.86,0,0,1,.86-.86h9.48a.86.86,0,1,1,0,1.72H39.66A.86.86,0,0,1,38.79,25Z"/><path class="cls-5" d="M14.66,25a.86.86,0,0,1,.86-.86h19a.86.86,0,0,1,0,1.72h-19A.86.86,0,0,1,14.66,25Z"/><path class="cls-4" d="M0,25a.86.86,0,0,1,.86-.86h9.48a.86.86,0,0,1,0,1.72H.86A.86.86,0,0,1,0,25Z"/><path class="cls-5" d="M25,14.66a.86.86,0,0,1,.86.86v19a.86.86,0,1,1-1.72,0v-19A.86.86,0,0,1,25,14.66Z"/></svg>