<svg id="Layer_1" data-name="Layer 1" xmlns="http://www.w3.org/2000/svg" viewBox="0 0 380 380"><defs><style>.cls-1{fill:#b8babc;}.cls-1,.cls-15,.cls-18{opacity:0.4;}.cls-2{opacity:0.3;}.cls-3{fill:#daaa78;}.cls-4,.cls-7{fill:#54422f;}.cls-4,.cls-8,.cls-9{opacity:0.6;}.cls-5{fill:#ffd8a4;}.cls-6{fill:#f8fafd;}.cls-10,.cls-11,.cls-8{fill:none;stroke:#54422f;}.cls-10,.cls-11,.cls-18,.cls-8{stroke-miterlimit:10;}.cls-8{stroke-width:0.63px;}.cls-10{stroke-width:1.41px;}.cls-11{stroke-width:1.26px;}.cls-12{opacity:0.3;}.cls-13{fill:#ed1c24;}.cls-14,.cls-18{fill:#fff;}.cls-16{fill:#49b96e;}.cls-17{opacity:0.88;}.cls-18{stroke:#49b96e;}</style></defs><title>tasvire dakhele tarikhche</title><ellipse class="cls-1" cx="179.12" cy="287.8" rx="99.58" ry="1.67"/><g class="cls-2"><rect class="cls-3" x="80.17" y="87.95" width="198.53" height="198.53"/><rect class="cls-4" x="80.17" y="264.96" width="118.26" height="6.11"/><rect class="cls-5" x="160.3" y="87.95" width="38.13" height="198.53"/><rect class="cls-6" x="218.19" y="101.7" width="42.72" height="49.31"/><path class="cls-7" d="M222,147.15V105.56h35v41.59Zm1.1-40.49V146H256V106.67Z"/><rect class="cls-7" x="226.34" y="110.55" width="25.89" height="1.93"/><rect class="cls-7" x="226.34" y="114.78" width="25.89" height="1.93"/><rect class="cls-7" x="226.34" y="119" width="25.89" height="1.93"/><rect class="cls-7" x="226.11" y="127.26" width="26.35" height="15.9"/><rect class="cls-8" x="88.98" y="230.95" width="25.98" height="25.98"/><g class="cls-9"><line class="cls-10" x1="97.33" y1="237.51" x2="97.33" y2="253.56"/><polygon class="cls-7" points="95.58 238.02 97.33 234.98 99.09 238.02 95.58 238.02"/><line class="cls-10" x1="106.6" y1="237.51" x2="106.6" y2="253.56"/><polygon class="cls-7" points="104.85 238.02 106.6 234.98 108.36 238.02 104.85 238.02"/></g><rect class="cls-8" x="88.83" y="165.24" width="25.98" height="25.98"/><g class="cls-9"><path class="cls-7" d="M102.84,184.53v-6.61a8.76,8.76,0,0,0,7.75-8.7h-3.16l.94,1.46-1.64.94-.55,1.46-.79-1.57.79-.94-1.57-1.36H93.06a8.76,8.76,0,0,0,7.9,8.72v7.13L96.58,188h10.85l-4.59-2.93v-.52Z"/></g><rect class="cls-8" x="88.83" y="198.1" width="25.97" height="25.98"/><g class="cls-9"><path class="cls-11" d="M97.26,207.32s3-5.2,4.79-5.37,4.63,5.37,4.63,5.37"/><polygon class="cls-7" points="105.27 207.6 107.6 209.09 107.72 206.32 105.27 207.6"/><path class="cls-11" d="M108.81,210.8s3,5.22,2.28,6.8-7,1.22-7,1.22"/><polygon class="cls-7" points="104.54 217.45 102.07 218.7 104.38 220.21 104.54 217.45"/><path class="cls-11" d="M99.64,219.11s-6.09-.22-7.06-1.66,2.66-6.55,2.66-6.55"/><polygon class="cls-7" points="96.13 212.03 96.39 209.28 93.88 210.43 96.13 212.03"/></g></g><g class="cls-12"><path class="cls-13" d="M112.7,155.21a23.87,23.87,0,0,1,0-47.74,4.13,4.13,0,0,1,0,8.26,15.61,15.61,0,1,0,15.61,15.61,4.13,4.13,0,0,1,8.26,0,23.87,23.87,0,0,1-23.87,23.87Z"/><path class="cls-13" d="M104.08,122.79s5.64-5.31,9-.33l4.31,9s11.95-22.9,34.18-36.5l1,1.66s-24.89,19.91-32.19,41.81L115,142S111.05,124.45,104.08,122.79Z"/></g><path class="cls-14" d="M320.94,242.15A48.12,48.12,0,1,1,272.81,194a48.12,48.12,0,0,1,48.12,48.12Zm0,0"/><g class="cls-15"><path class="cls-16" d="M309.23,242.15a36.42,36.42,0,1,1-36.42-36.42,36.42,36.42,0,0,1,36.42,36.42Zm0,0"/></g><g class="cls-17"><path class="cls-14" d="M284.26,228.29v-1.57a1.9,1.9,0,0,0-1.64-1.93,1.8,1.8,0,0,0-2,1.79v1.7a0,0,0,0,1,0,0H277a0,0,0,0,1,0,0v-1.58a1.89,1.89,0,0,0-1.64-1.92,1.8,1.8,0,0,0-2,1.8v1.7a0,0,0,0,1,0,0h-3.6a0,0,0,0,1,0,0v-1.57a1.9,1.9,0,0,0-1.64-1.93,1.8,1.8,0,0,0-2,1.79v1.7a0,0,0,0,1,0,0h-3.6a0,0,0,0,1,0,0v-1.57a1.9,1.9,0,0,0-1.64-1.93,1.8,1.8,0,0,0-2,1.79v1.7a0,0,0,0,1,0,0h-6.53a0,0,0,0,0,0,0V262.7a0,0,0,0,0,0,0h38.43a0,0,0,0,0,0,0V228.35a0,0,0,0,0,0,0h-6.43A0,0,0,0,1,284.26,228.29Zm-28.37,3.63h2.93a0,0,0,0,1,0,0v.48a1.89,1.89,0,0,0,1.64,1.92,1.8,1.8,0,0,0,2-1.8v-.63h3.63a0,0,0,0,1,0,0v.48a1.89,1.89,0,0,0,1.64,1.92,1.8,1.8,0,0,0,2-1.8v-.63h3.66v.63a1.81,1.81,0,0,0,2,1.8,1.88,1.88,0,0,0,1.65-1.92v-.48a0,0,0,0,1,0,0h3.6a0,0,0,0,1,0,0v.47a1.89,1.89,0,0,0,1.64,1.93,1.8,1.8,0,0,0,2-1.79v-.63h2.85a0,0,0,0,1,0,0V237a0,0,0,0,1,0,0H255.89a0,0,0,0,1,0,0v-5.09A0,0,0,0,1,255.89,231.92Zm31.22,27.2H255.89a0,0,0,0,1,0,0V239.51a0,0,0,0,1,0,0h31.22a0,0,0,0,1,0,0v19.58A0,0,0,0,1,287.11,259.12Z"/><rect class="cls-14" x="258.85" y="243.06" width="4.15" height="4.15" rx="0.03" ry="0.03"/><rect class="cls-14" x="266.17" y="243.06" width="4.16" height="4.15" rx="0.03" ry="0.03"/><rect class="cls-14" x="273.48" y="243.06" width="4.15" height="4.15" rx="0.03" ry="0.03"/><rect class="cls-14" x="280.8" y="243.06" width="4.16" height="4.15" rx="0.03" ry="0.03"/><rect class="cls-14" x="258.85" y="251.37" width="4.15" height="4.15" rx="0.03" ry="0.03"/><rect class="cls-14" x="266.17" y="251.37" width="4.16" height="4.15" rx="0.03" ry="0.03"/><rect class="cls-14" x="273.48" y="251.37" width="4.15" height="4.15" rx="0.03" ry="0.03"/><rect class="cls-14" x="280.8" y="251.37" width="4.16" height="4.15" rx="0.03" ry="0.03"/></g><path class="cls-18" d="M311.78,223a1.06,1.06,0,0,0,.72-.29,1,1,0,0,0,.27-.63V203a.94.94,0,0,0-.6-.84h0a.93.93,0,0,0-1,.2L306,207.46l-.92-.84a48.11,48.11,0,1,0,1.56,69.57,6.25,6.25,0,0,0-4.42-10.68h0a6.16,6.16,0,0,0-4.39,1.83,35.63,35.63,0,1,1-1.71-52l1,.92-5.11,5.11a.93.93,0,0,0,.65,1.59Z"/></svg>