<svg id="Layer_1" data-name="Layer 1" xmlns="http://www.w3.org/2000/svg" viewBox="0 0 70 70"><defs><style>.cls-1{fill:#282f6c;}</style></defs><title>pakat baste</title><path class="cls-1" d="M34.73,6.17C26.22,6.43,5.26,18.65,2,20.6L.16,28l9.12,6.53L7.53,28.41l43-12.31,6.1,21.3L69.8,28l-2.27-7.41C64.36,18.74,43.28,6.43,34.73,6.17Zm0,0"/><path class="cls-1" d="M70,63.83V30.9l-.44.31-12.23,8.7-7,5,1,1,1.23,1.21,1.22,1.2,1.48,1.45L69.61,63.83Zm0,0"/><path class="cls-1" d="M0,31.16V63.83H.34L13.79,50.28,15.11,49l1.24-1.25,1.24-1.24,1.72-1.73-8.94-6.4-8.52-6.1L0,30.9Zm0,0"/><path class="cls-1" d="M52.58,50.49l-2.19-2.16-1.23-1.2-1.22-1.2-.32-.31-1.24-1.22-.22-.22c-.36-.35-.74-.69-1.13-1a16.3,16.3,0,0,0-20.59,0c-.44.36-.86.74-1.27,1.15l-.08.08-1.21,1.23-.78.79-1.24,1.24-1.24,1.25L14.56,53,3.84,63.77H66.06Zm0,0"/></svg>