<svg id="Layer_1" data-name="Layer 1" xmlns="http://www.w3.org/2000/svg" viewBox="0 0 19 19"><defs><style>.cls-1{fill:#fff;}</style></defs><title>tarikhche</title><path class="cls-1" d="M15.8,1.88V1A.89.89,0,0,0,14,1v.85H12.21V1a.89.89,0,1,0-1.78,0v.85H8.62V1A.89.89,0,0,0,6.84,1v.85H5V1A.89.89,0,0,0,3.25,1v.85H0v17H19v-17Zm-14,1.78H3.25V4A.89.89,0,0,0,5,4V3.66H6.84V4A.89.89,0,0,0,8.62,4V3.66h1.81V4a.89.89,0,0,0,1.78,0V3.66H14V4A.89.89,0,0,0,15.8,4V3.66h1.42V6.2H1.78ZM17.22,17.08H1.78V7.39H17.22Z"/><rect class="cls-1" x="3.25" y="9.16" width="2.05" height="2.05"/><rect class="cls-1" x="6.86" y="9.16" width="2.05" height="2.05"/><rect class="cls-1" x="10.48" y="9.16" width="2.05" height="2.05"/><rect class="cls-1" x="14.09" y="9.16" width="2.05" height="2.05"/><rect class="cls-1" x="3.25" y="13.26" width="2.05" height="2.05"/><rect class="cls-1" x="6.86" y="13.26" width="2.05" height="2.05"/><rect class="cls-1" x="10.48" y="13.26" width="2.05" height="2.05"/><rect class="cls-1" x="14.09" y="13.26" width="2.05" height="2.05"/></svg>