<svg id="Layer_1" data-name="Layer 1" xmlns="http://www.w3.org/2000/svg" viewBox="0 0 50 50"><defs><style>.cls-1{fill:#1fa5d4;}.cls-2{fill:#fff;fill-rule:evenodd;}</style></defs><title>twiter</title><circle class="cls-1" cx="25" cy="25" r="25"/><path class="cls-2" d="M19.49,31.44a5.77,5.77,0,0,1-5.35-4,5.72,5.72,0,0,0,2.47-.07l.08,0a5.75,5.75,0,0,1-3.74-2.64,5.59,5.59,0,0,1-.84-3.06,5.67,5.67,0,0,0,2.56.7,5.78,5.78,0,0,1-2.37-3.49,5.7,5.7,0,0,1,.62-4.17,16.47,16.47,0,0,0,11.87,6c0-.23-.07-.43-.09-.63a5.75,5.75,0,0,1,9.78-4.76.29.29,0,0,0,.31.09,11.6,11.6,0,0,0,3.35-1.29l.08,0h0a5.89,5.89,0,0,1-2.46,3.13,11,11,0,0,0,3.2-.86l0,0c-.22.29-.43.58-.66.86a11.27,11.27,0,0,1-2.09,2,.2.2,0,0,0-.09.18A15.84,15.84,0,0,1,36,21.94a16.93,16.93,0,0,1-1.48,5.12,16.57,16.57,0,0,1-3.11,4.54A15.38,15.38,0,0,1,23.55,36a17.23,17.23,0,0,1-3.21.38,16.25,16.25,0,0,1-9.21-2.47L11,33.83A11.63,11.63,0,0,0,16.75,33,11.41,11.41,0,0,0,19.49,31.44Z"/></svg>