<svg id="Layer_1" data-name="Layer 1" xmlns="http://www.w3.org/2000/svg" viewBox="0 0 70 70"><defs><style>.cls-1{fill:#fff;}</style></defs><title>virayesh</title><path class="cls-1" d="M66.94,2.43l-.08-.08a8.7,8.7,0,0,0-12.3.56L23.46,37A3,3,0,0,0,22.83,38L19.17,49a4.16,4.16,0,0,0,5.62,5.14L35.38,49.5a3,3,0,0,0,1-.73L67.5,14.72a8.71,8.71,0,0,0-.56-12.3ZM26.18,47l2.15-6.43.18-.2,4.07,3.71-.18.2Zm36.89-36.3L36.62,39.62l-4.07-3.71L59,7a2.7,2.7,0,0,1,3.81-.17l.08.08a2.7,2.7,0,0,1,.17,3.81Zm0,0"/><path class="cls-1" d="M60.91,27.78a3,3,0,0,0-3,3v25.5a7.65,7.65,0,0,1-7.64,7.64H13.87a7.65,7.65,0,0,1-7.64-7.64V20.18a7.65,7.65,0,0,1,7.64-7.64H40.22a3,3,0,1,0,0-6H13.87A13.66,13.66,0,0,0,.23,20.18v36.1A13.66,13.66,0,0,0,13.87,69.93h36.4A13.66,13.66,0,0,0,63.91,56.28V30.78a3,3,0,0,0-3-3Zm0,0"/></svg>