<svg id="Layer_1" data-name="Layer 1" xmlns="http://www.w3.org/2000/svg" xmlns:xlink="http://www.w3.org/1999/xlink" viewBox="0 0 380 380"><defs><style>.cls-1{opacity:0.3;}.cls-2{fill:#c2e6e4;}.cls-3{fill:url(#linear-gradient);}.cls-4{fill:url(#linear-gradient-2);}.cls-5,.cls-6,.cls-7,.cls-8{opacity:0.8;}.cls-5{fill:url(#linear-gradient-3);}.cls-6{fill:url(#linear-gradient-4);}.cls-7{fill:url(#linear-gradient-5);}.cls-8{fill:url(#linear-gradient-6);}.cls-9{fill:#d4a663;}.cls-10{fill:#bb8f52;}.cls-11{fill:#a57c4a;}.cls-12{fill:#997144;}.cls-13{fill:#ffd8a4;}.cls-14{fill:#dbb17f;}.cls-15{fill:#d35d48;}.cls-16{fill:#a87d4a;}.cls-17{fill:#e8efed;}.cls-18{fill:#8d653d;}.cls-19{fill:#c39d72;}.cls-20{fill:#e7b470;}.cls-21{fill:#e8665b;}.cls-22{fill:#ffe9cf;}.cls-23{fill:#cedcd9;}.cls-24{fill:#f7f9f9;}</style><linearGradient id="linear-gradient" x1="155.56" y1="231.35" x2="228.95" y2="317.97" gradientUnits="userSpaceOnUse"><stop offset="0" stop-color="#b1dfda"/><stop offset="1" stop-color="#b1dfda" stop-opacity="0"/></linearGradient><linearGradient id="linear-gradient-2" x1="223.29" y1="127.9" x2="312.33" y2="232.37" gradientUnits="userSpaceOnUse"><stop offset="0" stop-color="#fff"/><stop offset="1" stop-color="#fff" stop-opacity="0"/></linearGradient><linearGradient id="linear-gradient-3" x1="161.19" y1="261.49" x2="203.94" y2="293.66" xlink:href="#linear-gradient-2"/><linearGradient id="linear-gradient-4" x1="196.72" y1="179.57" x2="317.5" y2="339.58" xlink:href="#linear-gradient-2"/><linearGradient id="linear-gradient-5" x1="274.62" y1="9.78" x2="334.57" y2="59.58" gradientTransform="matrix(0.99, 0.12, -0.12, 0.99, -39.98, 173.06)" xlink:href="#linear-gradient-2"/><linearGradient id="linear-gradient-6" x1="179.5" y1="265.63" x2="239.45" y2="315.44" gradientTransform="translate(3.34 -32.03) rotate(-1.18)" xlink:href="#linear-gradient-2"/></defs><title>10 - faalliat ha</title><g id="_Group_" data-name="&lt;Group&gt;" class="cls-1"><path id="_Path_" data-name="&lt;Path&gt;" class="cls-2" d="M152.83,250q66.85,15.12,66.57,28.9-.4,19.91-140.84,37a464.5,464.5,0,0,0,91.91,0c61.95-6.18,138-13.76,154.71-55.54,15.16-37.78-20-98.92-85.8-144.17Z"/><path id="_Path_2" data-name="&lt;Path&gt;" class="cls-3" d="M274.38,257.69c14.24-25.43-12.15-72.29-49.17-119.57L152.83,250q66.85,15.12,66.57,28.9-.4,19.91-140.84,37S238.49,321.78,274.38,257.69Z"/><path id="_Path_3" data-name="&lt;Path&gt;" class="cls-4" d="M325.19,260.36c15.16-37.78-20-98.92-85.8-144.17l-6.93,10.7c26.64,14.93,85.34,53.22,93.14,104.48,2.95,19.38-3.12,34.82-13.2,47A49.23,49.23,0,0,0,325.19,260.36Z"/><path id="_Path_4" data-name="&lt;Path&gt;" class="cls-5" d="M156.64,304.17h0c136.5-18.06,28.65-66.63,28.65-66.63l-25.13,1.08L152.83,250q66.85,15.12,66.57,28.9Q219.14,292.14,156.64,304.17Z"/><path id="_Path_5" data-name="&lt;Path&gt;" class="cls-6" d="M239.39,149.36S305.78,191.58,315,243s-104,64.67-104,64.67c2.57-.34,96.5-14.87,92.54-57.72S197.27,181.3,197.27,181.3Z"/><path id="_Path_6" data-name="&lt;Path&gt;" class="cls-7" d="M218.39,197.67c1.44,1.11,42.83,5.61,59.51,39s-17.28,45.53-17.28,45.53c2.38-1,17.43-15,13-32.5s-57.51-33.75-57.51-33.75Z"/><path id="_Path_7" data-name="&lt;Path&gt;" class="cls-8" d="M172.71,212.57c1.59.89,43.19-.67,64.54,29.92S226.77,290,226.77,290c2.21-1.37,15.07-17.35,8.12-34s-61.8-25-61.8-25Z"/><g id="_Group_2" data-name="&lt;Group&gt;"><polygon id="_Path_8" data-name="&lt;Path&gt;" class="cls-9" points="145.35 173.05 51.31 216.84 51.31 116.19 145.35 61.82 145.35 173.05"/><polygon id="_Path_9" data-name="&lt;Path&gt;" class="cls-10" points="145.35 173.05 239.4 216.84 239.4 116.19 145.35 61.82 145.35 173.05"/><path id="_Path_10" data-name="&lt;Path&gt;" class="cls-10" d="M106.53,185.15c-.46-3.53-1.73-76.42-1.73-76.42L94.22,132.48c-.18,1.21,6.38,52.23,7.5,60.89l7.58-3.53A6,6,0,0,1,106.53,185.15Z"/><polygon id="_Path_11" data-name="&lt;Path&gt;" class="cls-11" points="239.4 216.84 152.83 249.97 51.31 216.84 145.35 173.05 239.4 216.84"/><path id="_Path_12" data-name="&lt;Path&gt;" class="cls-12" d="M141.42,223.8S174.5,237.69,176.19,239c.49.39.24,1.19-.34,2.12l9.46-3.62c-9.8-6.77-26.31-17.35-26.31-17.35Z"/><polygon id="_Path_13" data-name="&lt;Path&gt;" class="cls-13" points="83.64 201.79 104.8 191.94 104.8 85.27 83.64 97.5 83.64 201.79"/><polygon id="_Path_14" data-name="&lt;Path&gt;" class="cls-14" points="104.8 191.94 204.81 230.08 181.4 239.04 83.64 201.79 104.8 191.94"/><polygon id="_Path_15" data-name="&lt;Path&gt;" class="cls-15" points="55.43 120.19 77.03 108.73 77.03 116.67 55.43 128.13 55.43 120.19"/><polygon id="_Path_16" data-name="&lt;Path&gt;" class="cls-15" points="55.43 129.89 72.38 121.68 72.38 129.61 55.43 137.82 55.43 129.89"/><polygon id="_Path_17" data-name="&lt;Path&gt;" class="cls-15" points="124.2 166.03 124.2 177.22 139.18 170.66 139.18 158.1 124.2 166.03"/><path id="_Path_18" data-name="&lt;Path&gt;" class="cls-16" d="M208.94,142.25a167,167,0,0,0,30.45,20.67V116.19l-27.7-16-14.27,6a95.7,95.7,0,0,0-.19,12.32A33.37,33.37,0,0,0,208.94,142.25Z"/><path id="_Path_19" data-name="&lt;Path&gt;" class="cls-12" d="M239.39,149.36V131.85l-39.17-4.66S202,139.33,239.39,149.36Z"/><path id="_Path_20" data-name="&lt;Path&gt;" class="cls-17" d="M205.91,132.61a11.78,11.78,0,0,1-6.46-7.29c-4-12.89-9-45.08,41.16-42.3,30.2,1.67,55.76,14.67,67.14,10.21,0,0,1,14.35-16.82,18.8l8.91,2s-1,16.33-24.25,17.32l7.92,2.47S271.52,161.89,205.91,132.61Z"/><path id="_Path_21" data-name="&lt;Path&gt;" class="cls-12" d="M145.35,128.76v44.3l21.73,10.12c.5-1.43.86-2.55.86-2.55-20.58-20-21.9-53.44-21.9-53.44Z"/><path id="_Path_22" data-name="&lt;Path&gt;" class="cls-16" d="M177.41,188s-20.84-15.39-25.91-23.1-6.15-54.66-6.15-54.66v62.83Z"/><path id="_Path_23" data-name="&lt;Path&gt;" class="cls-16" d="M145.35,61.82V92.37s.86-21.82,4.39-22.7,30.2,12.15,30.21,12.15Z"/><path id="_Path_24" data-name="&lt;Path&gt;" class="cls-12" d="M237.66,216a118.74,118.74,0,0,0-2.72-17c-11.34,9.45-33.83,0-33.83,0Z"/><path id="_Path_25" data-name="&lt;Path&gt;" class="cls-16" d="M239.39,216.84V158.76l-11.74-2.66s8.92,4.8,9.36,18.25,3.58,40.5-26,29.29h0Z"/><path id="_Path_26" data-name="&lt;Path&gt;" class="cls-18" d="M166.87,183.07l-21.52-10-94,43.79,30.75,10s-8-3.1-9.68-10.84,39.59-28.9,59.31-30.88A119.19,119.19,0,0,1,169.51,188Z"/><path id="_Path_27" data-name="&lt;Path&gt;" class="cls-19" d="M104.8,191.94l-21.16,9.85,2.59,1a162,162,0,0,1,20.29-10.18Z"/><path id="_Path_28" data-name="&lt;Path&gt;" class="cls-12" d="M190.4,194l-45-21-34.6,16.11h0s23.6-9.3,34.6-7.32,45,12.18,45,12.18Z"/><path id="_Path_29" data-name="&lt;Path&gt;" class="cls-12" d="M92.65,230.33s-28.2-11.9-28.74-14.3,11.61-10.46,11.61-10.46h0L51.31,216.84Z"/><path id="_Path_30" data-name="&lt;Path&gt;" class="cls-12" d="M197.11,233l42.29-16.18-44.2-20.58h0S209.41,204,216.74,209C230,218,212.74,225.37,197.11,233Z"/><path id="_Path_31" data-name="&lt;Path&gt;" class="cls-19" d="M203.87,229.72c-2.23,1.1-4.51,2.2-6.77,3.31l7.7-2.95Z"/><path id="_Path_32" data-name="&lt;Path&gt;" class="cls-12" d="M133.92,243.8,152.83,250,171,243A70.07,70.07,0,0,1,133.92,243.8Z"/><path id="_Path_33" data-name="&lt;Path&gt;" class="cls-20" d="M145.35,61.82,113.26,80.37s25.92-12.47,28.54-10.49c2.89,2.18,3.46,14.36,3.55,21Z"/><path id="_Path_34" data-name="&lt;Path&gt;" class="cls-20" d="M51.31,116.19v26.2c0-.66,3-22.57,11.15-30,2.63-2.38,5.23-4.82,7.55-7Z"/><path id="_Path_35" data-name="&lt;Path&gt;" class="cls-21" d="M57.87,118.9l-2.44,1.29v4.54A49.89,49.89,0,0,1,57.87,118.9Z"/><path id="_Path_36" data-name="&lt;Path&gt;" class="cls-20" d="M78.57,204.15h0s-20.29,7.89-23.13,5.9-4.12-16-4.12-16v22.82Z"/><path id="_Path_37" data-name="&lt;Path&gt;" class="cls-20" d="M145.35,173.05V137.82c-.2,33.55-22.52,45.72-22.52,45.72Z"/><path id="_Path_38" data-name="&lt;Path&gt;" class="cls-21" d="M134.4,172.75l4.78-2.09v-5.59A50.71,50.71,0,0,1,134.4,172.75Z"/><path id="_Path_39" data-name="&lt;Path&gt;" class="cls-22" d="M83.64,156.06h0s1.52-52.89,1.52-55.88,7.35-7.81,7.35-7.81h0L83.64,97.5Z"/><path id="_Path_40" data-name="&lt;Path&gt;" class="cls-23" d="M205.11,128.46c-5.12-4.13-7.85-14.06-7.85-14.06h0a53.44,53.44,0,0,0,2.19,10.93,11.78,11.78,0,0,0,6.46,7.29c65.61,29.28,77.59,1.2,77.59,1.2C258.58,151.89,210.24,132.59,205.11,128.46Z"/><path id="_Path_41" data-name="&lt;Path&gt;" class="cls-23" d="M299.83,114c-9.25,13-32.4,15.27-32.4,15.27a37.8,37.8,0,0,0,8.16,2.05C298.84,130.35,299.83,114,299.83,114Z"/><path id="_Path_42" data-name="&lt;Path&gt;" class="cls-23" d="M279.66,112c5,1.76,11.26,0,11.26,0,17.81-4.45,16.82-18.8,16.82-18.8C302.45,106.61,279.66,112,279.66,112Z"/><path id="_Path_43" data-name="&lt;Path&gt;" class="cls-24" d="M283.63,91c-12-3-26.86-7.1-43-8-26.73-1.48-37.79,7-41.68,17.15h0s11.44-17.34,40.46-14.7S283.63,91,283.63,91Z"/><path id="_Path_44" data-name="&lt;Path&gt;" class="cls-24" d="M296.52,98.7c.49-.17-23.14,12.89-48.93,9.59C247.59,108.29,281.48,104,296.52,98.7Z"/><path id="_Path_45" data-name="&lt;Path&gt;" class="cls-24" d="M280.73,120c.49-.17-23.14,12.89-48.93,9.59C231.8,129.63,265.68,125.34,280.73,120Z"/></g></g></svg>