<svg id="Layer_1" data-name="Layer 1" xmlns="http://www.w3.org/2000/svg" viewBox="0 0 10 10"><defs><style>.cls-1{fill:#fff;}</style></defs><title>12- mablagh</title><path class="cls-1" d="M5,0a5,5,0,1,0,5,5A5,5,0,0,0,5,0ZM5,9.5A4.5,4.5,0,1,1,9.5,5,4.51,4.51,0,0,1,5,9.5Z"/><path class="cls-1" d="M4.05,3.63a1,1,0,0,0,.52.84V2.79A1,1,0,0,0,4.05,3.63Z"/><path class="cls-1" d="M5.43,5.53V7.22a.94.94,0,0,0,0-1.68Z"/><path class="cls-1" d="M5,.66A4.34,4.34,0,1,0,9.34,5,4.34,4.34,0,0,0,5,.66Zm.43,7.46v.5a.43.43,0,0,1-.86,0v-.5a1.79,1.79,0,0,1-1.08-.76A.43.43,0,0,1,3.43,7a.42.42,0,0,1,.18-.27.43.43,0,0,1,.6.12.93.93,0,0,0,.36.32V5.38a1.8,1.8,0,0,1,0-3.5v-.5a.43.43,0,0,1,.86,0v.5a1.79,1.79,0,0,1,1.08.76.43.43,0,1,1-.72.47.94.94,0,0,0-.36-.32V4.62a1.8,1.8,0,0,1,0,3.5Z"/></svg>