<svg id="Layer_1" data-name="Layer 1" xmlns="http://www.w3.org/2000/svg" viewBox="0 0 21 21"><defs><style>.cls-1{fill:#fff;}</style></defs><title>13 - virayesh</title><path class="cls-1" d="M20,12.21a1,1,0,0,0-1,1v4.68a1.1,1.1,0,0,1-1.1,1.1H3.11A1.1,1.1,0,0,1,2,17.89V4.16a1.11,1.11,0,0,1,1.1-1.1H7.79a1,1,0,1,0,0-2H3.11A3.12,3.12,0,0,0,0,4.16V17.89A3.12,3.12,0,0,0,3.11,21H17.89A3.12,3.12,0,0,0,21,17.89V13.21A1,1,0,0,0,20,12.21Z"/><rect class="cls-1" x="8.24" y="5.3" width="11.37" height="3.67" transform="translate(-0.97 11.93) rotate(-45)"/><polygon class="cls-1" points="7.29 13.76 10.16 12.97 8.09 10.9 7.29 13.76"/><path class="cls-1" d="M20,.46A1.38,1.38,0,0,0,18,.46L17.42,1,20,3.63l.58-.58a1.38,1.38,0,0,0,0-1.95Z"/></svg>