<svg xmlns="http://www.w3.org/2000/svg" xmlns:xlink="http://www.w3.org/1999/xlink" viewBox="0 0 280 280"><defs><style>.cls-1,.cls-10,.cls-23,.cls-7,.cls-8{fill:none;}.cls-2{isolation:isolate;}.cls-3{clip-path:url(#clip-path);}.cls-4{clip-path:url(#clip-path-2);}.cls-5{opacity:0.7;}.cls-11,.cls-13,.cls-6{mix-blend-mode:screen;}.cls-10,.cls-14,.cls-19,.cls-23,.cls-7,.cls-8{stroke-miterlimit:10;}.cls-10,.cls-7,.cls-8{stroke-width:0.84px;}.cls-7{stroke:url(#linear-gradient);}.cls-8{stroke:url(#linear-gradient-2);}.cls-9{mix-blend-mode:overlay;}.cls-10,.cls-23{stroke:#fff;}.cls-11{fill:url(#radial-gradient);}.cls-12{mix-blend-mode:color-dodge;fill:url(#radial-gradient-2);}.cls-13{fill:url(#radial-gradient-3);}.cls-14{fill:#f8f8f9;stroke:#d5d7d8;stroke-width:3px;}.cls-15{fill:#282f6c;}.cls-16,.cls-28{fill:#fff;}.cls-16{opacity:0.24;}.cls-17{fill:url(#Áåçûìÿííûé_ãðàäèåíò_77);}.cls-18{fill:#5b8eca;}.cls-19{fill:#66bbe9;stroke:#dcddde;}.cls-19,.cls-23{stroke-width:2px;}.cls-20{fill:#dcddde;}.cls-21{fill:#72cddb;}.cls-22{fill:#d1d3d4;}.cls-24{fill:#d41c58;}.cls-25{fill:#efeff0;}.cls-26{fill:#9cdbf3;}.cls-27{opacity:0.08;}.cls-29{fill:url(#Áåçûìÿííûé_ãðàäèåíò_79);}.cls-30{fill:url(#Áåçûìÿííûé_ãðàäèåíò_79-2);}.cls-31{fill:url(#Áåçûìÿííûé_ãðàäèåíò_79-3);}.cls-32{fill:url(#Áåçûìÿííûé_ãðàäèåíò_79-4);}.cls-33{fill:#f1f2f2;}.cls-34{clip-path:url(#clip-path-3);}.cls-35{fill:#f3d39d;}.cls-36{fill:#e3c593;}.cls-37{fill:#eece9a;}.cls-38{fill:#ffdca5;}.cls-39{fill:#5f533e;}.cls-40{fill:#d7d6d6;}.cls-41{fill:#f1f0f0;}.cls-42{fill:#4c576a;}.cls-43{fill:#627088;}.cls-44{fill:#bf6140;}.cls-45{fill:#f48057;}.cls-46{fill:#010101;opacity:0.07;mix-blend-mode:multiply;}</style><clipPath id="clip-path"><rect class="cls-1" x="414.43" y="344.72" width="450" height="215" rx="35.49" ry="35.49"/></clipPath><clipPath id="clip-path-2"><rect class="cls-1" x="340.03" y="308.86" width="604.5" height="403"/></clipPath><linearGradient id="linear-gradient" x1="-1429.57" y1="-1742.29" x2="-1429.57" y2="-1685.42" gradientTransform="translate(-1425.26 1712.38) rotate(90)" gradientUnits="userSpaceOnUse"><stop offset="0" stop-color="#fff" stop-opacity="0"/><stop offset="0.22" stop-color="#fffcfe" stop-opacity="0.01"/><stop offset="0.36" stop-color="#fdf2f9" stop-opacity="0.05"/><stop offset="0.48" stop-color="#fae1f1" stop-opacity="0.12"/><stop offset="0.59" stop-color="#f7c9e5" stop-opacity="0.22"/><stop offset="0.69" stop-color="#f2aad7" stop-opacity="0.35"/><stop offset="0.79" stop-color="#ec84c4" stop-opacity="0.5"/><stop offset="0.88" stop-color="#e657af" stop-opacity="0.69"/><stop offset="0.96" stop-color="#de2496" stop-opacity="0.89"/><stop offset="1" stop-color="#da0a8a"/></linearGradient><linearGradient id="linear-gradient-2" x1="-1477.98" y1="-1742.17" x2="-1477.98" y2="-1685.42" xlink:href="#linear-gradient"/><radialGradient id="radial-gradient" cx="-1477.98" cy="-1686.01" r="1.19" gradientTransform="translate(-1425.26 1712.38) rotate(90)" gradientUnits="userSpaceOnUse"><stop offset="0" stop-color="#fff"/><stop offset="1"/></radialGradient><radialGradient id="radial-gradient-2" cx="-1477.98" cy="-1686.01" r="0.71" xlink:href="#radial-gradient"/><radialGradient id="radial-gradient-3" cx="-1477.98" cy="-1686.01" r="2.38" gradientTransform="translate(-1425.26 1712.38) rotate(90)" gradientUnits="userSpaceOnUse"><stop offset="0" stop-color="#a75ca4"/><stop offset="1"/></radialGradient><linearGradient id="Áåçûìÿííûé_ãðàäèåíò_77" x1="18.75" y1="238.58" x2="230.28" y2="233" gradientUnits="userSpaceOnUse"><stop offset="0" stop-color="#3983c5"/><stop offset="1" stop-color="#60a6db"/></linearGradient><linearGradient id="Áåçûìÿííûé_ãðàäèåíò_79" x1="142.5" y1="40.23" x2="263.17" y2="98.44" gradientUnits="userSpaceOnUse"><stop offset="0" stop-color="#66bbe9"/><stop offset="1" stop-color="#98cff0"/></linearGradient><linearGradient id="Áåçûìÿííûé_ãðàäèåíò_79-2" x1="137.69" y1="50.18" x2="258.36" y2="108.4" xlink:href="#Áåçûìÿííûé_ãðàäèåíò_79"/><linearGradient id="Áåçûìÿííûé_ãðàäèåíò_79-3" x1="135.61" y1="54.5" x2="256.29" y2="112.71" xlink:href="#Áåçûìÿííûé_ãðàäèåíò_79"/><linearGradient id="Áåçûìÿííûé_ãðàäèåíò_79-4" x1="131.16" y1="63.73" x2="251.83" y2="121.95" xlink:href="#Áåçûìÿííûé_ãðàäèåíò_79"/><clipPath id="clip-path-3"><path class="cls-1" d="M205.87,103.81A61.31,61.31,0,1,0,84.71,117.21a61.31,61.31,0,1,0,119.69,0A61.52,61.52,0,0,0,205.87,103.81Z"/></clipPath></defs><title>14 - tasvire bozorg</title><g class="cls-2"><g id="Layer_1" data-name="Layer 1"><g class="cls-3"><g class="cls-4"><g class="cls-5"><g class="cls-6"><polygon class="cls-7" points="274.62 307.02 260.65 282.81 274.62 258.61 302.57 258.61 316.55 282.81 302.57 307.02 274.62 307.02"/><polyline class="cls-8" points="302.57 258.61 274.62 258.61 260.64 234.4 274.62 210.19 302.57 210.19 316.54 234.4"/></g><g class="cls-9"><polygon class="cls-10" points="302.57 258.61 274.62 258.61 260.65 234.4 274.62 210.19 302.57 210.19 316.55 234.4 302.57 258.61"/><polygon class="cls-10" points="302.57 307.02 274.62 307.02 260.65 282.81 274.62 258.61 302.57 258.61 316.55 282.81 302.57 307.02"/></g><circle class="cls-11" cx="260.75" cy="234.4" r="1.19"/><circle class="cls-12" cx="260.75" cy="234.4" r="0.71"/><circle class="cls-13" cx="260.75" cy="234.4" r="2.38"/></g></g></g><path class="cls-14" d="M219.46,234.3a102.62,102.62,0,1,0-150.87,0Z"/><path class="cls-15" d="M233,236.17H55l-.45-.58A113.2,113.2,0,0,1,224.08,86.15a113.19,113.19,0,0,1,9.39,149.44Zm-176.51-3h175a109.11,109.11,0,0,0,22.7-67,110.22,110.22,0,1,0-220.44,0A109.11,109.11,0,0,0,56.51,233.18Z"/><circle class="cls-16" cx="250.1" cy="117.21" r="7.13"/><circle class="cls-16" cx="180.24" cy="57.54" r="8.38"/><rect class="cls-17" x="41.72" y="233.02" width="205.94" height="4.48"/><polygon class="cls-18" points="165.87 231.19 122.61 231.19 125.1 212.8 163.38 212.8 165.87 231.19"/><rect class="cls-19" x="62.68" y="93.96" width="162.7" height="119.83" rx="2.88" ry="2.88"/><path class="cls-20" d="M62.68,196.88v14a2.88,2.88,0,0,0,2.88,2.88H222.49a2.88,2.88,0,0,0,2.88-2.88v-14Z"/><rect class="cls-20" x="67.92" y="99.43" width="151.65" height="91.99"/><circle class="cls-21" cx="144.24" cy="206.58" r="3.73"/><path class="cls-22" d="M169.85,233H117.14a5,5,0,0,1,5-5h42.76a5,5,0,0,1,5,5Z"/><circle class="cls-23" cx="144.24" cy="96.86" r="1.16"/><circle class="cls-16" cx="31.84" cy="145.21" r="13.74"/><polygon class="cls-24" points="103.53 62.02 34.62 62.02 34.62 97.42 82.19 97.42 98.11 107.63 90.93 97.42 103.53 97.42 103.53 62.02"/><polygon class="cls-25" points="201.81 148.21 201.81 150.44 193.22 150.44 201.81 157.87 201.81 179.37 235.28 179.37 235.28 148.21 201.81 148.21"/><path class="cls-26" d="M216.5,172.44a1.84,1.84,0,0,1,1.85-1.94,1.95,1.95,0,0,1,0,3.89A1.84,1.84,0,0,1,216.5,172.44Zm.78-4.48-.44-15.05h3L219.42,168Z"/><g class="cls-27"><circle class="cls-28" cx="190.16" cy="101.23" r="1.76"/><circle class="cls-28" cx="196.09" cy="101.23" r="1.76"/><circle class="cls-28" cx="202.03" cy="101.23" r="1.76"/><circle class="cls-28" cx="207.97" cy="101.23" r="1.76"/><circle class="cls-28" cx="213.9" cy="101.23" r="1.76"/><circle class="cls-28" cx="190.16" cy="107.14" r="1.76"/><circle class="cls-28" cx="196.09" cy="107.14" r="1.76"/><circle class="cls-28" cx="202.03" cy="107.14" r="1.76"/><circle class="cls-28" cx="207.97" cy="107.14" r="1.76"/><circle class="cls-28" cx="213.9" cy="107.14" r="1.76"/><circle class="cls-28" cx="190.16" cy="113.05" r="1.76"/><circle class="cls-28" cx="196.09" cy="113.05" r="1.76"/><circle class="cls-28" cx="202.03" cy="113.05" r="1.76"/><circle class="cls-28" cx="207.97" cy="113.05" r="1.76"/><circle class="cls-28" cx="213.9" cy="113.05" r="1.76"/><circle class="cls-28" cx="190.16" cy="118.96" r="1.76"/><circle class="cls-28" cx="196.09" cy="118.96" r="1.76"/><circle class="cls-28" cx="202.03" cy="118.96" r="1.76"/><circle class="cls-28" cx="207.97" cy="118.96" r="1.76"/><circle class="cls-28" cx="213.9" cy="118.96" r="1.76"/><circle class="cls-28" cx="190.16" cy="124.87" r="1.76"/><circle class="cls-28" cx="196.09" cy="124.87" r="1.76"/><circle class="cls-28" cx="202.03" cy="124.87" r="1.76"/><circle class="cls-28" cx="207.97" cy="124.87" r="1.76"/><circle class="cls-28" cx="213.9" cy="124.87" r="1.76"/><circle class="cls-28" cx="190.16" cy="130.79" r="1.76"/><circle class="cls-28" cx="196.09" cy="130.79" r="1.76"/><circle class="cls-28" cx="202.03" cy="130.79" r="1.76"/><circle class="cls-28" cx="207.97" cy="130.79" r="1.76"/><circle class="cls-28" cx="213.9" cy="130.79" r="1.76"/><circle class="cls-28" cx="190.16" cy="136.7" r="1.76"/><circle class="cls-28" cx="196.09" cy="136.7" r="1.76"/><circle class="cls-28" cx="202.03" cy="136.7" r="1.76"/><circle class="cls-28" cx="207.97" cy="136.7" r="1.76"/><circle class="cls-28" cx="213.9" cy="136.7" r="1.76"/><circle class="cls-28" cx="190.16" cy="142.61" r="1.76"/><circle class="cls-28" cx="196.09" cy="142.61" r="1.76"/><circle class="cls-28" cx="202.03" cy="142.61" r="1.76"/><circle class="cls-28" cx="207.97" cy="142.61" r="1.76"/><circle class="cls-28" cx="213.9" cy="142.61" r="1.76"/><circle class="cls-28" cx="190.16" cy="148.52" r="1.76"/><circle class="cls-28" cx="196.09" cy="148.52" r="1.76"/><circle class="cls-28" cx="202.03" cy="148.52" r="1.76"/><circle class="cls-28" cx="207.97" cy="148.52" r="1.76"/><circle class="cls-28" cx="213.9" cy="148.52" r="1.76"/><circle class="cls-28" cx="190.16" cy="154.43" r="1.76"/><circle class="cls-28" cx="196.09" cy="154.43" r="1.76"/><circle class="cls-28" cx="202.03" cy="154.43" r="1.76"/><circle class="cls-28" cx="207.97" cy="154.43" r="1.76"/><circle class="cls-28" cx="213.9" cy="154.43" r="1.76"/><circle class="cls-28" cx="190.16" cy="160.35" r="1.76"/><circle class="cls-28" cx="196.09" cy="160.35" r="1.76"/><circle class="cls-28" cx="202.03" cy="160.35" r="1.76"/><circle class="cls-28" cx="207.97" cy="160.35" r="1.76"/><circle class="cls-28" cx="213.9" cy="160.35" r="1.76"/><circle class="cls-28" cx="190.16" cy="166.26" r="1.76"/><circle class="cls-28" cx="196.09" cy="166.26" r="1.76"/><circle class="cls-28" cx="202.03" cy="166.26" r="1.76"/><circle class="cls-28" cx="207.97" cy="166.26" r="1.76"/><circle class="cls-28" cx="213.9" cy="166.26" r="1.76"/><circle class="cls-28" cx="190.16" cy="172.17" r="1.76"/><circle class="cls-28" cx="196.09" cy="172.17" r="1.76"/><circle class="cls-28" cx="202.03" cy="172.17" r="1.76"/><circle class="cls-28" cx="207.97" cy="172.17" r="1.76"/><circle class="cls-28" cx="213.9" cy="172.17" r="1.76"/><circle class="cls-28" cx="131.47" cy="101.23" r="1.76"/><circle class="cls-28" cx="137.4" cy="101.23" r="1.76"/><circle class="cls-28" cx="143.34" cy="101.23" r="1.76"/><circle class="cls-28" cx="149.28" cy="101.23" r="1.76"/><circle class="cls-28" cx="155.21" cy="101.23" r="1.76"/><circle class="cls-28" cx="160.81" cy="101.23" r="1.76"/><circle class="cls-28" cx="166.75" cy="101.23" r="1.76"/><circle class="cls-28" cx="172.69" cy="101.23" r="1.76"/><circle class="cls-28" cx="178.62" cy="101.23" r="1.76"/><circle class="cls-28" cx="184.56" cy="101.23" r="1.76"/><circle class="cls-28" cx="131.47" cy="107.14" r="1.76"/><circle class="cls-28" cx="137.4" cy="107.14" r="1.76"/><circle class="cls-28" cx="143.34" cy="107.14" r="1.76"/><circle class="cls-28" cx="149.28" cy="107.14" r="1.76"/><circle class="cls-28" cx="155.21" cy="107.14" r="1.76"/><circle class="cls-28" cx="160.81" cy="107.14" r="1.76"/><circle class="cls-28" cx="166.75" cy="107.14" r="1.76"/><circle class="cls-28" cx="172.69" cy="107.14" r="1.76"/><circle class="cls-28" cx="178.62" cy="107.14" r="1.76"/><circle class="cls-28" cx="184.56" cy="107.14" r="1.76"/><circle class="cls-28" cx="131.47" cy="113.05" r="1.76"/><circle class="cls-28" cx="137.4" cy="113.05" r="1.76"/><circle class="cls-28" cx="143.34" cy="113.05" r="1.76"/><circle class="cls-28" cx="149.28" cy="113.05" r="1.76"/><circle class="cls-28" cx="155.21" cy="113.05" r="1.76"/><circle class="cls-28" cx="160.81" cy="113.05" r="1.76"/><circle class="cls-28" cx="166.75" cy="113.05" r="1.76"/><circle class="cls-28" cx="172.69" cy="113.05" r="1.76"/><circle class="cls-28" cx="178.62" cy="113.05" r="1.76"/><circle class="cls-28" cx="184.56" cy="113.05" r="1.76"/><circle class="cls-28" cx="131.47" cy="118.96" r="1.76"/><circle class="cls-28" cx="137.4" cy="118.96" r="1.76"/><circle class="cls-28" cx="143.34" cy="118.96" r="1.76"/><circle class="cls-28" cx="149.28" cy="118.96" r="1.76"/><circle class="cls-28" cx="155.21" cy="118.96" r="1.76"/><circle class="cls-28" cx="160.81" cy="118.96" r="1.76"/><circle class="cls-28" cx="166.75" cy="118.96" r="1.76"/><circle class="cls-28" cx="172.69" cy="118.96" r="1.76"/><circle class="cls-28" cx="178.62" cy="118.96" r="1.76"/><circle class="cls-28" cx="184.56" cy="118.96" r="1.76"/><circle class="cls-28" cx="131.47" cy="124.87" r="1.76"/><circle class="cls-28" cx="137.4" cy="124.87" r="1.76"/><circle class="cls-28" cx="143.34" cy="124.87" r="1.76"/><circle class="cls-28" cx="149.28" cy="124.87" r="1.76"/><circle class="cls-28" cx="155.21" cy="124.87" r="1.76"/><circle class="cls-28" cx="160.81" cy="124.87" r="1.76"/><circle class="cls-28" cx="166.75" cy="124.87" r="1.76"/><circle class="cls-28" cx="172.69" cy="124.87" r="1.76"/><circle class="cls-28" cx="178.62" cy="124.87" r="1.76"/><circle class="cls-28" cx="184.56" cy="124.87" r="1.76"/><circle class="cls-28" cx="131.47" cy="130.79" r="1.76"/><circle class="cls-28" cx="137.4" cy="130.79" r="1.76"/><circle class="cls-28" cx="143.34" cy="130.79" r="1.76"/><circle class="cls-28" cx="149.28" cy="130.79" r="1.76"/><circle class="cls-28" cx="155.21" cy="130.79" r="1.76"/><circle class="cls-28" cx="160.81" cy="130.79" r="1.76"/><circle class="cls-28" cx="166.75" cy="130.79" r="1.76"/><circle class="cls-28" cx="172.69" cy="130.79" r="1.76"/><circle class="cls-28" cx="178.62" cy="130.79" r="1.76"/><circle class="cls-28" cx="184.56" cy="130.79" r="1.76"/><circle class="cls-28" cx="131.47" cy="136.7" r="1.76"/><circle class="cls-28" cx="137.4" cy="136.7" r="1.76"/><circle class="cls-28" cx="143.34" cy="136.7" r="1.76"/><circle class="cls-28" cx="149.28" cy="136.7" r="1.76"/><circle class="cls-28" cx="155.21" cy="136.7" r="1.76"/><circle class="cls-28" cx="160.81" cy="136.7" r="1.76"/><circle class="cls-28" cx="166.75" cy="136.7" r="1.76"/><circle class="cls-28" cx="172.69" cy="136.7" r="1.76"/><circle class="cls-28" cx="178.62" cy="136.7" r="1.76"/><circle class="cls-28" cx="184.56" cy="136.7" r="1.76"/><circle class="cls-28" cx="131.47" cy="142.61" r="1.76"/><circle class="cls-28" cx="137.4" cy="142.61" r="1.76"/><circle class="cls-28" cx="143.34" cy="142.61" r="1.76"/><circle class="cls-28" cx="149.28" cy="142.61" r="1.76"/><circle class="cls-28" cx="155.21" cy="142.61" r="1.76"/><circle class="cls-28" cx="160.81" cy="142.61" r="1.76"/><circle class="cls-28" cx="166.75" cy="142.61" r="1.76"/><circle class="cls-28" cx="172.69" cy="142.61" r="1.76"/><circle class="cls-28" cx="178.62" cy="142.61" r="1.76"/><circle class="cls-28" cx="184.56" cy="142.61" r="1.76"/><circle class="cls-28" cx="131.47" cy="148.52" r="1.76"/><circle class="cls-28" cx="137.4" cy="148.52" r="1.76"/><circle class="cls-28" cx="143.34" cy="148.52" r="1.76"/><circle class="cls-28" cx="149.28" cy="148.52" r="1.76"/><circle class="cls-28" cx="155.21" cy="148.52" r="1.76"/><circle class="cls-28" cx="160.81" cy="148.52" r="1.76"/><circle class="cls-28" cx="166.75" cy="148.52" r="1.76"/><circle class="cls-28" cx="172.69" cy="148.52" r="1.76"/><circle class="cls-28" cx="178.62" cy="148.52" r="1.76"/><circle class="cls-28" cx="184.56" cy="148.52" r="1.76"/><circle class="cls-28" cx="131.47" cy="154.43" r="1.76"/><circle class="cls-28" cx="137.4" cy="154.43" r="1.76"/><circle class="cls-28" cx="143.34" cy="154.43" r="1.76"/><circle class="cls-28" cx="149.28" cy="154.43" r="1.76"/><circle class="cls-28" cx="155.21" cy="154.43" r="1.76"/><circle class="cls-28" cx="160.81" cy="154.43" r="1.76"/><circle class="cls-28" cx="166.75" cy="154.43" r="1.76"/><circle class="cls-28" cx="172.69" cy="154.43" r="1.76"/><circle class="cls-28" cx="178.62" cy="154.43" r="1.76"/><circle class="cls-28" cx="184.56" cy="154.43" r="1.76"/><circle class="cls-28" cx="131.47" cy="160.35" r="1.76"/><circle class="cls-28" cx="137.4" cy="160.35" r="1.76"/><circle class="cls-28" cx="143.34" cy="160.35" r="1.76"/><circle class="cls-28" cx="149.28" cy="160.35" r="1.76"/><circle class="cls-28" cx="155.21" cy="160.35" r="1.76"/><circle class="cls-28" cx="160.81" cy="160.35" r="1.76"/><circle class="cls-28" cx="166.75" cy="160.35" r="1.76"/><circle class="cls-28" cx="172.69" cy="160.35" r="1.76"/><circle class="cls-28" cx="178.62" cy="160.35" r="1.76"/><circle class="cls-28" cx="184.56" cy="160.35" r="1.76"/><circle class="cls-28" cx="131.47" cy="166.26" r="1.76"/><circle class="cls-28" cx="137.4" cy="166.26" r="1.76"/><circle class="cls-28" cx="143.34" cy="166.26" r="1.76"/><circle class="cls-28" cx="149.28" cy="166.26" r="1.76"/><circle class="cls-28" cx="155.21" cy="166.26" r="1.76"/><circle class="cls-28" cx="160.81" cy="166.26" r="1.76"/><circle class="cls-28" cx="166.75" cy="166.26" r="1.76"/><circle class="cls-28" cx="172.69" cy="166.26" r="1.76"/><circle class="cls-28" cx="178.62" cy="166.26" r="1.76"/><circle class="cls-28" cx="184.56" cy="166.26" r="1.76"/><circle class="cls-28" cx="131.47" cy="172.17" r="1.76"/><circle class="cls-28" cx="137.4" cy="172.17" r="1.76"/><circle class="cls-28" cx="143.34" cy="172.17" r="1.76"/><circle class="cls-28" cx="149.28" cy="172.17" r="1.76"/><circle class="cls-28" cx="155.21" cy="172.17" r="1.76"/><circle class="cls-28" cx="160.81" cy="172.17" r="1.76"/><circle class="cls-28" cx="166.75" cy="172.17" r="1.76"/><circle class="cls-28" cx="172.69" cy="172.17" r="1.76"/><circle class="cls-28" cx="178.62" cy="172.17" r="1.76"/><circle class="cls-28" cx="184.56" cy="172.17" r="1.76"/><circle class="cls-28" cx="72.59" cy="101.23" r="1.76"/><circle class="cls-28" cx="78.53" cy="101.23" r="1.76"/><circle class="cls-28" cx="84.46" cy="101.23" r="1.76"/><circle class="cls-28" cx="90.4" cy="101.23" r="1.76"/><circle class="cls-28" cx="96.33" cy="101.23" r="1.76"/><circle class="cls-28" cx="72.59" cy="107.14" r="1.76"/><circle class="cls-28" cx="78.53" cy="107.14" r="1.76"/><circle class="cls-28" cx="84.46" cy="107.14" r="1.76"/><circle class="cls-28" cx="90.4" cy="107.14" r="1.76"/><circle class="cls-28" cx="96.33" cy="107.14" r="1.76"/><circle class="cls-28" cx="72.59" cy="113.05" r="1.76"/><circle class="cls-28" cx="78.53" cy="113.05" r="1.76"/><circle class="cls-28" cx="84.46" cy="113.05" r="1.76"/><circle class="cls-28" cx="90.4" cy="113.05" r="1.76"/><circle class="cls-28" cx="96.33" cy="113.05" r="1.76"/><circle class="cls-28" cx="72.59" cy="118.96" r="1.76"/><circle class="cls-28" cx="78.53" cy="118.96" r="1.76"/><circle class="cls-28" cx="84.46" cy="118.96" r="1.76"/><circle class="cls-28" cx="90.4" cy="118.96" r="1.76"/><circle class="cls-28" cx="96.33" cy="118.96" r="1.76"/><circle class="cls-28" cx="72.59" cy="124.87" r="1.76"/><circle class="cls-28" cx="78.53" cy="124.87" r="1.76"/><circle class="cls-28" cx="84.46" cy="124.87" r="1.76"/><circle class="cls-28" cx="90.4" cy="124.87" r="1.76"/><circle class="cls-28" cx="96.33" cy="124.87" r="1.76"/><circle class="cls-28" cx="72.59" cy="130.79" r="1.76"/><circle class="cls-28" cx="78.53" cy="130.79" r="1.76"/><circle class="cls-28" cx="84.46" cy="130.79" r="1.76"/><circle class="cls-28" cx="90.4" cy="130.79" r="1.76"/><circle class="cls-28" cx="96.33" cy="130.79" r="1.76"/><circle class="cls-28" cx="72.59" cy="136.7" r="1.76"/><circle class="cls-28" cx="78.53" cy="136.7" r="1.76"/><circle class="cls-28" cx="84.46" cy="136.7" r="1.76"/><circle class="cls-28" cx="90.4" cy="136.7" r="1.76"/><circle class="cls-28" cx="96.33" cy="136.7" r="1.76"/><circle class="cls-28" cx="72.59" cy="142.61" r="1.76"/><circle class="cls-28" cx="78.53" cy="142.61" r="1.76"/><circle class="cls-28" cx="84.46" cy="142.61" r="1.76"/><circle class="cls-28" cx="90.4" cy="142.61" r="1.76"/><circle class="cls-28" cx="96.33" cy="142.61" r="1.76"/><circle class="cls-28" cx="72.59" cy="148.52" r="1.76"/><circle class="cls-28" cx="78.53" cy="148.52" r="1.76"/><circle class="cls-28" cx="84.46" cy="148.52" r="1.76"/><circle class="cls-28" cx="90.4" cy="148.52" r="1.76"/><circle class="cls-28" cx="96.33" cy="148.52" r="1.76"/><circle class="cls-28" cx="72.59" cy="154.43" r="1.76"/><circle class="cls-28" cx="78.53" cy="154.43" r="1.76"/><circle class="cls-28" cx="84.46" cy="154.43" r="1.76"/><circle class="cls-28" cx="90.4" cy="154.43" r="1.76"/><circle class="cls-28" cx="96.33" cy="154.43" r="1.76"/><circle class="cls-28" cx="102.12" cy="101.23" r="1.76"/><circle class="cls-28" cx="108.06" cy="101.23" r="1.76"/><circle class="cls-28" cx="113.99" cy="101.23" r="1.76"/><circle class="cls-28" cx="119.93" cy="101.23" r="1.76"/><circle class="cls-28" cx="125.87" cy="101.23" r="1.76"/><circle class="cls-28" cx="102.12" cy="107.14" r="1.76"/><circle class="cls-28" cx="108.06" cy="107.14" r="1.76"/><circle class="cls-28" cx="113.99" cy="107.14" r="1.76"/><circle class="cls-28" cx="119.93" cy="107.14" r="1.76"/><circle class="cls-28" cx="125.87" cy="107.14" r="1.76"/><circle class="cls-28" cx="102.12" cy="113.05" r="1.76"/><circle class="cls-28" cx="108.06" cy="113.05" r="1.76"/><circle class="cls-28" cx="113.99" cy="113.05" r="1.76"/><circle class="cls-28" cx="119.93" cy="113.05" r="1.76"/><circle class="cls-28" cx="125.87" cy="113.05" r="1.76"/><circle class="cls-28" cx="102.12" cy="118.96" r="1.76"/><circle class="cls-28" cx="108.06" cy="118.96" r="1.76"/><circle class="cls-28" cx="113.99" cy="118.96" r="1.76"/><circle class="cls-28" cx="119.93" cy="118.96" r="1.76"/><circle class="cls-28" cx="125.87" cy="118.96" r="1.76"/><circle class="cls-28" cx="102.12" cy="124.87" r="1.76"/><circle class="cls-28" cx="108.06" cy="124.87" r="1.76"/><circle class="cls-28" cx="113.99" cy="124.87" r="1.76"/><circle class="cls-28" cx="119.93" cy="124.87" r="1.76"/><circle class="cls-28" cx="125.87" cy="124.87" r="1.76"/><circle class="cls-28" cx="102.12" cy="130.79" r="1.76"/><circle class="cls-28" cx="108.06" cy="130.79" r="1.76"/><circle class="cls-28" cx="113.99" cy="130.79" r="1.76"/><circle class="cls-28" cx="119.93" cy="130.79" r="1.76"/><circle class="cls-28" cx="125.87" cy="130.79" r="1.76"/><circle class="cls-28" cx="102.12" cy="136.7" r="1.76"/><circle class="cls-28" cx="108.06" cy="136.7" r="1.76"/><circle class="cls-28" cx="113.99" cy="136.7" r="1.76"/><circle class="cls-28" cx="119.93" cy="136.7" r="1.76"/><circle class="cls-28" cx="125.87" cy="136.7" r="1.76"/><circle class="cls-28" cx="102.12" cy="142.61" r="1.76"/><circle class="cls-28" cx="108.06" cy="142.61" r="1.76"/><circle class="cls-28" cx="113.99" cy="142.61" r="1.76"/><circle class="cls-28" cx="119.93" cy="142.61" r="1.76"/><circle class="cls-28" cx="125.87" cy="142.61" r="1.76"/><circle class="cls-28" cx="102.12" cy="148.52" r="1.76"/><circle class="cls-28" cx="108.06" cy="148.52" r="1.76"/><circle class="cls-28" cx="113.99" cy="148.52" r="1.76"/><circle class="cls-28" cx="119.93" cy="148.52" r="1.76"/><circle class="cls-28" cx="125.87" cy="148.52" r="1.76"/><circle class="cls-28" cx="102.12" cy="154.43" r="1.76"/><circle class="cls-28" cx="108.06" cy="154.43" r="1.76"/><circle class="cls-28" cx="113.99" cy="154.43" r="1.76"/><circle class="cls-28" cx="119.93" cy="154.43" r="1.76"/><circle class="cls-28" cx="125.87" cy="154.43" r="1.76"/><circle class="cls-28" cx="102.12" cy="160.35" r="1.76"/><circle class="cls-28" cx="108.06" cy="160.35" r="1.76"/><circle class="cls-28" cx="113.99" cy="160.35" r="1.76"/><circle class="cls-28" cx="119.93" cy="160.35" r="1.76"/><circle class="cls-28" cx="125.87" cy="160.35" r="1.76"/><circle class="cls-28" cx="102.12" cy="166.26" r="1.76"/><circle class="cls-28" cx="108.06" cy="166.26" r="1.76"/><circle class="cls-28" cx="113.99" cy="166.26" r="1.76"/><circle class="cls-28" cx="119.93" cy="166.26" r="1.76"/><circle class="cls-28" cx="125.87" cy="166.26" r="1.76"/><circle class="cls-28" cx="102.12" cy="172.17" r="1.76"/><circle class="cls-28" cx="108.06" cy="172.17" r="1.76"/><circle class="cls-28" cx="113.99" cy="172.17" r="1.76"/><circle class="cls-28" cx="119.93" cy="172.17" r="1.76"/><circle class="cls-28" cx="125.87" cy="172.17" r="1.76"/><circle class="cls-28" cx="72.59" cy="160.35" r="1.76"/><circle class="cls-28" cx="78.53" cy="160.35" r="1.76"/><circle class="cls-28" cx="84.46" cy="160.35" r="1.76"/><circle class="cls-28" cx="90.4" cy="160.35" r="1.76"/><circle class="cls-28" cx="96.33" cy="160.35" r="1.76"/><circle class="cls-28" cx="72.59" cy="166.26" r="1.76"/><circle class="cls-28" cx="78.53" cy="166.26" r="1.76"/><circle class="cls-28" cx="84.46" cy="166.26" r="1.76"/><circle class="cls-28" cx="90.4" cy="166.26" r="1.76"/><circle class="cls-28" cx="96.33" cy="166.26" r="1.76"/><circle class="cls-28" cx="72.59" cy="172.17" r="1.76"/><circle class="cls-28" cx="78.53" cy="172.17" r="1.76"/><circle class="cls-28" cx="84.46" cy="172.17" r="1.76"/><circle class="cls-28" cx="90.4" cy="172.17" r="1.76"/><circle class="cls-28" cx="96.33" cy="172.17" r="1.76"/><circle class="cls-28" cx="72.59" cy="178.08" r="1.76"/><circle class="cls-28" cx="78.53" cy="178.08" r="1.76"/><circle class="cls-28" cx="84.46" cy="178.08" r="1.76"/><circle class="cls-28" cx="90.4" cy="178.08" r="1.76"/><circle class="cls-28" cx="96.33" cy="178.08" r="1.76"/><circle class="cls-28" cx="102.12" cy="178.08" r="1.76"/><circle class="cls-28" cx="108.06" cy="178.08" r="1.76"/><circle class="cls-28" cx="113.99" cy="178.08" r="1.76"/><circle class="cls-28" cx="119.93" cy="178.08" r="1.76"/><circle class="cls-28" cx="125.87" cy="178.08" r="1.76"/><circle class="cls-28" cx="131.47" cy="178.08" r="1.76"/><circle class="cls-28" cx="137.4" cy="178.08" r="1.76"/><circle class="cls-28" cx="143.34" cy="178.08" r="1.76"/><circle class="cls-28" cx="149.28" cy="178.08" r="1.76"/><circle class="cls-28" cx="155.21" cy="178.08" r="1.76"/><circle class="cls-28" cx="160.81" cy="178.08" r="1.76"/><circle class="cls-28" cx="166.75" cy="178.08" r="1.76"/><circle class="cls-28" cx="172.69" cy="178.08" r="1.76"/><circle class="cls-28" cx="178.62" cy="178.08" r="1.76"/><circle class="cls-28" cx="184.56" cy="178.08" r="1.76"/><circle class="cls-28" cx="190.16" cy="178.08" r="1.76"/><circle class="cls-28" cx="196.09" cy="178.08" r="1.76"/><circle class="cls-28" cx="202.03" cy="178.08" r="1.76"/><circle class="cls-28" cx="207.97" cy="178.08" r="1.76"/><circle class="cls-28" cx="213.9" cy="178.08" r="1.76"/><circle class="cls-28" cx="72.59" cy="183.99" r="1.76"/><circle class="cls-28" cx="78.53" cy="183.99" r="1.76"/><circle class="cls-28" cx="84.46" cy="183.99" r="1.76"/><circle class="cls-28" cx="90.4" cy="183.99" r="1.76"/><circle class="cls-28" cx="96.33" cy="183.99" r="1.76"/><circle class="cls-28" cx="102.12" cy="183.99" r="1.76"/><circle class="cls-28" cx="108.06" cy="183.99" r="1.76"/><circle class="cls-28" cx="113.99" cy="183.99" r="1.76"/><circle class="cls-28" cx="119.93" cy="183.99" r="1.76"/><circle class="cls-28" cx="125.87" cy="183.99" r="1.76"/><circle class="cls-28" cx="131.47" cy="183.99" r="1.76"/><circle class="cls-28" cx="137.4" cy="183.99" r="1.76"/><circle class="cls-28" cx="143.34" cy="183.99" r="1.76"/><circle class="cls-28" cx="149.28" cy="183.99" r="1.76"/><circle class="cls-28" cx="155.21" cy="183.99" r="1.76"/><circle class="cls-28" cx="160.81" cy="183.99" r="1.76"/><circle class="cls-28" cx="166.75" cy="183.99" r="1.76"/><circle class="cls-28" cx="172.69" cy="183.99" r="1.76"/><circle class="cls-28" cx="178.62" cy="183.99" r="1.76"/><circle class="cls-28" cx="184.56" cy="183.99" r="1.76"/><circle class="cls-28" cx="190.16" cy="183.99" r="1.76"/><circle class="cls-28" cx="196.09" cy="183.99" r="1.76"/><circle class="cls-28" cx="202.03" cy="183.99" r="1.76"/><circle class="cls-28" cx="207.97" cy="183.99" r="1.76"/><circle class="cls-28" cx="213.9" cy="183.99" r="1.76"/><circle class="cls-28" cx="72.59" cy="189.91" r="1.76"/><circle class="cls-28" cx="78.53" cy="189.91" r="1.76"/><circle class="cls-28" cx="84.46" cy="189.91" r="1.76"/><circle class="cls-28" cx="90.4" cy="189.91" r="1.76"/><circle class="cls-28" cx="96.33" cy="189.91" r="1.76"/><circle class="cls-28" cx="102.12" cy="189.91" r="1.76"/><circle class="cls-28" cx="108.06" cy="189.91" r="1.76"/><circle class="cls-28" cx="113.99" cy="189.91" r="1.76"/><circle class="cls-28" cx="119.93" cy="189.91" r="1.76"/><circle class="cls-28" cx="125.87" cy="189.91" r="1.76"/><circle class="cls-28" cx="131.47" cy="189.91" r="1.76"/><circle class="cls-28" cx="137.4" cy="189.91" r="1.76"/><circle class="cls-28" cx="143.34" cy="189.91" r="1.76"/><circle class="cls-28" cx="149.28" cy="189.91" r="1.76"/><circle class="cls-28" cx="155.21" cy="189.91" r="1.76"/><circle class="cls-28" cx="160.81" cy="189.91" r="1.76"/><circle class="cls-28" cx="166.75" cy="189.91" r="1.76"/><circle class="cls-28" cx="172.69" cy="189.91" r="1.76"/><circle class="cls-28" cx="178.62" cy="189.91" r="1.76"/><circle class="cls-28" cx="184.56" cy="189.91" r="1.76"/><circle class="cls-28" cx="190.16" cy="189.91" r="1.76"/><circle class="cls-28" cx="196.09" cy="189.91" r="1.76"/><circle class="cls-28" cx="202.03" cy="189.91" r="1.76"/><circle class="cls-28" cx="207.97" cy="189.91" r="1.76"/><circle class="cls-28" cx="213.9" cy="189.91" r="1.76"/><circle class="cls-28" cx="190.16" cy="189.91" r="1.76"/><circle class="cls-28" cx="196.09" cy="189.91" r="1.76"/><circle class="cls-28" cx="202.03" cy="189.91" r="1.76"/><circle class="cls-28" cx="207.97" cy="189.91" r="1.76"/><circle class="cls-28" cx="213.9" cy="189.91" r="1.76"/></g><rect class="cls-25" x="188.5" y="69.45" width="70.7" height="45.1"/><polygon class="cls-25" points="207.34 112.11 193.77 124.35 197.41 111.89 207.34 112.11"/><rect class="cls-29" x="191.95" y="75.44" width="60.76" height="6.61"/><rect class="cls-30" x="191.95" y="86.63" width="50.21" height="3.69"/><rect class="cls-31" x="191.95" y="93.87" width="58.21" height="3.69"/><rect class="cls-32" x="191.95" y="101.12" width="41.62" height="3.97"/><circle class="cls-33" cx="35.53" cy="188.95" r="18.74"/><polygon class="cls-33" points="52.87 185.03 60.53 172.45 41.72 179.37 52.87 185.03"/><path class="cls-26" d="M33.57,193.37l-.06-.79a6.93,6.93,0,0,1,1.87-5.23c1.36-1.6,2.12-2.78,2.12-4.14,0-1.54-1-2.57-2.87-2.6a5.37,5.37,0,0,0-3.05.94l-.73-1.9a7.92,7.92,0,0,1,4.32-1.21c3.48,0,5,2.15,5,4.44,0,2.05-1.15,3.54-2.6,5.26a6,6,0,0,0-1.72,4.44l0,.79Zm-.66,4.23a1.79,1.79,0,0,1,1.81-1.9,1.89,1.89,0,1,1-1.81,1.9Z"/><path class="cls-28" d="M65,70.32a.29.29,0,0,0-.11,0l-7,2.38a.42.42,0,0,0-.2.26l-.5,3c.78.72,1.34,1.21,1.63,1.47a8.45,8.45,0,0,1,1.39,1.5.46.46,0,0,1,.11.3c0,.17-.06.26-.26.3a14.26,14.26,0,0,1-2.56.17h-.85v0h-.33a.81.81,0,0,1-.78-.48l-.17-.85c-.13-.37-.3-.54-.54-.54s-.46.22-.59.59l-.2.89a.73.73,0,0,1-.74.5.69.69,0,0,1-.74-.5l-.17-1c-.06-.33-.24-.5-.5-.5a.59.59,0,0,0-.61.5c-.11.48-.2.8-.24,1a.77.77,0,0,1-.8.5A2.25,2.25,0,0,1,49,79.43c-.24-.22-.67-.59-1.28-1.21-.09-.09-.17-.17-.2-.17s-.06.06-.13.17L46,81c1.23,1,1.84,1.69,1.84,2.14s-.45.91-1.41,1.15a8.1,8.1,0,0,1-2,.24c-2.41,0-3.64-.61-3.64-1.82a4,4,0,0,1,.11-.74,3.75,3.75,0,0,0,.11-.74,2.43,2.43,0,0,0-.07-.67.48.48,0,0,0-.5-.35c-.39,0-.76.54-1.11,1.65a8.3,8.3,0,0,0-.45,2.49,3.58,3.58,0,0,0,1.58,3.21,6.24,6.24,0,0,0,3.58.89c3.71,0,5.55-1.67,5.55-5a2.11,2.11,0,0,0,1.15.3c.45,0,.76-.3,1.11-.89a1.75,1.75,0,0,0,1.58.89,1.23,1.23,0,0,0,.85-.3,4.6,4.6,0,0,1,.5-.61,2.31,2.31,0,0,0,1.75,1h.19v0H58.3a5,5,0,0,0,2.45-.54,4,4,0,0,0,1.95-3.83A5.75,5.75,0,0,0,62.16,77a8.92,8.92,0,0,0-1.28-1.89l3.77-1.21a1.29,1.29,0,0,0,.17-.11.49.49,0,0,0,0-.2l.3-3C65.15,70.46,65.15,70.39,65,70.32Z"/><path class="cls-28" d="M73.34,74.51s-.09.07-.2.2L71.43,77.2c-.11.15-.11.24,0,.35a11,11,0,0,1,1.47,1.52.62.62,0,0,1,.17.35c0,.19-.17.3-.54.3H71v0h-.3c-.8,0-1.21-.45-1.21-1.34v-8.1c0-.13,0-.2-.11-.2a.82.82,0,0,0-.37.2l-2.66,1.88a.72.72,0,0,0-.13.61c.07.58.17,1.73.24,3.47s.11,3,.11,4c0,2.38,1.17,3.58,3.44,3.58h.45v.06h.74a3.53,3.53,0,0,0,3.1-1.23A6.5,6.5,0,0,0,75,79.08a6.64,6.64,0,0,0-1.43-4.4C73.47,74.59,73.41,74.51,73.34,74.51Z"/><path class="cls-28" d="M74.34,86.53l-1.26-1.24c-.09-.11-.19-.11-.3,0l-1.15,1.15c-.15.15-.15.24,0,.35L72.86,88c.09.11.15.11.26,0l1.23-1.23C74.45,86.69,74.45,86.6,74.34,86.53Z"/><path class="cls-28" d="M81.21,77.84c-.15-.13-.24-.09-.35.07l-1.47,3c1.37,1.28,2,2.12,2,2.49s-.8,1.21-2.32,2.25a19.82,19.82,0,0,1-3,1.82.56.56,0,0,0-.3.5c0,.41.24.61.74.61h4.27a.81.81,0,0,0,.54-.2,7.37,7.37,0,0,0,1.82-5.31,11.37,11.37,0,0,0-.41-3.21A6.39,6.39,0,0,0,81.21,77.84Z"/><path class="cls-28" d="M99.28,86.56l-1.19-1.08c-.06-.11-.15-.11-.26,0l-1,1-1-1c-.09-.11-.15-.11-.26,0l-1,1c-.11.13-.15.19,0,.3l1.1,1a.16.16,0,0,0,.24,0l1-1,1,1a.16.16,0,0,0,.24,0l1.1-1C99.35,86.69,99.39,86.64,99.28,86.56Z"/><path class="cls-28" d="M94.77,83.89a3.53,3.53,0,0,0,3.1-1.23,6.5,6.5,0,0,0,.72-3.58,6.83,6.83,0,0,0-1.41-4.4c-.11-.09-.17-.17-.24-.17s-.09.07-.2.2L95,77.2c-.11.15-.11.24,0,.35a11,11,0,0,1,1.47,1.52.62.62,0,0,1,.17.35c0,.19-.17.3-.54.3H94.65v0H88.82c-.8,0-1.21-.45-1.21-1.34v-8.1c0-.13,0-.2-.11-.2a.82.82,0,0,0-.37.2l-2.66,1.88a.71.71,0,0,0-.13.61c.07.58.17,1.73.24,3.47s.11,3,.11,4c0,2.38,1.17,3.58,3.44,3.58h.46v0H94v0Z"/><g class="cls-34"><rect class="cls-35" x="127.26" y="113.87" width="34.58" height="39.75"/><path class="cls-36" d="M127.26,136a17.45,17.45,0,0,0,3.64,2.95l9.77,5.93a17.47,17.47,0,0,0,18.14,0l3-1.85V113.87H127.26Z"/><path class="cls-37" d="M122.72,118.62c-3.2-1.12-4.89-4.72-6.23-8a31.14,31.14,0,0,1-2.76-9.34c-.11-1.47.06-3.14,1.13-4.08a3.38,3.38,0,0,1,3.1-.56,10.21,10.21,0,0,1,2.92,1.51C126.62,102,125.56,112.12,122.72,118.62Z"/><path class="cls-37" d="M168,118c3.2-1.12,4.89-4.72,6.23-8a31.14,31.14,0,0,0,2.76-9.34c.11-1.47-.06-3.14-1.13-4.08a3.38,3.38,0,0,0-3.1-.56,10.21,10.21,0,0,0-2.92,1.51C164.1,101.36,165.16,111.5,168,118Z"/><path class="cls-38" d="M163.16,133.35l-9.27,5.93a15.87,15.87,0,0,1-17.22,0l-9.27-5.93a17.68,17.68,0,0,1-8-14.93V81.72h51.71v36.7A17.68,17.68,0,0,1,163.16,133.35Z"/><path class="cls-39" d="M170.46,110.08a65.52,65.52,0,0,0-2.35-12.58,82.49,82.49,0,0,1-40.74-13.09A39.82,39.82,0,0,1,123.5,101c-1.49,3.11-3.46,6.31-3.06,9.78-1.42-3.18-2.6-6.08-4-9.25a61.26,61.26,0,0,1-4.27-11.55,20.92,20.92,0,0,1,.55-12.2A14.5,14.5,0,0,1,123,68.92a24.39,24.39,0,0,1,14.22-11.17c5.75-1.66,11.83-1.54,17.75-.8,7.12.89,14.77,3.09,19,9.21,3,4.3,3.7,9.86,3.67,15.17A61.24,61.24,0,0,1,170.46,110.08Z"/><path class="cls-40" d="M144.56,151l-17.27-9.17-5,4.59-13.86,5.94A31.52,31.52,0,0,0,91,171.16l-2.79,20.36h56.31Z"/><path class="cls-40" d="M144.56,151l17.27-9.17,5,4.59,13.86,5.94a31.52,31.52,0,0,1,17.42,18.8l2.79,20.36H144.56Z"/><polygon class="cls-41" points="166.79 146.41 172.42 148.82 160.3 173.17 144.56 151 161.82 141.83 166.79 146.41"/><path class="cls-42" d="M200.86,191.52h-49.5l15.43-45.1,13.86,5.94a31.52,31.52,0,0,1,17.42,18.8Z"/><path class="cls-43" d="M180,152.05c-6.16,6-12,11.56-12,11.56l5.35,5.35-15.11,22.55h-6.81l15.43-45.1Z"/><polygon class="cls-41" points="122.32 146.41 116.69 148.82 128.82 173.17 144.56 151 127.29 141.83 122.32 146.41"/><path class="cls-42" d="M88.25,191.52h49.5l-15.43-45.1-13.86,5.94A31.52,31.52,0,0,0,91,171.16Z"/><path class="cls-43" d="M109.16,152.05c6.16,6,12,11.56,12,11.56L115.82,169l15.11,22.55h6.81l-15.43-45.1Z"/><path class="cls-44" d="M115.46,118h-3.82V95.49a33.64,33.64,0,0,1,67.28,0v21.59H175.1V95.49a29.82,29.82,0,1,0-59.64,0Z"/><path class="cls-45" d="M113.66,95.42h0a0,0,0,0,1,0,0v23a0,0,0,0,1,0,0h0a6.94,6.94,0,0,1-6.94-6.94v-9.15A6.94,6.94,0,0,1,113.66,95.42Z"/><rect class="cls-44" x="113.66" y="93.58" width="5.61" height="26.72" rx="1.58" ry="1.58"/><path class="cls-44" d="M148.89,137.42a1.91,1.91,0,0,1-.55-3.74l6.89-2.09a31,31,0,0,0,20.57-20.39,1.91,1.91,0,0,1,3.65,1.14,34.76,34.76,0,0,1-23.11,22.9l-6.89,2.09A1.92,1.92,0,0,1,148.89,137.42Z"/><path class="cls-45" d="M183.89,95.42h0a0,0,0,0,1,0,0v23a0,0,0,0,1,0,0h0a6.94,6.94,0,0,1-6.94-6.94v-9.15A6.94,6.94,0,0,1,183.89,95.42Z" transform="translate(360.84 213.88) rotate(-180)"/><rect class="cls-44" x="171.34" y="93.58" width="5.61" height="26.72" rx="1.58" ry="1.58" transform="translate(348.29 213.88) rotate(180)"/><path class="cls-46" d="M180.66,152.35l-.7-.3-13.16-5.64-4.95-4.57v-7.65l1.32-.84a16.83,16.83,0,0,0,4-3.64,34.75,34.75,0,0,0,8.64-9.49,1.58,1.58,0,0,0,1.11-1.5v-.27h0a6.94,6.94,0,0,0,6.94-6.94v-9.15a6.94,6.94,0,0,0-5-6.65v-.21a33.53,33.53,0,0,0-1.48-9.88c.1-1.43.16-2.86.17-4.29,0-5.31-.71-10.87-3.67-15.17-4.21-6.12-11.85-8.31-19-9.21a55.62,55.62,0,0,0-10.42-.43v135h56.31l-2.79-20.36A31.52,31.52,0,0,0,180.66,152.35Zm-9.52-33.93v-2.73l.21-.25v3.28a1.57,1.57,0,0,0,.31.93q-.31.45-.64.88A18.39,18.39,0,0,0,171.13,118.42Z"/><circle class="cls-43" cx="144.65" cy="160.35" r="2.36"/><circle class="cls-43" cx="144.65" cy="170.89" r="2.36"/><circle class="cls-43" cx="144.65" cy="180.45" r="2.36"/></g></g></g></svg>