<svg xmlns="http://www.w3.org/2000/svg" xmlns:xlink="http://www.w3.org/1999/xlink" viewBox="0 0 280 280"><defs><style>.cls-1,.cls-10,.cls-11,.cls-13,.cls-45,.cls-46,.cls-47,.cls-6,.cls-61,.cls-62,.cls-63,.cls-64,.cls-7,.cls-8,.cls-9{fill:none;}.cls-2{isolation:isolate;}.cls-3{clip-path:url(#clip-path);}.cls-4{clip-path:url(#clip-path-2);}.cls-14,.cls-16,.cls-17,.cls-19,.cls-20,.cls-22,.cls-23,.cls-25,.cls-26,.cls-28,.cls-29,.cls-31,.cls-32,.cls-34,.cls-35,.cls-37,.cls-38,.cls-40,.cls-41,.cls-43,.cls-48,.cls-5,.cls-50,.cls-51,.cls-53,.cls-65,.cls-67,.cls-68,.cls-70,.cls-71,.cls-73,.cls-74,.cls-76{mix-blend-mode:screen;}.cls-10,.cls-11,.cls-13,.cls-45,.cls-46,.cls-47,.cls-6,.cls-61,.cls-62,.cls-63,.cls-64,.cls-7,.cls-8,.cls-9{stroke-miterlimit:10;stroke-width:0.84px;}.cls-6{stroke:url(#linear-gradient);}.cls-7{stroke:url(#linear-gradient-2);}.cls-8{stroke:url(#linear-gradient-3);}.cls-9{stroke:url(#linear-gradient-4);}.cls-10{stroke:url(#linear-gradient-5);}.cls-11{stroke:url(#linear-gradient-6);}.cls-12{mix-blend-mode:overlay;}.cls-13{stroke:#fff;}.cls-14{fill:url(#radial-gradient);}.cls-15,.cls-18,.cls-21,.cls-24,.cls-27,.cls-30,.cls-33,.cls-36,.cls-39,.cls-42,.cls-49,.cls-52,.cls-66,.cls-69,.cls-72,.cls-75{mix-blend-mode:color-dodge;}.cls-15{fill:url(#radial-gradient-2);}.cls-16{fill:url(#radial-gradient-3);}.cls-17{fill:url(#radial-gradient-4);}.cls-18{fill:url(#radial-gradient-5);}.cls-19{fill:url(#radial-gradient-6);}.cls-20{fill:url(#radial-gradient-7);}.cls-21{fill:url(#radial-gradient-8);}.cls-22{fill:url(#radial-gradient-9);}.cls-23{fill:url(#radial-gradient-10);}.cls-24{fill:url(#radial-gradient-11);}.cls-25{fill:url(#radial-gradient-12);}.cls-26{fill:url(#radial-gradient-13);}.cls-27{fill:url(#radial-gradient-14);}.cls-28{fill:url(#radial-gradient-15);}.cls-29{fill:url(#radial-gradient-16);}.cls-30{fill:url(#radial-gradient-17);}.cls-31{fill:url(#radial-gradient-18);}.cls-32{fill:url(#radial-gradient-19);}.cls-33{fill:url(#radial-gradient-20);}.cls-34{fill:url(#radial-gradient-21);}.cls-35{fill:url(#radial-gradient-22);}.cls-36{fill:url(#radial-gradient-23);}.cls-37{fill:url(#radial-gradient-24);}.cls-38{fill:url(#radial-gradient-25);}.cls-39{fill:url(#radial-gradient-26);}.cls-40{fill:url(#radial-gradient-27);}.cls-41{fill:url(#radial-gradient-28);}.cls-42{fill:url(#radial-gradient-29);}.cls-43{fill:url(#radial-gradient-30);}.cls-44{opacity:0.7;}.cls-45{stroke:url(#linear-gradient-7);}.cls-46{stroke:url(#linear-gradient-8);}.cls-47{stroke:url(#linear-gradient-9);}.cls-48{fill:url(#radial-gradient-31);}.cls-49{fill:url(#radial-gradient-32);}.cls-50{fill:url(#radial-gradient-33);}.cls-51{fill:url(#radial-gradient-34);}.cls-52{fill:url(#radial-gradient-35);}.cls-53{fill:url(#radial-gradient-36);}.cls-54{fill:url(#linear-gradient-10);}.cls-55{fill:#d41c59;}.cls-56{fill:#27316c;}.cls-57{fill:url(#linear-gradient-11);}.cls-58{fill:#fff;}.cls-59{clip-path:url(#clip-path-3);}.cls-60{clip-path:url(#clip-path-4);}.cls-61{stroke:url(#linear-gradient-12);}.cls-62{stroke:url(#linear-gradient-13);}.cls-63{stroke:url(#linear-gradient-14);}.cls-64{stroke:url(#linear-gradient-15);}.cls-65{fill:url(#radial-gradient-37);}.cls-66{fill:url(#radial-gradient-38);}.cls-67{fill:url(#radial-gradient-39);}.cls-68{fill:url(#radial-gradient-40);}.cls-69{fill:url(#radial-gradient-41);}.cls-70{fill:url(#radial-gradient-42);}.cls-71{fill:url(#radial-gradient-43);}.cls-72{fill:url(#radial-gradient-44);}.cls-73{fill:url(#radial-gradient-45);}.cls-74{fill:url(#radial-gradient-46);}.cls-75{fill:url(#radial-gradient-47);}.cls-76{fill:url(#radial-gradient-48);}</style><clipPath id="clip-path"><rect class="cls-1" x="414.43" y="38.72" width="450" height="215" rx="35.49" ry="35.49"/></clipPath><clipPath id="clip-path-2"><rect class="cls-1" x="340.03" y="2.86" width="604.5" height="403"/></clipPath><linearGradient id="linear-gradient" x1="-1190.64" y1="-1716.57" x2="-1190.64" y2="-1659.7" gradientTransform="translate(-1400.86 1432.71) rotate(90)" gradientUnits="userSpaceOnUse"><stop offset="0" stop-color="#fff" stop-opacity="0"/><stop offset="0.22" stop-color="#fffcfe" stop-opacity="0.01"/><stop offset="0.36" stop-color="#fdf2f9" stop-opacity="0.05"/><stop offset="0.48" stop-color="#fae1f1" stop-opacity="0.12"/><stop offset="0.59" stop-color="#f7c9e5" stop-opacity="0.22"/><stop offset="0.69" stop-color="#f2aad7" stop-opacity="0.35"/><stop offset="0.79" stop-color="#ec84c4" stop-opacity="0.5"/><stop offset="0.88" stop-color="#e657af" stop-opacity="0.69"/><stop offset="0.96" stop-color="#de2496" stop-opacity="0.89"/><stop offset="1" stop-color="#da0a8a"/></linearGradient><linearGradient id="linear-gradient-2" x1="-1239.05" y1="-1716.57" x2="-1239.05" y2="-1659.7" xlink:href="#linear-gradient"/><linearGradient id="linear-gradient-3" x1="-1166.43" y1="-1674.65" x2="-1166.43" y2="-1617.78" xlink:href="#linear-gradient"/><linearGradient id="linear-gradient-4" x1="-1287.46" y1="-1716.57" x2="-1287.46" y2="-1659.7" xlink:href="#linear-gradient"/><linearGradient id="linear-gradient-5" x1="-1263.25" y1="-1674.52" x2="-1263.25" y2="-1617.77" xlink:href="#linear-gradient"/><linearGradient id="linear-gradient-6" x1="-1190.64" y1="-1632.72" x2="-1190.64" y2="-1590.31" xlink:href="#linear-gradient"/><radialGradient id="radial-gradient" cx="-1287.46" cy="-1660.19" r="1.19" gradientTransform="translate(-1400.86 1432.71) rotate(90)" gradientUnits="userSpaceOnUse"><stop offset="0" stop-color="#fff"/><stop offset="1"/></radialGradient><radialGradient id="radial-gradient-2" cx="-1287.46" cy="-1660.19" r="0.71" xlink:href="#radial-gradient"/><radialGradient id="radial-gradient-3" cx="-1287.46" cy="-1660.19" r="2.38" gradientTransform="translate(-1400.86 1432.71) rotate(90)" gradientUnits="userSpaceOnUse"><stop offset="0" stop-color="#a75ca4"/><stop offset="1"/></radialGradient><radialGradient id="radial-gradient-4" cx="-1239.05" cy="-1660.19" r="1.19" xlink:href="#radial-gradient"/><radialGradient id="radial-gradient-5" cx="-1239.05" cy="-1660.19" r="0.71" xlink:href="#radial-gradient"/><radialGradient id="radial-gradient-6" cx="-1239.05" cy="-1660.19" r="2.38" xlink:href="#radial-gradient-3"/><radialGradient id="radial-gradient-7" cx="-1190.64" cy="-1660.19" r="1.19" xlink:href="#radial-gradient"/><radialGradient id="radial-gradient-8" cx="-1190.64" cy="-1660.19" r="0.71" xlink:href="#radial-gradient"/><radialGradient id="radial-gradient-9" cx="-1190.64" cy="-1660.19" r="2.38" xlink:href="#radial-gradient-3"/><radialGradient id="radial-gradient-10" cx="-1287.46" cy="-1632.23" r="1.19" xlink:href="#radial-gradient"/><radialGradient id="radial-gradient-11" cx="-1287.46" cy="-1632.24" r="0.71" xlink:href="#radial-gradient"/><radialGradient id="radial-gradient-12" cx="-1287.46" cy="-1632.23" r="2.38" xlink:href="#radial-gradient-3"/><radialGradient id="radial-gradient-13" cx="-1239.05" cy="-1632.23" r="1.19" xlink:href="#radial-gradient"/><radialGradient id="radial-gradient-14" cx="-1239.05" cy="-1632.24" r="0.71" xlink:href="#radial-gradient"/><radialGradient id="radial-gradient-15" cx="-1239.05" cy="-1632.23" r="2.38" xlink:href="#radial-gradient-3"/><radialGradient id="radial-gradient-16" cx="-1190.64" cy="-1632.23" r="1.19" xlink:href="#radial-gradient"/><radialGradient id="radial-gradient-17" cx="-1190.64" cy="-1632.24" r="0.71" xlink:href="#radial-gradient"/><radialGradient id="radial-gradient-18" cx="-1190.64" cy="-1632.23" r="2.38" xlink:href="#radial-gradient-3"/><radialGradient id="radial-gradient-19" cx="-1263.96" cy="-1618.26" r="1.19" xlink:href="#radial-gradient"/><radialGradient id="radial-gradient-20" cx="-1263.96" cy="-1618.26" r="0.71" xlink:href="#radial-gradient"/><radialGradient id="radial-gradient-21" cx="-1263.96" cy="-1618.26" r="2.38" xlink:href="#radial-gradient-3"/><radialGradient id="radial-gradient-22" cx="-1214.87" cy="-1618.26" r="1.19" xlink:href="#radial-gradient"/><radialGradient id="radial-gradient-23" cx="-1214.87" cy="-1618.26" r="0.71" xlink:href="#radial-gradient"/><radialGradient id="radial-gradient-24" cx="-1214.87" cy="-1618.26" r="2.38" xlink:href="#radial-gradient-3"/><radialGradient id="radial-gradient-25" cx="-1166.43" cy="-1618.26" r="1.19" xlink:href="#radial-gradient"/><radialGradient id="radial-gradient-26" cx="-1166.43" cy="-1618.26" r="0.71" xlink:href="#radial-gradient"/><radialGradient id="radial-gradient-27" cx="-1166.43" cy="-1618.26" r="2.38" xlink:href="#radial-gradient-3"/><radialGradient id="radial-gradient-28" cx="-1166.43" cy="-1590.38" r="1.19" xlink:href="#radial-gradient"/><radialGradient id="radial-gradient-29" cx="-1166.43" cy="-1590.38" r="0.71" xlink:href="#radial-gradient"/><radialGradient id="radial-gradient-30" cx="-1166.43" cy="-1590.38" r="2.38" xlink:href="#radial-gradient-3"/><linearGradient id="linear-gradient-7" x1="-1381.16" y1="-2048.29" x2="-1381.16" y2="-1991.42" gradientTransform="translate(-1731.26 1406.38) rotate(90)" xlink:href="#linear-gradient"/><linearGradient id="linear-gradient-8" x1="-1429.57" y1="-2048.29" x2="-1429.57" y2="-1991.42" gradientTransform="translate(-1731.26 1406.38) rotate(90)" xlink:href="#linear-gradient"/><linearGradient id="linear-gradient-9" x1="-1405.47" y1="-2006.36" x2="-1405.47" y2="-1963.95" gradientTransform="translate(-1731.26 1406.38) rotate(90)" xlink:href="#linear-gradient"/><radialGradient id="radial-gradient-31" cx="-1381.16" cy="-1992.01" r="1.19" gradientTransform="translate(-1731.26 1406.38) rotate(90)" xlink:href="#radial-gradient"/><radialGradient id="radial-gradient-32" cx="-1381.16" cy="-1992.01" r="0.71" gradientTransform="translate(-1731.26 1406.38) rotate(90)" xlink:href="#radial-gradient"/><radialGradient id="radial-gradient-33" cx="-1381.16" cy="-1992.01" r="2.38" gradientTransform="translate(-1731.26 1406.38) rotate(90)" xlink:href="#radial-gradient-3"/><radialGradient id="radial-gradient-34" cx="-1405.4" cy="-1950.08" r="1.19" gradientTransform="translate(-1731.26 1406.38) rotate(90)" xlink:href="#radial-gradient"/><radialGradient id="radial-gradient-35" cx="-1405.4" cy="-1950.08" r="0.71" gradientTransform="translate(-1731.26 1406.38) rotate(90)" xlink:href="#radial-gradient"/><radialGradient id="radial-gradient-36" cx="-1405.4" cy="-1950.08" r="2.38" gradientTransform="translate(-1731.26 1406.38) rotate(90)" xlink:href="#radial-gradient-3"/><linearGradient id="linear-gradient-10" x1="87.58" y1="2825.9" x2="95.06" y2="2755.18" gradientTransform="translate(0 -2623.89)" gradientUnits="userSpaceOnUse"><stop offset="0" stop-color="#102b4e"/><stop offset="1" stop-color="#d41c59"/></linearGradient><linearGradient id="linear-gradient-11" x1="119.34" y1="2710.64" x2="310.55" y2="2710.64" gradientTransform="matrix(1, 0.04, -0.04, 1, 26, -2635.21)" xlink:href="#linear-gradient-10"/><clipPath id="clip-path-3"><rect class="cls-1" x="414.43" y="309.14" width="450" height="215" rx="35.49" ry="35.49"/></clipPath><clipPath id="clip-path-4"><rect class="cls-1" x="340.03" y="273.29" width="604.5" height="403"/></clipPath><linearGradient id="linear-gradient-12" x1="-1110.74" y1="-2048.29" x2="-1110.74" y2="-1991.42" gradientTransform="translate(-1731.26 1406.38) rotate(90)" xlink:href="#linear-gradient"/><linearGradient id="linear-gradient-13" x1="-1159.15" y1="-2048.29" x2="-1159.15" y2="-1991.42" gradientTransform="translate(-1731.26 1406.38) rotate(90)" xlink:href="#linear-gradient"/><linearGradient id="linear-gradient-14" x1="-1207.56" y1="-2048.17" x2="-1207.56" y2="-1991.42" gradientTransform="translate(-1731.26 1406.38) rotate(90)" xlink:href="#linear-gradient"/><linearGradient id="linear-gradient-15" x1="-1135.05" y1="-2006.36" x2="-1135.05" y2="-1963.95" gradientTransform="translate(-1731.26 1406.38) rotate(90)" xlink:href="#linear-gradient"/><radialGradient id="radial-gradient-37" cx="-1207.56" cy="-1992.01" r="1.19" gradientTransform="translate(-1731.26 1406.38) rotate(90)" xlink:href="#radial-gradient"/><radialGradient id="radial-gradient-38" cx="-1207.56" cy="-1992.01" r="0.71" gradientTransform="translate(-1731.26 1406.38) rotate(90)" xlink:href="#radial-gradient"/><radialGradient id="radial-gradient-39" cx="-1207.56" cy="-1992.01" r="2.38" gradientTransform="translate(-1731.26 1406.38) rotate(90)" xlink:href="#radial-gradient-3"/><radialGradient id="radial-gradient-40" cx="-1159.15" cy="-1992.01" r="1.19" gradientTransform="translate(-1731.26 1406.38) rotate(90)" xlink:href="#radial-gradient"/><radialGradient id="radial-gradient-41" cx="-1159.15" cy="-1992.01" r="0.71" gradientTransform="translate(-1731.26 1406.38) rotate(90)" xlink:href="#radial-gradient"/><radialGradient id="radial-gradient-42" cx="-1159.15" cy="-1992.01" r="2.38" gradientTransform="translate(-1731.26 1406.38) rotate(90)" xlink:href="#radial-gradient-3"/><radialGradient id="radial-gradient-43" cx="-1159.15" cy="-1964.06" r="1.19" gradientTransform="translate(-1731.26 1406.38) rotate(90)" xlink:href="#radial-gradient"/><radialGradient id="radial-gradient-44" cx="-1159.15" cy="-1964.06" r="0.71" gradientTransform="translate(-1731.26 1406.38) rotate(90)" xlink:href="#radial-gradient"/><radialGradient id="radial-gradient-45" cx="-1159.15" cy="-1964.06" r="2.38" gradientTransform="translate(-1731.26 1406.38) rotate(90)" xlink:href="#radial-gradient-3"/><radialGradient id="radial-gradient-46" cx="-1134.97" cy="-1950.08" r="1.19" gradientTransform="translate(-1731.26 1406.38) rotate(90)" xlink:href="#radial-gradient"/><radialGradient id="radial-gradient-47" cx="-1134.97" cy="-1950.08" r="0.71" gradientTransform="translate(-1731.26 1406.38) rotate(90)" xlink:href="#radial-gradient"/><radialGradient id="radial-gradient-48" cx="-1134.97" cy="-1950.08" r="2.38" gradientTransform="translate(-1731.26 1406.38) rotate(90)" xlink:href="#radial-gradient-3"/></defs><title>15 - tasvire darbare</title><g class="cls-2"><g id="Layer_1" data-name="Layer 1"><g class="cls-3"><g class="cls-4"><g class="cls-5"><polygon class="cls-6" points="273.3 266.28 259.33 242.08 273.3 217.87 301.25 217.87 315.23 242.08 301.25 266.28 273.3 266.28"/><polygon class="cls-7" points="273.3 217.87 259.33 193.67 273.3 169.46 301.25 169.46 315.23 193.67 301.25 217.87 273.3 217.87"/><polygon class="cls-8" points="231.38 290.49 217.4 266.28 231.38 242.08 259.33 242.08 273.3 266.28 259.33 290.49 231.38 290.49"/><polygon class="cls-9" points="273.3 169.46 259.33 145.26 273.3 121.05 301.25 121.05 315.23 145.26 301.25 169.46 273.3 169.46"/><polyline class="cls-10" points="259.33 193.67 231.38 193.67 217.4 169.46 231.38 145.26 259.33 145.26 273.3 169.46"/><polyline class="cls-11" points="189.45 217.87 217.4 217.87 231.38 242.08 217.4 266.28 189.45 266.28"/></g><g class="cls-12"><polyline class="cls-13" points="259.33 242.08 273.3 217.87 301.25 217.87 315.23 242.08"/><polyline class="cls-13" points="273.3 169.46 301.25 169.46 315.23 193.67"/><polyline class="cls-13" points="259.33 242.08 273.3 266.28 259.33 290.49 231.38 290.49 217.4 266.28 231.38 242.08"/><polyline class="cls-13" points="273.3 169.46 259.33 145.26 273.3 121.05 301.25 121.05"/><polyline class="cls-13" points="259.33 193.67 231.38 193.67 217.4 169.46 231.38 145.26 259.33 145.26"/><polyline class="cls-13" points="231.38 242.08 217.4 266.28 189.45 266.28"/></g><circle class="cls-14" cx="259.33" cy="145.26" r="1.19"/><circle class="cls-15" cx="259.33" cy="145.26" r="0.71"/><circle class="cls-16" cx="259.33" cy="145.26" r="2.38"/><circle class="cls-17" cx="259.33" cy="193.67" r="1.19"/><circle class="cls-18" cx="259.33" cy="193.67" r="0.71"/><circle class="cls-19" cx="259.33" cy="193.67" r="2.38"/><circle class="cls-20" cx="259.33" cy="242.08" r="1.19"/><circle class="cls-21" cx="259.33" cy="242.08" r="0.71"/><circle class="cls-22" cx="259.33" cy="242.08" r="2.38"/><circle class="cls-23" cx="231.38" cy="145.26" r="1.19"/><circle class="cls-24" cx="231.38" cy="145.26" r="0.71"/><circle class="cls-25" cx="231.38" cy="145.26" r="2.38"/><circle class="cls-26" cx="231.38" cy="193.67" r="1.19"/><circle class="cls-27" cx="231.38" cy="193.67" r="0.71"/><circle class="cls-28" cx="231.38" cy="193.67" r="2.38"/><circle class="cls-29" cx="231.38" cy="242.08" r="1.19"/><circle class="cls-30" cx="231.38" cy="242.08" r="0.71"/><circle class="cls-31" cx="231.38" cy="242.08" r="2.38"/><circle class="cls-32" cx="217.4" cy="168.76" r="1.19"/><circle class="cls-33" cx="217.4" cy="168.76" r="0.71"/><circle class="cls-34" cx="217.4" cy="168.76" r="2.38"/><circle class="cls-35" cx="217.4" cy="217.84" r="1.19"/><circle class="cls-36" cx="217.4" cy="217.84" r="0.71"/><circle class="cls-37" cx="217.4" cy="217.84" r="2.38"/><circle class="cls-38" cx="217.4" cy="266.28" r="1.19"/><circle class="cls-39" cx="217.4" cy="266.28" r="0.71"/><circle class="cls-40" cx="217.4" cy="266.28" r="2.38"/><circle class="cls-41" cx="189.53" cy="266.28" r="1.19"/><circle class="cls-42" cx="189.53" cy="266.28" r="0.71"/><circle class="cls-43" cx="189.53" cy="266.28" r="2.38"/><g class="cls-44"><g class="cls-5"><polygon class="cls-45" points="274.62 49.42 260.65 25.22 274.62 1.02 302.57 1.02 316.55 25.22 302.57 49.42 274.62 49.42"/><polygon class="cls-46" points="274.62 1.02 260.65 -23.19 274.62 -47.4 302.57 -47.4 316.55 -23.19 302.57 1.02 274.62 1.02"/><polyline class="cls-47" points="232.69 -23.19 260.64 -23.19 274.62 1.02 260.64 25.22"/></g><g class="cls-12"><polygon class="cls-13" points="302.57 1.02 274.62 1.02 260.65 -23.19 274.62 -47.4 302.57 -47.4 316.55 -23.19 302.57 1.02"/></g><circle class="cls-48" cx="260.75" cy="25.22" r="1.19"/><circle class="cls-49" cx="260.75" cy="25.22" r="0.71"/><circle class="cls-50" cx="260.75" cy="25.22" r="2.38"/><circle class="cls-51" cx="218.82" cy="0.99" r="1.19"/><circle class="cls-52" cx="218.82" cy="0.99" r="0.71"/><circle class="cls-53" cx="218.82" cy="0.99" r="2.38"/></g></g></g><path class="cls-54" d="M43.84,196.3l91.29,38.78a6.75,6.75,0,0,0,9.49-6.29l-.21-99.64a6.65,6.65,0,0,0-4.13-6.19L49,84.18a6.75,6.75,0,0,0-9.49,6.29l.21,99.74A6.41,6.41,0,0,0,43.84,196.3Z"/><path class="cls-55" d="M42.5,195.78l91.29,38.78a6.75,6.75,0,0,0,9.49-6.29l-.21-99.74a6.65,6.65,0,0,0-4.13-6.19L47.66,83.56a6.75,6.75,0,0,0-9.49,6.29l.21,99.74A6.45,6.45,0,0,0,42.5,195.78Z"/><path class="cls-1" d="M204.44,170.1c-.1.1-.21.1-.21.21C204.44,170.2,204.44,170.1,204.44,170.1Z"/><path class="cls-56" d="M217.54,154.21c10-12.69,12.79-30.74,13.51-43.94-15.88,25.37-39.2,44.56-64.67,66.53-19.19,16.92-15.27,27.64-14.34,41.26,3.09-12.27,9.28-21.56,21.35-29.29,12.38-7.94,20.84-12.48,28.16-17.12A138.55,138.55,0,0,0,217.54,154.21Z"/><path class="cls-55" d="M209.08,166.9c.1-.1.21-.1.21-.21a123.3,123.3,0,0,0,18.88-18.15c15.88-18.26,13.72-49.2,13.1-55.91a129.15,129.15,0,0,1-9,17.12c-.62,13.31-3.4,31.87-13.62,44.87a141.07,141.07,0,0,1-13.2,14.75l-.1.1c1.13-.72,2.17-1.55,3.3-2.37C208.77,167.21,209,167,209.08,166.9Z"/><path class="cls-55" d="M229.3,182c13.92-12,12.79-32.29,12.27-37.13a72.43,72.43,0,0,1-9,12c-.1,8.25-1.65,19.7-8.15,29.09C226,184.64,227.54,183.3,229.3,182Z"/><path class="cls-56" d="M231.26,157c-15.16,16.09-37.86,27.75-60,42.19-16.92,11.24-17.95,23.31-17.43,32.49,3-8.15,13-18.88,23.52-24,20.53-9.9,31.36-11.35,44.56-20.42C229.4,177.83,231.15,165.66,231.26,157Z"/><path class="cls-55" d="M234.25,186.81a49.49,49.49,0,0,1-9.59,7.22,57.79,57.79,0,0,1-6.5,19.19C227.44,207.64,232.7,199.08,234.25,186.81Z"/><path class="cls-56" d="M223.32,194.23c-8,4.64-19.6,9-38.06,14a41.81,41.81,0,0,0-27.13,20.22c24.45-17.54,35.07-7.22,50.13-11.66a42.18,42.18,0,0,0,8.46-3.82A52.07,52.07,0,0,0,223.32,194.23Z"/><path class="cls-57" d="M239.41,83.56C221.15,90.26,176,107.07,151.73,116a11.2,11.2,0,0,1-8.56-.21c-15.68-6.5-70.45-29.09-91.08-37.65a3,3,0,0,1,.31-5.67c20.84-6.19,74.58-22,89.74-26.41a6.16,6.16,0,0,1,3.61.1C157,50,217.33,70.35,239.41,77.78A3.1,3.1,0,0,1,239.41,83.56Z"/><path class="cls-55" d="M239.51,82c-18.26,6.7-63.44,23.52-87.68,32.49a11.2,11.2,0,0,1-8.56-.21c-15.68-6.5-70.45-29.09-91.08-37.65A3,3,0,0,1,52.5,71c20.84-6.19,74.58-22,89.74-26.41a6.16,6.16,0,0,1,3.61.1c11.24,3.82,71.58,24.14,93.66,31.56A3.12,3.12,0,0,1,239.51,82Z"/><path class="cls-58" d="M108.41,114.71c-2.48,4.44-5.67,10.83-9.49,19.19-3.71,8.15-7.22,16.4-10.62,24.65l-9.18-19.6L68.9,116.25,55.8,86.75,47.66,83c-.72-.31-1.65,0-2.37-.1,2,3.71,4.23,8,6.81,13.1C58,107.49,62.51,116.56,65.4,123s6.7,14.54,11.14,24.24c4.44,9.9,7,15.68,7.43,17.43a32.76,32.76,0,0,1,1,6L86.13,185l1.13,14.54A108.93,108.93,0,0,1,87.68,211c-.1,2-.31,3.2-.72,3.61l17.54,7.43c-.1-.41-.21-.83-.31-1.34-.41-2-.93-5.78-1.44-11.35l-1.55-16.92-1.44-18.67c.93-3,4.13-9.59,9.8-19.91l6.09-10.83c2-3.51,4.44-7.53,7.53-12s5.47-7.43,7.22-8.77c1.65-1.13,3.09-2,4.13-2L111.3,109.86A40.12,40.12,0,0,0,108.41,114.71Z"/><g class="cls-59"><g class="cls-60"><g class="cls-44"><g class="cls-5"><polygon class="cls-61" points="274.62 319.85 260.65 295.65 274.62 271.44 302.57 271.44 316.55 295.65 302.57 319.85 274.62 319.85"/><polygon class="cls-62" points="274.62 271.44 260.65 247.24 274.62 223.03 302.57 223.03 316.55 247.24 302.57 271.44 274.62 271.44"/><polyline class="cls-63" points="302.57 223.03 274.62 223.03 260.64 198.83 274.62 174.62 302.57 174.62 316.54 198.83"/><polyline class="cls-64" points="232.69 247.24 260.64 247.24 274.62 271.44 260.64 295.65"/></g><g class="cls-12"><polygon class="cls-13" points="302.57 223.03 274.62 223.03 260.65 198.82 274.62 174.62 302.57 174.62 316.55 198.82 302.57 223.03"/><polygon class="cls-13" points="302.57 271.44 274.62 271.44 260.65 247.24 274.62 223.03 302.57 223.03 316.55 247.24 302.57 271.44"/></g><circle class="cls-65" cx="260.75" cy="198.83" r="1.19"/><circle class="cls-66" cx="260.75" cy="198.83" r="0.71"/><circle class="cls-67" cx="260.75" cy="198.83" r="2.38"/><circle class="cls-68" cx="260.75" cy="247.24" r="1.19"/><circle class="cls-69" cx="260.75" cy="247.24" r="0.71"/><circle class="cls-70" cx="260.75" cy="247.24" r="2.38"/><circle class="cls-71" cx="232.8" cy="247.24" r="1.19"/><circle class="cls-72" cx="232.8" cy="247.24" r="0.71"/><circle class="cls-73" cx="232.8" cy="247.24" r="2.38"/><circle class="cls-74" cx="218.82" cy="271.41" r="1.19"/><circle class="cls-75" cx="218.82" cy="271.41" r="0.71"/><circle class="cls-76" cx="218.82" cy="271.41" r="2.38"/></g></g></g></g></g></svg>