<svg id="Layer_1" data-name="Layer 1" xmlns="http://www.w3.org/2000/svg" xmlns:xlink="http://www.w3.org/1999/xlink" viewBox="0 0 210 210"><defs><style>.cls-1{fill:url(#linear-gradient);}.cls-2{fill:#d41c58;}.cls-3{fill:none;}.cls-4{fill:#282f6c;}.cls-5{fill:url(#linear-gradient-2);}.cls-6{fill:#fff;}</style><linearGradient id="linear-gradient" x1="-382.22" y1="-92.69" x2="-374.66" y2="-164.14" gradientTransform="translate(432.18 260.29)" gradientUnits="userSpaceOnUse"><stop offset="0" stop-color="#102b4e"/><stop offset="1" stop-color="#d41c58"/></linearGradient><linearGradient id="linear-gradient-2" x1="-484.92" y1="8.57" x2="-291.73" y2="8.57" gradientTransform="translate(497.11 50.79) rotate(2.01)" xlink:href="#linear-gradient"/></defs><title>2 - logo 210.210</title><path class="cls-1" d="M5.8,161.83,98,201a6.93,6.93,0,0,0,9.66-6.36l-.24-100.74a6.9,6.9,0,0,0-4.21-6.33L11,48.41a6.93,6.93,0,0,0-9.66,6.36L1.59,155.5A6.9,6.9,0,0,0,5.8,161.83Z"/><path class="cls-2" d="M4.45,161.32l92.2,39.2a6.93,6.93,0,0,0,9.66-6.36l-.24-100.74a6.9,6.9,0,0,0-4.21-6.33L9.66,47.89A6.93,6.93,0,0,0,0,54.25L.24,155A6.9,6.9,0,0,0,4.45,161.32Z"/><path class="cls-3" d="M164.2,138.62l-.12.12c1.1-.75,2.18-1.53,3.28-2.34C166.31,137.16,165.26,137.9,164.2,138.62Z"/><path class="cls-3" d="M170.62,132.49l-.24.18Z"/><path class="cls-4" d="M183.58,116.53c10.45-13.21,13.42-32.07,14-45.82C181,97.2,156.73,117.14,130.1,140.13c-20,17.65-15.92,28.83-15,43.11,3.28-12.81,9.71-22.55,22.23-30.53,12.94-8.25,21.77-13,29.4-17.89A147.59,147.59,0,0,0,183.58,116.53Z"/><path class="cls-2" d="M174.75,129.76l.26-.19c5.9-4.47,12-10.07,19.69-18.9,16.54-19,14.36-51.34,13.66-58.38A139,139,0,0,1,199,70.19c-.58,13.9-3.52,33.26-14.23,46.79A162.8,162.8,0,0,1,171,132.42l-.12.12c1.13-.78,2.26-1.58,3.39-2.42Z"/><path class="cls-2" d="M196.76,145c14.72-12.67,13.49-34.11,13-39.14a75.8,75.8,0,0,1-9.54,12.62c-.11,8.71-1.74,20.81-8.64,30.68C193.28,147.86,195,146.49,196.76,145Z"/><path class="cls-4" d="M198.84,118.7c-16,17-40,29.3-63.39,44.49-17.87,11.83-19,24.67-18.4,34.27,3.09-8.6,13.75-20,24.88-25.33,21.72-10.44,33.09-11.9,47-21.5C196.85,140.68,198.7,127.85,198.84,118.7Z"/><path class="cls-2" d="M202,150.19a52.1,52.1,0,0,1-10.12,7.62A58.42,58.42,0,0,1,185,178C194.79,172.18,200.46,163.18,202,150.19Z"/><path class="cls-4" d="M190.44,158c-8.49,4.9-20.69,9.52-40.13,14.85a44.2,44.2,0,0,0-28.68,21.38c25.79-18.5,37-7.69,53-12.25a48.44,48.44,0,0,0,8.94-4A58.28,58.28,0,0,0,190.44,158Z"/><path class="cls-5" d="M203.42,47.87l-88.58,32.9a11.86,11.86,0,0,1-8.67-.16l-92-38a3,3,0,0,1,.3-5.73l90.62-26.68a6,6,0,0,1,3.64.07l94.61,31.88A3,3,0,0,1,203.42,47.87Z"/><path class="cls-2" d="M203.48,46.33,114.9,79.23a11.86,11.86,0,0,1-8.67-.16l-92-38a3,3,0,0,1,.3-5.73L105.14,8.65a6,6,0,0,1,3.64.07L203.39,40.6A3,3,0,0,1,203.48,46.33Z"/><path class="cls-6" d="M71,79.4q-3.76,6.82-9.5,19.3T50.82,123.55l-9.24-19.76L31.23,80.92,18.15,51.5,9.66,47.89a7,7,0,0,0-2.25-.53q3,5.57,6.87,13.18Q23.22,78,27.76,87.69T39,112.22c4.52,9.94,7,15.84,7.53,17.66a32.88,32.88,0,0,1,1,6.07l1.13,14.44,1.08,14.69a114,114,0,0,1,.43,11.67c-.1,2-.36,3.21-.76,3.7L67.16,188c-.12-.42-.24-.86-.35-1.34a99.34,99.34,0,0,1-1.44-11.5L63.87,158l-1.48-18.91c.9-3,4.18-9.68,9.9-20.12l6.12-11q2.95-5.27,7.54-12.07T93.28,87a7.9,7.9,0,0,1,4-1.89L73.55,75.06C72.78,76.3,71.95,77.75,71,79.4Z"/></svg>