<svg id="Layer_1" data-name="Layer 1" xmlns="http://www.w3.org/2000/svg" viewBox="0 0 19 19"><defs><style>.cls-1,.cls-2{fill:#fff;}.cls-1{fill-rule:evenodd;}</style></defs><title>3 - icon gozareshat</title><path class="cls-1" d="M1.78,0H14.84a1.78,1.78,0,0,1,1.78,1.78V3h.59A1.78,1.78,0,0,1,19,4.75V16.62A2.38,2.38,0,0,1,16.63,19H2.38A2.38,2.38,0,0,1,0,16.62V1.78A1.78,1.78,0,0,1,1.78,0ZM1.19,16.62a1.19,1.19,0,0,0,1.19,1.19H16.63a1.19,1.19,0,0,0,1.19-1.19V4.75a.59.59,0,0,0-.59-.59h-.59V16a.59.59,0,0,1-1.19,0V1.78a.59.59,0,0,0-.59-.59H1.78a.59.59,0,0,0-.59.59Zm0,0"/><path class="cls-1" d="M7.42,7.72H2.67a.3.3,0,0,1,0-.59H7.42a.3.3,0,1,1,0,.59Zm0,0"/><path class="cls-1" d="M7.42,5.94H2.67a.3.3,0,0,1,0-.59H7.42a.3.3,0,0,1,0,.59Zm0,0"/><path class="cls-1" d="M7.42,4.16H2.67a.3.3,0,0,1,0-.59H7.42a.3.3,0,0,1,0,.59Zm0,0"/><path class="cls-1" d="M9.2,16H14a.3.3,0,1,1,0,.59H9.2a.3.3,0,1,1,0-.59Zm0,0"/><path class="cls-1" d="M9.2,14.25H14a.3.3,0,1,1,0,.59H9.2a.3.3,0,1,1,0-.59Zm0,0"/><path class="cls-1" d="M9.2,12.47H14a.3.3,0,1,1,0,.59H9.2a.3.3,0,1,1,0-.59Zm0,0"/><path class="cls-1" d="M2.67,16H7.42a.3.3,0,1,1,0,.59H2.67a.3.3,0,0,1,0-.59Zm0,0"/><path class="cls-1" d="M2.67,14.25H7.42a.3.3,0,1,1,0,.59H2.67a.3.3,0,0,1,0-.59Zm0,0"/><path class="cls-1" d="M2.67,12.47H7.42a.3.3,0,1,1,0,.59H2.67a.3.3,0,0,1,0-.59Zm0,0"/><path class="cls-1" d="M2.67,8.91H14a.3.3,0,1,1,0,.59H2.67a.3.3,0,0,1,0-.59Zm0,0"/><path class="cls-1" d="M2.67,10.69H14a.3.3,0,1,1,0,.59H2.67a.3.3,0,0,1,0-.59Zm0,0"/><rect class="cls-2" x="8.91" y="2.38" width="5.35" height="5.34" rx="0.59" ry="0.59"/></svg>