<svg id="Layer_1" data-name="Layer 1" xmlns="http://www.w3.org/2000/svg" viewBox="0 0 19 19"><defs><style>.cls-1,.cls-2{fill:#fff;}.cls-1{stroke:#fff;stroke-miterlimit:10;stroke-width:0.5px;}</style></defs><title>3 - icon sharzhe kife pool</title><path class="cls-1" d="M18.62,8.87h-.88V4.8A1.77,1.77,0,0,0,16,3h-1.2L13.55.83A1.06,1.06,0,0,0,12.1.42L7.4,3H2.15A1.77,1.77,0,0,0,.38,4.8V16.95a1.77,1.77,0,0,0,1.77,1.77H16a1.77,1.77,0,0,0,1.77-1.77V13.38h.88ZM16,3.74a1.06,1.06,0,0,1,1,.94H15.69l-.52-.94ZM12.45,1a.36.36,0,0,1,.48.14l2,3.51h-9ZM17,16.95A1.06,1.06,0,0,1,16,18H2.15a1.06,1.06,0,0,1-1.06-1.06V4.8A1.06,1.06,0,0,1,2.15,3.74h4l-1.7.94H2.37a.35.35,0,1,0,0,.71H17V8.87H14.44A2.18,2.18,0,0,0,12.27,11v.15a2.18,2.18,0,0,0,2.18,2.18H17Zm.88-4.27H14.44A1.47,1.47,0,0,1,13,11.2V11a1.47,1.47,0,0,1,1.47-1.47h3.47Zm-2.39-1.52a.78.78,0,1,1-.78-.78.78.78,0,0,1,.78.78Zm0,0"/><path class="cls-2" d="M13,.83l2.4,4.12H5L12.33.66S12.91.42,13,.83Z"/></svg>