<svg id="Layer_1" data-name="Layer 1" xmlns="http://www.w3.org/2000/svg" viewBox="0 0 19 19"><defs><style>.cls-1{fill:#fff;}</style></defs><title>3 - icon khorooj</title><path class="cls-1" d="M18.6,8.1a.62.62,0,0,0-.12-.18l-4-4a.58.58,0,0,0-1,.41.57.57,0,0,0,.17.41l3,3H10A.58.58,0,0,0,10,8.9h6.67l-3,3a.58.58,0,0,0,.82.82l4-4a.61.61,0,0,0,.12-.18h0A.59.59,0,0,0,18.6,8.1Z"/><path class="cls-1" d="M12.36,9.76a.58.58,0,0,0-.58.58v5.13H8.9V2.95a.57.57,0,0,0-.4-.55L4.66,1.17h7.12V6.31a.58.58,0,0,0,1.16,0V.59A.58.58,0,0,0,12.36,0H.87L.79,0,.67.08.51.2a.61.61,0,0,0-.13.2.61.61,0,0,0,0,.2V16.05a.52.52,0,0,0,0,.19l0,.06a.55.55,0,0,0,.1.14l0,0,.1.07L8.16,19l.17,0a.59.59,0,0,0,.34-.11.58.58,0,0,0,.24-.47V16.63h3.45a.58.58,0,0,0,.58-.58V10.34A.58.58,0,0,0,12.36,9.76ZM7.75,3.37V17.61l-6.24-2V1.39Z"/></svg>