<svg id="Layer_1" data-name="Layer 1" xmlns="http://www.w3.org/2000/svg" viewBox="0 0 19 19"><defs><style>.cls-1{fill:#fff;}</style></defs><title>3 - icon faalliat ha</title><path class="cls-1" d="M16.45,7.87a6.8,6.8,0,0,1,.1,1.08v.24l1.72,0V8.93a8.69,8.69,0,0,0-.12-1.35l0-.24-1.69.29Z"/><path class="cls-1" d="M16.55,11.09a6.71,6.71,0,0,1-.13,1.08l0,.24,1.68.34,0-.24a8.33,8.33,0,0,0,.17-1.35v-.24l-1.71-.07Z"/><path class="cls-1" d="M18,5.73a.21.21,0,0,0,.14-.06.2.2,0,0,0,.05-.12V1.8a.18.18,0,0,0-.12-.17h0a.18.18,0,0,0-.2,0l-1,1-.18-.16A9.46,9.46,0,1,0,17,16.2a1.23,1.23,0,0,0-.87-2.1h0a1.21,1.21,0,0,0-.86.36,7,7,0,1,1-.34-10.22l.2.18-1,1a.18.18,0,0,0,.13.31Z"/><path class="cls-1" d="M10.21,3.94a.71.71,0,0,0-.71.71V8.94a1.24,1.24,0,0,0,.71,2.25,1.21,1.21,0,0,0,.52-.12l2.46,1.42a.7.7,0,0,0,.35.1.71.71,0,0,0,.35-1.32L11.44,9.84a1.23,1.23,0,0,0-.52-.91V4.65a.71.71,0,0,0-.71-.71Zm0,6.54a.53.53,0,1,1,.53-.53.53.53,0,0,1-.53.53Zm0,0"/></svg>