<svg id="Layer_1" data-name="Layer 1" xmlns="http://www.w3.org/2000/svg" viewBox="0 0 19 19"><defs><style>.cls-1{fill:#d41c58;}</style></defs><title>3 - icon khorooj copy</title><path class="cls-1" d="M18.6,8.1a.76.76,0,0,0-.12-.19l-4-4a.57.57,0,0,0-.82,0,.58.58,0,0,0-.17.41.57.57,0,0,0,.17.41l3,3H10A.58.58,0,0,0,10,8.9h6.67l-3,3a.57.57,0,0,0,0,.82.58.58,0,0,0,.82,0l4-4a.55.55,0,0,0,.13-.18h0A.61.61,0,0,0,18.6,8.1Z"/><path class="cls-1" d="M12.36,9.76a.58.58,0,0,0-.58.58v5.14H8.9V3a.58.58,0,0,0-.4-.56L4.66,1.17h7.12V6.31a.58.58,0,1,0,1.16,0V.59A.58.58,0,0,0,12.36,0H.87L.79,0a.31.31,0,0,0-.12,0L.51.2A.57.57,0,0,0,.39.39a.54.54,0,0,0,0,.2V16.05a.45.45,0,0,0,0,.2l0,.05a.78.78,0,0,0,.1.15l.05,0,.1.07L8.16,19a.45.45,0,0,0,.16,0,.63.63,0,0,0,.35-.11.61.61,0,0,0,.23-.47V16.63h3.46a.58.58,0,0,0,.58-.58V10.34A.58.58,0,0,0,12.36,9.76ZM7.75,3.37V17.61l-6.24-2V1.39Z"/></svg>