<svg id="Layer_1" data-name="Layer 1" xmlns="http://www.w3.org/2000/svg" viewBox="0 0 20 20"><defs><style>.cls-1{fill:#fff;}</style></defs><title>3 - meno</title><path class="cls-1" d="M19,17.26H5.63a1,1,0,0,1,0-2H19a1,1,0,0,1,0,2Zm0,0"/><path class="cls-1" d="M19,11H5.63a1,1,0,0,1,0-2H19a1,1,0,0,1,0,2Zm0,0"/><path class="cls-1" d="M19,4.73H5.63a1,1,0,0,1,0-2H19a1,1,0,0,1,0,2Zm0,0"/><path class="cls-1" d="M2.68,3.81A1.34,1.34,0,1,1,1.34,2.47,1.34,1.34,0,0,1,2.68,3.81Zm0,0"/><path class="cls-1" d="M2.68,10A1.34,1.34,0,1,1,1.34,8.66,1.34,1.34,0,0,1,2.68,10Zm0,0"/><path class="cls-1" d="M2.68,16.19a1.34,1.34,0,1,1-1.34-1.34,1.34,1.34,0,0,1,1.34,1.34Zm0,0"/></svg>