<svg xmlns="http://www.w3.org/2000/svg" viewBox="0 0 70 70"><defs><style>.cls-1,.cls-7{fill:#fff;}.cls-2{isolation:isolate;}.cls-3,.cls-38{fill:#dcb1a1;}.cls-4{fill:#dbc2ae;}.cls-5{fill:#d3ab9b;}.cls-10,.cls-16,.cls-17,.cls-19,.cls-23,.cls-24,.cls-25,.cls-26,.cls-28,.cls-31,.cls-35,.cls-38,.cls-5,.cls-7,.cls-9{fill-rule:evenodd;}.cls-6{fill:#7a7b7d;}.cls-8{fill:#595a5c;}.cls-27,.cls-9{fill:#262525;}.cls-10{fill:#5d5e61;}.cls-11,.cls-28{fill:#131412;}.cls-12{fill:#231f20;}.cls-13{fill:#f7f8f9;}.cls-14,.cls-16{fill:#f6f6f6;}.cls-15{fill:#505052;}.cls-17,.cls-22{fill:#e2e3e4;}.cls-18{opacity:0.39;mix-blend-mode:multiply;}.cls-19,.cls-44{fill:#767679;}.cls-20{fill:#626364;}.cls-21,.cls-26{fill:#959595;}.cls-23{fill:#41535b;}.cls-24,.cls-37{fill:#444545;}.cls-25{fill:#2d3643;}.cls-29{fill:#162744;}.cls-30{fill:#babcbe;}.cls-31{fill:#dcddde;}.cls-32{fill:#1b314b;}.cls-33{fill:#e6cbb7;}.cls-34{fill:#404244;}.cls-35{fill:#babbbe;}.cls-36{fill:#818285;}.cls-39{fill:#d29e91;}.cls-40{fill:#010101;}.cls-41{fill:#e5e5e6;}.cls-42{opacity:0.55;}.cls-43{fill:#e3e6f4;}</style></defs><title>5 - vasileye naghlie 3 motor</title><g class="cls-2"><g id="Layer_1" data-name="Layer 1"><path class="cls-3" d="M38.38,19.74a2.74,2.74,0,0,1,1.19.49c.49.37.43,1.53.43,1.53l2.64.42a8.17,8.17,0,0,1,0-2.44c.22-.87.63-2.15.63-2.15l-2.05-.5Z"/><path class="cls-4" d="M39.67,26.32c-.54,1.35-3.84,3.51-4.05,3.73a6.84,6.84,0,0,1-3.79,1.09l-.67,0c-2,.14-2.89.06-3.18.12s-.77.11-1,.14-.34-.06-.48-.3a.63.63,0,0,0-.78-.19c-.17.15-.36.41-.18.54a1.08,1.08,0,0,1,.28.35.17.17,0,0,1-.21.17.76.76,0,0,1-.63-.39c-.15-.28-.35-.5-.4-.62s.28-.49.57-.86.47-.36.89-.29,1.18.24,1.18.24a17.32,17.32,0,0,0,6.21-1.61c.66-.28,1.08-.49,1.08-.49a11.79,11.79,0,0,0,2.78-2.56Z"/><path class="cls-5" d="M39.67,26.32c-.54,1.35-3.84,3.51-4.05,3.73a6.84,6.84,0,0,1-3.79,1.09l-.67,0q1.19-1.31,2.3-2.7c.66-.28,1.08-.49,1.08-.49a11.79,11.79,0,0,0,2.78-2.56Z"/><path class="cls-6" d="M38.08,27.91l.62.62c1.51-1.39,3.32-4.08,3-5-.47-1.3-1.86-1.22-2.69-.26-.45.52-1,1.36-2,2.67-.11.14-.34.35-.47.51C37,26.94,37.61,27.42,38.08,27.91Z"/><path class="cls-7" d="M23.11,32h.79a1,1,0,0,0,1-1h0a1,1,0,0,0-1-1h-.79a1,1,0,0,0-1,1h0A1,1,0,0,0,23.11,32Z"/><path class="cls-8" d="M23.11,32.12h.79a1.12,1.12,0,0,0,0-2.24h-.79a1.12,1.12,0,0,0,0,2.24ZM23.9,30a.95.95,0,0,1,0,1.89h-.79a.95.95,0,0,1,0-1.89Z"/><path class="cls-9" d="M27.29,33.18l.79-1.72a.47.47,0,0,0-.26-.64l-1.31-.49a.47.47,0,0,0-.6.25l-.74,1.72a.47.47,0,0,0,.26.63l1.26.49A.47.47,0,0,0,27.29,33.18Z"/><path class="cls-9" d="M26.36,32.59l-1.17.13a.38.38,0,0,1-.35-.16L24.48,32a.38.38,0,0,1,0-.37l.58-1.3a.38.38,0,0,1,.53-.18l.76.42.42.23a.38.38,0,0,1,.19.41l-.23,1A.38.38,0,0,1,26.36,32.59Z"/><path class="cls-9" d="M26.35,30.57l.59-1.25a.38.38,0,0,1,.5-.18l.8.37a.38.38,0,0,1,.19.49L28,31.09a.38.38,0,0,1-.43.23l-.95-.21A.38.38,0,0,1,26.35,30.57Z"/><path class="cls-9" d="M23.53,32.67h-.68l.4-3.35h.27A1.68,1.68,0,0,1,25.21,31h0A1.68,1.68,0,0,1,23.53,32.67Z"/><path class="cls-10" d="M22.43,32.67h.43l.4-3.35h-.49a.27.27,0,0,0-.27.24l-.34,2.82A.27.27,0,0,0,22.43,32.67Z"/><path class="cls-11" d="M33.08,48.68l.43,2.37a.25.25,0,0,1-.2.29,8.89,8.89,0,0,0-.92.2c-.17,0-.3-.52-.48-.47-.52.14-1.07.62-1.29.65a34.07,34.07,0,0,1-3.54-.31s0-.68.23-.86A10.48,10.48,0,0,1,29,49.93a12.66,12.66,0,0,0,1.46-1s1.38-.21,1.72-.27.61-.09.81-.11A.12.12,0,0,1,33.08,48.68Z"/><path class="cls-7" d="M51,43.5l1.91-.84s2,2.38,1.24,4.49Z"/><path class="cls-8" d="M54.22,47.32l.05-.14C55,45,53.09,42.69,53,42.6l0-.05-2.08.92Zm-1.3-4.56c.27.35,1.78,2.38,1.23,4.21l-3-3.44Z"/><ellipse class="cls-12" cx="18.87" cy="51.85" rx="3.27" ry="3.28" transform="translate(-36.1 47.03) rotate(-64.99)"/><ellipse class="cls-11" cx="18.87" cy="51.85" rx="5.37" ry="5.38" transform="translate(-36.1 47.03) rotate(-64.99)"/><ellipse class="cls-13" cx="18.87" cy="51.85" rx="4.03" ry="4.04" transform="translate(-36.1 47.03) rotate(-64.99)"/><ellipse class="cls-14" cx="18.87" cy="51.85" rx="3.89" ry="3.9" transform="translate(-36.1 47.03) rotate(-64.99)"/><ellipse class="cls-15" cx="18.87" cy="51.85" rx="3.27" ry="3.28" transform="translate(-36.1 47.03) rotate(-64.99)"/><path class="cls-16" d="M16.25,50.06l.62.35a.52.52,0,0,0,.73-.67l-.3-.65a.52.52,0,0,1,.3-.71h0a.52.52,0,0,1,.68.35l.19.69a.52.52,0,0,0,1,0l.25-.67a.52.52,0,0,1,.71-.29h0a.52.52,0,0,1,.23.73l-.35.62a.52.52,0,0,0,.67.73l.65-.3a.52.52,0,0,1,.71.3h0a.52.52,0,0,1-.35.68l-.69.19a.52.52,0,0,0,0,1l.67.25a.52.52,0,0,1,.29.71h0a.52.52,0,0,1-.73.23l-.62-.35a.52.52,0,0,0-.73.67l.3.65a.52.52,0,0,1-.3.71h0a.52.52,0,0,1-.68-.35l-.19-.69a.52.52,0,0,0-1,0l-.25.67a.52.52,0,0,1-.71.29h0a.52.52,0,0,1-.23-.73l.35-.62a.52.52,0,0,0-.67-.73l-.65.3a.52.52,0,0,1-.71-.3h0a.52.52,0,0,1,.35-.68l.69-.19a.52.52,0,0,0,0-1L15.81,51a.52.52,0,0,1-.29-.71h0A.52.52,0,0,1,16.25,50.06Z"/><circle class="cls-11" cx="18.87" cy="51.85" r="1.31" transform="translate(-36.1 47.03) rotate(-64.99)"/><ellipse class="cls-12" cx="46.77" cy="51.85" rx="3.28" ry="3.27"/><ellipse class="cls-11" cx="46.77" cy="51.85" rx="5.38" ry="5.37"/><ellipse class="cls-14" cx="46.77" cy="51.85" rx="4.04" ry="4.03"/><ellipse class="cls-14" cx="46.77" cy="51.85" rx="3.9" ry="3.89"/><ellipse class="cls-15" cx="46.77" cy="51.85" rx="3.28" ry="3.27"/><path class="cls-16" d="M43.64,51.33l.72.06a.52.52,0,0,0,.38-.92L44.19,50a.52.52,0,0,1,0-.77h0a.52.52,0,0,1,.77,0l.47.55a.52.52,0,0,0,.92-.38l-.06-.72a.52.52,0,0,1,.52-.56h0a.52.52,0,0,1,.52.56l-.06.72a.52.52,0,0,0,.92.38l.47-.55a.52.52,0,0,1,.77,0h0a.52.52,0,0,1,0,.77l-.55.47a.52.52,0,0,0,.38.92l.72-.06a.52.52,0,0,1,.56.52h0a.52.52,0,0,1-.56.52l-.72-.06a.52.52,0,0,0-.38.92l.55.47a.52.52,0,0,1,0,.77h0a.52.52,0,0,1-.77,0l-.47-.55a.52.52,0,0,0-.92.38l.06.72a.52.52,0,0,1-.52.56h0a.52.52,0,0,1-.52-.56l.06-.72a.52.52,0,0,0-.92-.38l-.47.55a.52.52,0,0,1-.77,0h0a.52.52,0,0,1,0-.77l.55-.47a.52.52,0,0,0-.38-.92l-.72.06a.52.52,0,0,1-.56-.52h0A.52.52,0,0,1,43.64,51.33Z"/><circle class="cls-11" cx="46.77" cy="51.85" r="1.31"/><rect class="cls-11" x="17.84" y="47.75" width="1.22" height="3.6" transform="translate(25.46 -2.85) rotate(28.05)"/><rect class="cls-11" x="19.4" y="47.3" width="0.53" height="5.29" transform="translate(25.79 -3.38) rotate(28.05)"/><rect class="cls-11" x="19.62" y="43.16" width="1.75" height="5.1" transform="translate(23.9 -4.27) rotate(28.05)"/><path class="cls-17" d="M18.61,52.59a.65.65,0,0,1-.88-.28l-.25-.49-.76-1.47a.66.66,0,1,1,1.17-.6l.68,1.32.33.64A.65.65,0,0,1,18.61,52.59Z"/><path class="cls-1" d="M14.87,45.74s3.46.39,5.26,1.73a3.26,3.26,0,0,1,.56.51c1.49,1.76,3.58,1.7,5.23,1.76a6.14,6.14,0,0,0-.73-4c-1.43-2.28-3.69-3-6.51-2.67l-.47.08A4.79,4.79,0,0,0,14.87,45.74Z"/><path class="cls-8" d="M26,49.83v-.07a6.29,6.29,0,0,0-.75-4.08c-1.37-2.18-3.52-3.06-6.59-2.71l-.48.08a4.92,4.92,0,0,0-3.39,2.66l0,.11h.12s3.46.4,5.21,1.71a3.15,3.15,0,0,1,.54.5c1.42,1.68,3.39,1.73,5,1.78ZM19.9,43.07a5.69,5.69,0,0,1,5.21,2.71,6.07,6.07,0,0,1,.73,3.88h-.25c-1.63,0-3.47-.1-4.84-1.71a3.33,3.33,0,0,0-.57-.53A12.79,12.79,0,0,0,15,45.67a4.75,4.75,0,0,1,3.22-2.45l.46-.07A10.78,10.78,0,0,1,19.9,43.07Z"/><g class="cls-18"><path class="cls-19" d="M18.2,43.13c.49,1.15,1.19,2.73,1.93,4.34a3.26,3.26,0,0,1,.56.51c1.49,1.76,3.58,1.7,5.23,1.76a6.14,6.14,0,0,0-.73-4c-1.43-2.28-3.69-3-6.51-2.67Z"/></g><circle class="cls-12" cx="41.39" cy="52.2" r="0.98"/><circle class="cls-11" cx="41.39" cy="52.2" r="1.96"/><circle class="cls-14" cx="41.39" cy="52.2" r="1.2"/><circle class="cls-20" cx="41.39" cy="52.2" r="0.86"/><circle class="cls-11" cx="41.39" cy="52.2" r="0.39"/><path class="cls-10" d="M22.27,45.33C22.69,49,27,51.62,27,51.62H43.27s-.48-.3.3-2,1.76-2.33-1.56-4.13A15.07,15.07,0,0,0,38.37,44c-1.62-.38-3.62-.18-3.19.69a3.75,3.75,0,0,1,.3.9c.3,1.4,0,3.07-.46,3.07H29.94a3.68,3.68,0,0,1-2.51-1.37,10.77,10.77,0,0,1-1.52-2.11c-.6-1.06-.46-3.24-.11-5.45.21-1.3.5-2.6.76-3.7l.08-.34c.52-2-.55-2.7-1.32-2.93a2.73,2.73,0,0,0-.69-.12h0l-.44,3.95s-.18.39-.44,1C23.09,39.32,22,42.66,22.27,45.33Z"/><g class="cls-18"><path class="cls-21" d="M24.62,42.72c.2,5.15,4.09,6.23,4.09,6.23H39.79L39.5,44c-1.62-.38-4.75-.18-4.31.69a3.78,3.78,0,0,1,.3.9c.3,1.4,0,3.07-.46,3.07H29.94a3.68,3.68,0,0,1-2.51-1.37,10.82,10.82,0,0,1-1.52-2.11c-.94-1.67-.06-6.18.66-9.15A13.24,13.24,0,0,0,24.62,42.72Z"/></g><path class="cls-11" d="M39.44,54.43H44.8v-1H39.54c-.31-.08-3.13-.6-3.13-2.48h-1c0,2.23,2.91,3.22,3.94,3.42Z"/><path class="cls-20" d="M53.22,50.6h0a2.2,2.2,0,0,1-1.7,3.21l-7.37.84a1.13,1.13,0,0,1-1.26-1.13h0a1.13,1.13,0,0,1,.69-1l6.75-2.91A2.26,2.26,0,0,1,53.22,50.6Z"/><path class="cls-22" d="M52.52,51.05h0a1.5,1.5,0,0,1-1.16,2.18l-5,.57A.77.77,0,0,1,45.5,53h0a.77.77,0,0,1,.47-.71l4.59-2A1.54,1.54,0,0,1,52.52,51.05Z"/><path class="cls-9" d="M35,51.65a12.87,12.87,0,0,0,7.24.79,2.36,2.36,0,0,0,1.53-.82c.37-.55.29-1.3.64-1.87.15-.24.37-.43.53-.67a.82.82,0,0,0,.14-.8,1,1,0,0,0-.5-.41A19.64,19.64,0,0,0,41,46.49c-.66-.18-4-1-4.61-.58-.42.34.1,2.24,0,2.87A5.18,5.18,0,0,1,35,51.65Z"/><path class="cls-23" d="M52.88,43.67a34.42,34.42,0,0,0,2,4.13L54,47.3l-2.9-3.45Z"/><path class="cls-7" d="M33.92,50.86a.38.38,0,0,0,0,.18l5.82.55L53,44.25s.44-.63-.4-1.67a9.32,9.32,0,0,0-3.17-2.21,7.62,7.62,0,0,0-1.73-.6,19.07,19.07,0,0,0-2-.33,36.87,36.87,0,0,0-10.48.6l-2,.13a26.42,26.42,0,0,1,1.36,3c.24.63.47,1.31.67,2C35.32,45.52,34,49.9,33.92,50.86Z"/><path class="cls-8" d="M39.77,51.68h0l13.29-7.34v0s.47-.7-.41-1.78a9.59,9.59,0,0,0-3.2-2.23,7.75,7.75,0,0,0-1.75-.61,19.21,19.21,0,0,0-2-.33,37.29,37.29,0,0,0-10.51.6l-2.16.14.07.12a26.61,26.61,0,0,1,1.35,3c.26.69.49,1.36.67,2a22.48,22.48,0,0,1-.63,2.72c-.31,1.21-.64,2.46-.69,2.92a.37.37,0,0,0,0,.23l0,0ZM53,44.19,39.73,51.5,34,51s0,0,0-.09h0c0-.46.37-1.7.68-2.9a14.89,14.89,0,0,0,.62-2.81c-.18-.66-.41-1.34-.67-2a27.58,27.58,0,0,0-1.3-2.88l1.89-.12a37.14,37.14,0,0,1,10.47-.6,19,19,0,0,1,2,.33,7.57,7.57,0,0,1,1.71.59,9.44,9.44,0,0,1,3.14,2.18C53.28,43.53,53,44.09,53,44.19Z"/><g class="cls-18"><path class="cls-19" d="M33.93,51l5.82.55L53,44.25s-12.76,4.12-19.1,6.61A.38.38,0,0,0,33.93,51Z"/></g><path class="cls-19" d="M33.2,40.18l2,5s9.78-3,14.22-4.81a7.62,7.62,0,0,0-1.73-.6c-5.6-1.25-12.49.27-12.49.27Z"/><g class="cls-18"><path class="cls-24" d="M33.2,40.18a26.42,26.42,0,0,1,1.36,3A71.55,71.55,0,0,0,41.78,40Z"/></g><path class="cls-7" d="M19.76,43.08a3.64,3.64,0,0,1,.67.64,23.88,23.88,0,0,1,2.92,5.75,4.75,4.75,0,0,0,1.54,2.08,6.73,6.73,0,0,0,3.25,1.15c1.76.24,8.91.2,10-.56a4,4,0,0,1,1.26-.52l.33-.08c.92-.19-10.44-1.21-12-1.56-1.76-.4-3.83-2.76-4.47-4.59-.42-1.21.37-4.43,1.11-7,.33-1.19.66-2.25.85-2.95l.08-.28c.34-1.29.25-2,0-2.33a.58.58,0,0,0-.69-.12h0a17.79,17.79,0,0,0-2.37,3.49C20.64,39,18.94,42.5,19.76,43.08Z"/><path class="cls-8" d="M31.37,52.91c2.7,0,6.07-.18,6.84-.7a3.87,3.87,0,0,1,1.24-.5l.32-.07c.1,0,.12-.08.12-.12s-.28-.24-6.25-.9c-2.54-.28-5.17-.57-5.84-.72-1.73-.39-3.79-2.76-4.41-4.54-.48-1.37.72-5.6,1.11-7,.18-.65.36-1.27.52-1.8s.24-.83.33-1.15l.08-.28c.4-1.51.2-2.14,0-2.41a.66.66,0,0,0-.77-.15h0l0,0a18.68,18.68,0,0,0-2.39,3.52c-.85,1.46-3.53,6.29-2.48,7h0a3.52,3.52,0,0,1,.65.62,23.53,23.53,0,0,1,2.91,5.73,4.82,4.82,0,0,0,1.57,2.12,6.83,6.83,0,0,0,3.29,1.17A30.35,30.35,0,0,0,31.37,52.91Zm8.12-1.4-.09,0a4,4,0,0,0-1.29.53c-1.07.73-8.16.79-10,.54a6.67,6.67,0,0,1-3.21-1.13,4.65,4.65,0,0,1-1.51-2,23.64,23.64,0,0,0-2.94-5.77,3.69,3.69,0,0,0-.69-.65h0c-.61-.43.39-3.1,2.53-6.8a19.22,19.22,0,0,1,2.31-3.45h0a.5.5,0,0,1,.58.1c.17.19.4.74,0,2.25l-.08.28c-.09.31-.2.7-.33,1.14s-.34,1.15-.52,1.8c-.69,2.44-1.55,5.83-1.11,7.1.65,1.85,2.72,4.24,4.54,4.65.68.15,3.2.43,5.86.73C36,51.06,38.67,51.35,39.5,51.51Z"/><path class="cls-25" d="M33.66,40.74H51.34c2,0,2.22-1.62,3.18-2.75l.17-.21c.42-.54-6.64,0-10-.14-.64,0-1.12-.67-1.77-.71l-.31,0a46.76,46.76,0,0,0-7.09.14,3.57,3.57,0,0,0-2.73,2.23h0A1,1,0,0,0,33.66,40.74Z"/><g class="cls-18"><path class="cls-26" d="M33.66,40.74H51.34c2,0,2.22-1.62,3.18-2.75a91.06,91.06,0,0,1-9.24,1.26c-1.55.17-9.22.09-12.53,0h0A1,1,0,0,0,33.66,40.74Z"/></g><g class="cls-18"><path class="cls-26" d="M33.66,40.74h2.81a20.71,20.71,0,0,0,6.1-3.82,46.76,46.76,0,0,0-7.09.14,3.57,3.57,0,0,0-2.73,2.23h0A1,1,0,0,0,33.66,40.74Z"/></g><path class="cls-27" d="M50.3,52.4l1.62-.25a.13.13,0,0,1,.15.11h0a.13.13,0,0,1-.11.15l-1.62.25a.13.13,0,0,1-.15-.11h0A.13.13,0,0,1,50.3,52.4Z"/><path class="cls-27" d="M50.22,51.88l1.62-.25a.13.13,0,0,1,.15.11h0a.13.13,0,0,1-.11.15l-1.62.25a.13.13,0,0,1-.15-.11h0A.13.13,0,0,1,50.22,51.88Z"/><path class="cls-27" d="M50.14,51.36l1.62-.25a.13.13,0,0,1,.15.11h0a.13.13,0,0,1-.11.15l-1.62.25a.13.13,0,0,1-.15-.11h0A.13.13,0,0,1,50.14,51.36Z"/><path class="cls-28" d="M26.74,31.12a.66.66,0,0,1,.93,0l.92.9a.66.66,0,0,1-.95.91l-.92-.9A.66.66,0,0,1,26.74,31.12Z"/><path class="cls-29" d="M26,31.49S27,29,27.41,28.25s1.32-.61,1.33-.61l0-.33a1.75,1.75,0,0,0-1.66.8c-.38.79-1.44,3.23-1.45,3.25Z"/><rect class="cls-30" x="25.21" y="31.27" width="0.97" height="0.44" transform="translate(51.39 62.97) rotate(180)"/><polygon class="cls-31" points="29.5 26.02 29.09 26.02 28.94 28.66 29.5 28.66 29.5 26.02"/><polygon class="cls-23" points="29.22 25.99 28.41 26.6 28.41 28.69 29.22 28.69 29.22 25.99"/><circle class="cls-11" cx="48.68" cy="52.58" r="0.25"/><circle class="cls-11" cx="46.4" cy="53.06" r="0.25"/><path class="cls-32" d="M44,28.77a49.66,49.66,0,0,1-.47,5.85,5.81,5.81,0,0,1-1.34.23,9,9,0,0,1-1.32,0,10.72,10.72,0,0,1-3.46-1s.16-4.1.42-6.35c.05-.46.09-.94.11-1.42a8.9,8.9,0,0,1,2-4.42,10.9,10.9,0,0,1,2.68-.76c.63.06,1.34,1.87,1.55,2.85S44,25.58,44,28.77Z"/><path class="cls-33" d="M29.64,37.77a17.76,17.76,0,0,0,.43,2.66c.57,2.81,1.55,7,1.74,9.07l1.74-.16s-.23-4.15-.28-6.09a37.5,37.5,0,0,0-.49-4.44l3.42-.6a10.8,10.8,0,0,0-.8-2.22,2.48,2.48,0,0,0-.32-.47,1.61,1.61,0,0,0-1.6-.43L30.35,36A2,2,0,0,0,29.64,37.77Z"/><path class="cls-3" d="M30.07,40.43c.57,2.81,1.55,7,1.74,9.07l1.74-.16s-.23-4.15-.28-6.09a37.5,37.5,0,0,0-.49-4.44l3.42-.6a10.8,10.8,0,0,0-.8-2.22l-4,2.85a3.46,3.46,0,0,0-1.12,1.08A1.94,1.94,0,0,0,30.07,40.43Z"/><path class="cls-34" d="M34.62,39.83c.06,0,6.24-1.24,7.43-1.67s1.49-2.31,1.56-3.85c0,0,0-.08,0-.11l-.38-.08c-1.1-.22-4.31-.78-5.9-.25l-.09,0A23.66,23.66,0,0,0,32,35.36c-.51.19-1.12.31-1.45.46-.7.32-1.66,1.37-.83,4.91,1.07,4.55,1.94,8,1.94,8s.34.29,1.89-.13c0,0-.48-8.18-.39-8.73C33.2,39.92,33.76,39.86,34.62,39.83Z"/><path class="cls-28" d="M33.37,49.83l.41.79v.63s-1,.12-2.11.13c-2.49,0-4-.13-4-.13s0-.53.25-.67S33.37,49.83,33.37,49.83Z"/><path class="cls-35" d="M33.78,49.13c-.06-.37,0-.49-.3-.38a5.36,5.36,0,0,1-1.4.19c-.33,0-.3-.15-.57-.19s-.88.75-2.25.87a1.49,1.49,0,0,0-1.42,1s2.86.19,4,.2a7.23,7.23,0,0,0,1.91-.22A12,12,0,0,0,33.78,49.13Z"/><path class="cls-36" d="M31.24,49.37l.19,0a1.28,1.28,0,0,0-.28-.65l-.15.12A1.09,1.09,0,0,1,31.24,49.37Z"/><path class="cls-36" d="M30.82,49.69l.19,0a1.28,1.28,0,0,0-.28-.65l-.15.12A1.09,1.09,0,0,1,30.82,49.69Z"/><path class="cls-36" d="M30.38,49.88l.19,0a1.28,1.28,0,0,0-.28-.65l-.15.12A1.09,1.09,0,0,1,30.38,49.88Z"/><path class="cls-36" d="M30,50l.19,0a1.27,1.27,0,0,0-.28-.65l-.15.12A1.09,1.09,0,0,1,30,50Z"/><path class="cls-1" d="M44.34,29c0,1-.22,2.93-.11,4.13a17.9,17.9,0,0,0,.39,2.71s-1.38-.06-2.24,0c-.37,0-1.12-.47-1.62-.51a6.82,6.82,0,0,1-3.31-1.53s.16-4.1.42-6.35c.05-.46.09-.94.11-1.42a8.9,8.9,0,0,1,2-4.42,10.9,10.9,0,0,1,2.68-.76c.63.06,1.34,1.87,1.55,2.85A29.68,29.68,0,0,1,44.34,29Z"/><path class="cls-8" d="M44.73,36l0-.12a18.12,18.12,0,0,1-.38-2.7,20.79,20.79,0,0,1,.05-2.73c0-.53.06-1,.06-1.4v-.82a23.51,23.51,0,0,0-.18-4.5c-.17-.83-.89-2.85-1.63-2.92a10.67,10.67,0,0,0-2.72.76h0l-.05.07a8.82,8.82,0,0,0-1.94,4.42c0,.54-.06,1-.11,1.42-.26,2.23-.42,6.32-.42,6.36v0l0,0a6.82,6.82,0,0,0,3.36,1.55,3,3,0,0,1,.82.27,2.11,2.11,0,0,0,.81.24c.84-.06,2.21,0,2.23,0Zm-1.39-.21c-.33,0-.68,0-1,0a2.08,2.08,0,0,1-.73-.23,3.06,3.06,0,0,0-.88-.28,6.67,6.67,0,0,1-3.23-1.48c0-.45.17-4.21.42-6.3,0-.42.08-.89.11-1.43A8.67,8.67,0,0,1,40,21.74l0,0A10.57,10.57,0,0,1,42.6,21c.55.05,1.25,1.71,1.47,2.78a23.94,23.94,0,0,1,.18,4.46V29c0,.37,0,.86-.06,1.39a20.86,20.86,0,0,0-.05,2.75,20.42,20.42,0,0,0,.36,2.61Z"/><path class="cls-6" d="M39.4,21.68a20.88,20.88,0,0,1,3.16-1.18l.39.56s-2.23.81-2.67.93-.77.75-.77.75Z"/><path class="cls-10" d="M19.76,43.08a3.64,3.64,0,0,1,.67.64,19.69,19.69,0,0,1,.76-3A11,11,0,0,1,23,37.39a14.25,14.25,0,0,1,2.31-2l.08-.28c.56-2.12,0-2.72-.72-2.45S18.4,42.12,19.76,43.08Z"/><g class="cls-18"><path class="cls-19" d="M24.89,51.55a6.73,6.73,0,0,0,3.25,1.15c1.76.24,8.91.2,10-.56a4.52,4.52,0,0,1,1.59-.59Z"/></g><path class="cls-10" d="M23.56,37.85s-1.1.78-1.85,3.79a.89.89,0,0,0,.64,1.08h0Z"/><path class="cls-37" d="M40.84,46.5l.09,1.24,5.59-3.06a.31.31,0,0,0,.11-.42l-.21-.36-.27-.47a.31.31,0,0,0-.42-.11l-2.18,1.26-2,1.17h0l-.57.33A.31.31,0,0,0,40.84,46.5Z"/><path class="cls-37" d="M38.07,47.36h0l2.85.38,2.82-2.2a.32.32,0,0,0,.15-.34.34.34,0,0,0,0-.08l-.31-.54-.16-.29a.31.31,0,0,0-.42-.11l-4.78,2.76A.31.31,0,0,0,38.07,47.36Z"/><path class="cls-33" d="M40.89,25.8c-.43,1.39-3.55,3.81-3.74,4a6.84,6.84,0,0,1-3.69,1.4l-.67.1c-2,.3-2.88.29-3.16.38s-.76.17-1,.22-.35,0-.51-.26a.63.63,0,0,0-.8-.13c-.16.16-.32.43-.14.55a1.08,1.08,0,0,1,.31.33.17.17,0,0,1-.19.19.76.76,0,0,1-.66-.34c-.17-.27-.39-.47-.45-.59s.24-.52.5-.9.44-.39.86-.36,1.2.15,1.2.15a17.32,17.32,0,0,0,6.06-2.1c.64-.34,1-.57,1-.57a11.79,11.79,0,0,0,2.57-2.78Z"/><path class="cls-38" d="M40.89,25.8c-.43,1.39-3.55,3.81-3.74,4a6.84,6.84,0,0,1-3.69,1.4l-.67.1q1.08-1.41,2.07-2.88c.64-.34,1-.57,1-.57a11.79,11.79,0,0,0,2.57-2.78Z"/><path class="cls-6" d="M39.44,27.51l.67.57c1.39-1.51,3-4.33,2.56-5.25-.58-1.26-2-1.06-2.7,0-.41.56-.89,1.44-1.81,2.82-.1.15-.31.38-.43.55C38.24,26.64,38.92,27.06,39.44,27.51Z"/><path class="cls-39" d="M38.55,16.93l0-.14a3,3,0,0,1,.49-2.28,2.59,2.59,0,0,1,.44-.18c1.07-1,3.94.55,3.74,1.5-.89,4.06-2.84,4.07-3.6,3.94-.39-.07-.5,0-.72-.29a2.71,2.71,0,0,1-.33-1.24c-.23-.11-.49-.19-.48-.34a.13.13,0,0,1,0-.07A5.6,5.6,0,0,0,38.55,16.93Z"/><path class="cls-1" d="M38.13,14.82C38,15.2,40.76,16.1,41,16.38s.73.22.68.46c-.27,1.27-1.5,2.54,0,2.74.91.12,2.15.36,2.5-.37a9.71,9.71,0,0,0,.78-2.7A3.44,3.44,0,0,0,42,13C40.65,12.8,38.84,12.5,38.13,14.82Z"/><path class="cls-8" d="M43.05,19.8a1.24,1.24,0,0,0,1.24-.55,9.83,9.83,0,0,0,.79-2.73A3.54,3.54,0,0,0,42,12.92h0c-1.36-.21-3.21-.5-3.93,1.87h0c-.09.29.63.62,1.82,1.14a6.09,6.09,0,0,1,1.06.52,1,1,0,0,0,.38.21c.16.06.29.11.28.17a5.83,5.83,0,0,1-.39,1.08c-.24.56-.46,1-.26,1.39a.93.93,0,0,0,.75.38l.24,0A8.54,8.54,0,0,0,43.05,19.8ZM40.63,13a8.76,8.76,0,0,1,1.32.14h0a3.36,3.36,0,0,1,2.91,3.41,9.61,9.61,0,0,1-.77,2.67c-.29.61-1.33.47-2.17.35l-.24,0c-.33,0-.54-.14-.62-.29s0-.71.27-1.23a6.06,6.06,0,0,0,.4-1.11c0-.21-.18-.3-.39-.37a.85.85,0,0,1-.31-.16,4.92,4.92,0,0,0-1.13-.56c-.56-.24-1.73-.74-1.72-.92A2.3,2.3,0,0,1,40.63,13Z"/><path class="cls-40" d="M41.37,17.24c.18-.54-.17-.65-.65-.87s-2.15-1.15-2.85-1.4c.08-.18.16-.3.21-.31.38-.09,2.6,1.24,3.05,1.51s2.08,0,1.7,1.46S40.18,18.74,39,18.84s-1.6,0-1.83-.67a1.37,1.37,0,0,1,0-.51,10.09,10.09,0,0,0,2,.28C40.23,18,41.19,17.81,41.37,17.24Z"/><path class="cls-41" d="M42.91,17.87c-.59-.11-.91.14-1.46.36a12.66,12.66,0,0,1-4.29-.17c-.36-.12.32,1.92.56,2.16s4.61.51,5.46-.63A1.06,1.06,0,0,0,42.91,17.87Z"/><g class="cls-42"><path class="cls-43" d="M38,14.85l-.84,2.95s3.92.76,4.36-.12.29-.93-.08-1.13S38,14.85,38,14.85Z"/></g><path class="cls-34" d="M54.72,31.41H45.81V29.93a0,0,0,0,1,0,0h8.82a0,0,0,0,1,0,0Zm0,0"/><path class="cls-11" d="M54.69,29.88H45.85a0,0,0,0,1,0,0l.9-1H53.8l.9,1a0,0,0,0,1,0,0Zm0,0"/><rect class="cls-1" x="46.27" y="31.41" width="7.99" height="6.3"/><path class="cls-8" d="M46.19,37.8h8.17V31.33H46.19Zm8-.18H46.36V31.5h7.81Z"/><rect class="cls-44" x="48.58" y="32.34" width="3.38" height="1.23"/><rect class="cls-44" x="48.12" y="34.64" width="4.3" height="1.84"/><path class="cls-1" d="M49.81,35.72H49A.15.15,0,1,0,49,36h.77a.15.15,0,1,0,0-.31Zm0,0"/><path class="cls-1" d="M49.81,35.41H51.5a.15.15,0,0,0,0-.31H49.81a.15.15,0,1,0,0,.31Zm0,0"/><path class="cls-1" d="M49,35.41a.15.15,0,1,0-.11-.26.17.17,0,0,0,0,.11.15.15,0,0,0,.15.15Zm0,0"/><path class="cls-1" d="M50.47,35.76a.16.16,0,0,0,0,.22.16.16,0,0,0,.11,0,.15.15,0,0,0,.11-.26.16.16,0,0,0-.22,0Zm0,0"/><path class="cls-1" d="M51.5,35.72h-.15a.15.15,0,1,0,0,.31h.15a.15.15,0,0,0,0-.31Zm0,0"/></g></g></svg>