<svg id="Layer_1" data-name="Layer 1" xmlns="http://www.w3.org/2000/svg" viewBox="0 0 55 55"><defs><style>.cls-1{fill:#eaf1fa;}.cls-2{fill:#8aa2c2;}</style></defs><title>6- tedade basteh</title><circle class="cls-1" cx="27.5" cy="27.5" r="27.5"/><path class="cls-2" d="M19.05,13.05H14.22a1.41,1.41,0,0,0-1.41,1.41v4.83a1.41,1.41,0,0,0,1.41,1.41h4.83a1.42,1.42,0,0,0,1.42-1.41V14.47A1.42,1.42,0,0,0,19.05,13.05Z"/><rect class="cls-2" x="23.67" y="13.05" width="7.65" height="7.65" rx="1.41" ry="1.41"/><rect class="cls-2" x="34.53" y="13.05" width="7.65" height="7.65" rx="1.41" ry="1.41"/><path class="cls-2" d="M19.05,23.67H14.22a1.41,1.41,0,0,0-1.41,1.41v4.83a1.41,1.41,0,0,0,1.41,1.41h4.83a1.42,1.42,0,0,0,1.42-1.41V25.09A1.42,1.42,0,0,0,19.05,23.67Z"/><rect class="cls-2" x="23.67" y="23.67" width="7.65" height="7.65" rx="1.41" ry="1.41"/><rect class="cls-2" x="34.53" y="23.67" width="7.65" height="7.65" rx="1.41" ry="1.41"/><path class="cls-2" d="M19.05,34.29H14.22a1.41,1.41,0,0,0-1.41,1.41v4.83a1.41,1.41,0,0,0,1.41,1.41h4.83a1.42,1.42,0,0,0,1.42-1.41V35.71A1.42,1.42,0,0,0,19.05,34.29Z"/><rect class="cls-2" x="23.67" y="34.29" width="7.65" height="7.65" rx="1.41" ry="1.41"/><rect class="cls-2" x="34.53" y="34.29" width="7.65" height="7.65" rx="1.41" ry="1.41"/></svg>