<svg id="Layer_1" data-name="Layer 1" xmlns="http://www.w3.org/2000/svg" viewBox="0 0 70 70"><defs><style>.cls-1,.cls-3{fill:#d21c59;}.cls-2{fill:#fff;}.cls-3{stroke:#fff;stroke-miterlimit:10;stroke-width:0.3px;}</style></defs><title>9- girandeh ok</title><path class="cls-1" d="M35.63,14.72v3h-9.4V52.28h9.4v3L52.8,52.2l0-34.38Zm2.85,18.92a1.4,1.4,0,1,1-1,1.36,1.23,1.23,0,0,1,1-1.36ZM29,49.49v-29h6.61v29Zm0,0"/><polygon class="cls-2" points="19.8 41.66 31.08 41.95 32.58 44.86 32.43 54.27 17.95 54.58 17.95 43.38 19.8 41.66"/><path class="cls-3" d="M33.29,44.2A.54.54,0,0,0,33.2,44a.59.59,0,0,0,0-.06l-1.93-2.58,0,0-.11-.1L31,41.13l-.12,0-.12,0h-11l-.13,0-.11,0-.1.07-.1.09,0,0-1.93,2.47a.64.64,0,0,0-.13.48s0,0,0,0V54.59a.64.64,0,0,0,.64.64H32.66a.64.64,0,0,0,.64-.64V44.28A.62.62,0,0,0,33.29,44.2Zm-9,2.65V44.92h1.93v1.93Zm-4.2-4.51h3.37l-.33,1.29H19.07Zm5.63,0L26,43.63H24.45l.33-1.29Zm1.65,1.29L27,42.34H30.4l1,1.29ZM32,53.94H18.48v-9H23V47.5a.64.64,0,0,0,.64.64h3.22a.64.64,0,0,0,.64-.64V44.92H32Z"/></svg>