<svg id="Layer_1" data-name="Layer 1" xmlns="http://www.w3.org/2000/svg" viewBox="0 0 70 70"><defs><style>.cls-1{fill:#d21c59;}</style></defs><title>9- maghsad ok</title><path class="cls-1" d="M54.8,25,35.31,14.91a.67.67,0,0,0-.62,0L15.2,25a.67.67,0,0,0-.36.6V29a.67.67,0,0,0,1,.6l1.71-.88V54.49a.67.67,0,0,0,.67.67h4a.67.67,0,0,0,.67-.67V31H47.1V54.49a.67.67,0,0,0,.67.67h4a.67.67,0,0,0,.67-.67V28.66l1.71.88a.67.67,0,0,0,1-.6V25.59A.67.67,0,0,0,54.8,25ZM21.56,26.58v3H18.87V28ZM18.87,31h1.74l-1.74,1.74Zm2.69,14.79H19.82L21.56,44ZM18.87,39h1.74l-1.74,1.74Zm0,4h1.74L18.87,44.8Zm0,4h1.74l-1.74,1.74Zm2.69-5.38H19.82L21.56,40Zm0-4H19.82L21.56,36Zm-2.69-1V35h1.74Zm0,14.39h1.74l-1.74,1.74Zm1-1.34L21.56,48v1.74Zm1.74-16.13H19.82l1.74-1.74ZM19.82,53.82l1.74-1.74v1.74Zm25.93-24.2V26.93H44.41v2.69h-2v-4.7H41v4.7H39V22.9H37.69v6.72h-2V21.56H34.33v8.07h-2V22.9H31v6.72H29v-4.7H27.61v4.7h-2V26.93H24.25v2.69H22.9V25.88L35,19.63l12.1,6.26v3.74Zm3.64,21.51h1.74v1.74ZM48.44,40l1.74,1.74H48.44Zm0,4,1.74,1.74H48.44Zm2.69,3.08v1.74L49.39,47.1Zm-1.74-4h1.74V44.8Zm0-4h1.74v1.74Zm1.74-2.29L49.39,35h1.74Zm-1,1H48.44V36ZM48.44,48l1.74,1.74H48.44Zm2.69-15.34L49.39,31h1.74Zm-1,1H48.44V31.92ZM48.44,52.08l1.74,1.74H48.44Zm2.69-22.46H48.44v-3L51.13,28Zm2.69-1.78L35.31,18.27a.67.67,0,0,0-.62,0L16.18,27.85V26L35,16.27,53.82,26Z"/><path class="cls-1" d="M45.08,33.66H38.36a.67.67,0,0,0-.67.67v6h-6A.67.67,0,0,0,31,41v6h-6a.67.67,0,0,0-.67.67v6.72a.67.67,0,0,0,.67.67H45.08a.67.67,0,0,0,.67-.67V34.33A.67.67,0,0,0,45.08,33.66Zm-6,8.07h5.38V47.1H39ZM39,35h5.38v5.38H39Zm-6.72,6.72h5.38V47.1H32.31Zm-6.72,6.72H31v5.38H25.59Zm6.72,0h5.38v5.38H32.31Zm12.1,5.38H39V48.44h5.38Z"/><rect class="cls-1" x="40.38" y="36.34" width="2.69" height="1.34"/><rect class="cls-1" x="40.38" y="43.07" width="2.69" height="1.34"/><rect class="cls-1" x="40.38" y="49.79" width="2.69" height="1.34"/><rect class="cls-1" x="33.66" y="49.79" width="2.69" height="1.34"/><rect class="cls-1" x="26.93" y="49.79" width="2.69" height="1.34"/><rect class="cls-1" x="33.66" y="43.07" width="2.69" height="1.34"/></svg>