<svg id="Layer_1" data-name="Layer 1" xmlns="http://www.w3.org/2000/svg" viewBox="0 0 70 70"><defs><style>.cls-1{fill:#d21c59;}</style></defs><title>9- mabda ok</title><path class="cls-1" d="M53,53.66H49.93a.62.62,0,0,1-.62-.62V31.27H20.69V53a.62.62,0,0,1-.62.62H17a.62.62,0,0,1-.62-.62V26.91a.62.62,0,0,1,.32-.54l18-10a.62.62,0,0,1,.62,0L53.36,27a.62.62,0,0,1,.31.54V53A.62.62,0,0,1,53,53.66Zm-2.49-1.24h1.87V27.89L35,17.67,17.58,27.28V52.42h1.87V30.65a.62.62,0,0,1,.62-.62H49.93a.62.62,0,0,1,.62.62Z"/><path class="cls-1" d="M47.44,53.66H40a.62.62,0,0,1-.62-.62V45.58A.62.62,0,0,1,40,45h7.47a.62.62,0,0,1,.62.62V53A.62.62,0,0,1,47.44,53.66ZM40.6,52.42h6.22V46.2H40.6Z"/><path class="cls-1" d="M45,48.69H42.47a.62.62,0,0,1-.62-.62V45.58h1.24v1.87h1.24V45.58h1.24v2.49A.62.62,0,0,1,45,48.69Z"/><path class="cls-1" d="M40,53.66H32.51a.62.62,0,0,1-.62-.62V45.58a.62.62,0,0,1,.62-.62H40a.62.62,0,0,1,.62.62V53A.62.62,0,0,1,40,53.66Zm-6.84-1.24h6.22V46.2H33.13Z"/><path class="cls-1" d="M37.49,48.69H35a.62.62,0,0,1-.62-.62V45.58h1.24v1.87h1.24V45.58h1.24v2.49A.62.62,0,0,1,37.49,48.69Z"/><path class="cls-1" d="M47.44,46.2H40a.62.62,0,0,1-.62-.62V38.11a.62.62,0,0,1,.62-.62h7.47a.62.62,0,0,1,.62.62v7.47A.62.62,0,0,1,47.44,46.2ZM40.6,45h6.22V38.73H40.6Z"/><path class="cls-1" d="M45,41.22H42.47a.62.62,0,0,1-.62-.62V38.11h1.24V40h1.24V38.11h1.24V40.6A.62.62,0,0,1,45,41.22Z"/><rect class="cls-1" x="20.07" y="35" width="29.86" height="1.24"/><rect class="cls-1" x="20.07" y="32.51" width="29.86" height="1.24"/><path class="cls-1" d="M38.11,28.78H31.89a.62.62,0,0,1-.62-.62V25.67a.62.62,0,0,1,.62-.62h6.22a.62.62,0,0,1,.62.62v2.49A.62.62,0,0,1,38.11,28.78Zm-5.6-1.24h5V26.29h-5Z"/></svg>