<svg id="Layer_1" data-name="Layer 1" xmlns="http://www.w3.org/2000/svg" viewBox="0 0 70 70"><defs><style>.cls-1{fill:#bfbfbf;}</style></defs><title>9- tahvile peyk no</title><path class="cls-1" d="M18.41,48.63a.59.59,0,0,1-.59-.59,5.34,5.34,0,0,1,5.33-5.33.59.59,0,1,1,0,1.18A4.15,4.15,0,0,0,19,48a.59.59,0,0,1-.59.59Zm0,0"/><path class="cls-1" d="M27.3,43.89H23.15a.59.59,0,0,1,0-1.18H27.3a.59.59,0,0,1,0,1.18Zm0,0"/><path class="cls-1" d="M38,43.89H35.59a.59.59,0,1,1,0-1.18H38a.59.59,0,0,1,0,1.18Zm0,0"/><path class="cls-1" d="M18.41,52.77a.59.59,0,0,1-.59-.59V48A.59.59,0,0,1,19,48v4.15a.59.59,0,0,1-.59.59Zm0,0"/><path class="cls-1" d="M19,53.37a1.19,1.19,0,0,1-1.18-1.18.59.59,0,1,1,1.18,0h0a.59.59,0,1,1,0,1.18Zm0,0"/><path class="cls-1" d="M42.11,53.37H19a.59.59,0,0,1,0-1.18h23.1a.59.59,0,1,1,0,1.18Zm0,0"/><path class="cls-1" d="M27.3,43.89a.59.59,0,0,1-.59-.59V39.9a.59.59,0,0,1,1.18,0v3.4a.59.59,0,0,1-.59.59Zm0,0"/><path class="cls-1" d="M35.59,43.89a.59.59,0,0,1-.59-.59V39.9a.59.59,0,0,1,1.18,0v3.39a.59.59,0,0,1-.59.59Zm0,0"/><path class="cls-1" d="M31.45,41.52A9.49,9.49,0,0,1,22,32a.59.59,0,0,1,1.18,0,8.29,8.29,0,1,0,16.59,0,.59.59,0,0,1,1.18,0,9.49,9.49,0,0,1-9.48,9.48Zm0,0"/><path class="cls-1" d="M40.33,27.3a.59.59,0,0,1-.59-.59,8.29,8.29,0,0,0-16.59,0,.59.59,0,0,1-1.18,0,9.48,9.48,0,0,1,19,0,.59.59,0,0,1-.59.59Zm0,0"/><path class="cls-1" d="M22.56,32.63A.59.59,0,0,1,22,32v-3a.59.59,0,1,1,1.18,0v3a.59.59,0,0,1-.59.59Zm0,0"/><path class="cls-1" d="M40.33,32.63a.59.59,0,0,1-.59-.59v-3a.59.59,0,1,1,1.18,0v3a.59.59,0,0,1-.59.59Zm0,0"/><path class="cls-1" d="M41.52,29.67H21.37a.59.59,0,0,1,0-1.18H41.52a.59.59,0,0,1,0,1.18Zm0,0"/><path class="cls-1" d="M41.52,29.67a.59.59,0,0,1-.44-.19s-2.16-2.18-9.63-2.18-9.62,2.16-9.64,2.18a.6.6,0,0,1-.83,0,.59.59,0,0,1,0-.83c.09-.11,2.42-2.56,10.51-2.56S41.86,28.57,42,28.68a.59.59,0,0,1-.44,1Zm0,0"/><path class="cls-1" d="M40.33,28.87a.59.59,0,0,1-.59-.59V26.71a.59.59,0,0,1,1.18,0v1.58a.59.59,0,0,1-.59.59Zm0,0"/><path class="cls-1" d="M22.56,28.87a.59.59,0,0,1-.59-.59V26.71a.59.59,0,0,1,1.18,0v1.58a.59.59,0,0,1-.59.59Zm0,0"/><path class="cls-1" d="M31.45,24.93a2.37,2.37,0,1,1,2.37-2.37,2.37,2.37,0,0,1-2.37,2.37Zm0-3.55a1.18,1.18,0,1,0,1.18,1.18,1.19,1.19,0,0,0-1.18-1.18Zm0,0"/><path class="cls-1" d="M31.45,18.41a.59.59,0,0,1-.59-.59v-.59a.59.59,0,1,1,1.18,0v.59a.59.59,0,0,1-.59.59Zm0,0"/><path class="cls-1" d="M29.67,45.07A.59.59,0,0,1,29.4,45L27,43.83a.59.59,0,0,1,.53-1.06l2.37,1.18a.59.59,0,0,1-.27,1.12Zm0,0"/><path class="cls-1" d="M29.67,45.07a.59.59,0,0,1-.19-1.16l1.78-.59a.59.59,0,1,1,.37,1.13L29.86,45l-.19,0Zm0,0"/><path class="cls-1" d="M33.22,45.07A.59.59,0,0,1,33,43.95l2.37-1.18a.59.59,0,0,1,.53,1.06L33.49,45a.59.59,0,0,1-.26.06Zm0,0"/><path class="cls-1" d="M33.22,45.07,33,45l-1.78-.59a.59.59,0,0,1,.37-1.13l1.78.59a.59.59,0,0,1-.19,1.16Zm0,0"/><path class="cls-1" d="M31.46,47.44a.59.59,0,0,1,0-1.18h0a.59.59,0,0,1,0,1.18Zm0,0"/><path class="cls-1" d="M31.46,49.42a.59.59,0,0,1,0-1.18h0a.59.59,0,0,1,0,1.18Zm0,0"/><path class="cls-1" d="M31.46,51.44a.59.59,0,0,1,0-1.18h0a.59.59,0,0,1,0,1.18Zm0,0"/><path class="cls-1" d="M51.59,53.37H38a.59.59,0,0,1-.59-.59V43.3A.59.59,0,0,1,38,42.7H51.59a.59.59,0,0,1,.59.59v9.48a.59.59,0,0,1-.59.59Zm-13-1.18H51V43.89H38.55Zm0,0"/><path class="cls-1" d="M38,43.79a.59.59,0,0,1-.47-1l1.78-2.27a.59.59,0,0,1,.93.73l-1.78,2.27a.59.59,0,0,1-.47.23Zm0,0"/><path class="cls-1" d="M51.59,43.89a.59.59,0,0,1-.47-.24l-1.78-2.37a.59.59,0,0,1,.95-.71l1.78,2.37a.59.59,0,0,1-.47.95Zm0,0"/><path class="cls-1" d="M49.81,41.52H39.74a.59.59,0,0,1,0-1.18H49.81a.59.59,0,0,1,0,1.18Zm0,0"/><path class="cls-1" d="M43.29,43.85l-.15,0a.59.59,0,0,1-.43-.72l.59-2.33a.59.59,0,0,1,1.15.29l-.59,2.33a.59.59,0,0,1-.57.45Zm0,0"/><path class="cls-1" d="M46.26,43.89a.59.59,0,0,1-.57-.45l-.59-2.37a.59.59,0,1,1,1.15-.29l.59,2.37a.59.59,0,0,1-.43.72l-.14,0Zm0,0"/><path class="cls-1" d="M43.29,46.85a.59.59,0,0,1-.59-.59v-3a.59.59,0,1,1,1.18,0v3a.59.59,0,0,1-.59.59Zm0,0"/><path class="cls-1" d="M46.26,46.85a.59.59,0,0,1-.59-.59v-3a.59.59,0,1,1,1.18,0v3a.59.59,0,0,1-.59.59Zm0,0"/><path class="cls-1" d="M46.26,46.85h-3a.59.59,0,0,1,0-1.18h3a.59.59,0,0,1,0,1.18Zm0,0"/><polygon class="cls-1" points="22.56 28.25 26.37 27 33.12 26.75 40.08 27.89 41.16 28.87 38.04 29.25 27.3 29.08 22.33 28.87 22.56 28.25"/></svg>