<svg id="Layer_1" data-name="Layer 1" xmlns="http://www.w3.org/2000/svg" viewBox="0 0 50 50"><defs><style>.cls-1{fill:#2a52a4;}.cls-2{fill:#fff;fill-rule:evenodd;}</style></defs><title>facrbook</title><circle class="cls-1" cx="25" cy="25" r="25"/><path class="cls-2" d="M29.5,15.4c.9,0,1.79,0,2.69,0h.37V10.72c-.48,0-1-.12-1.48-.14-.92,0-1.84-.09-2.76-.07a6.77,6.77,0,0,0-3.9,1.21,5.84,5.84,0,0,0-2.35,3.9,13.62,13.62,0,0,0-.16,2c0,1,0,2.1,0,3.14v.39H17.43v5.22h4.44V39.49h5.43V26.4h4.43c.23-1.73.45-3.45.68-5.24H27.27s0-2.59,0-3.71C27.36,15.91,28.27,15.45,29.5,15.4Z"/></svg>