<svg id="Layer_1" data-name="Layer 1" xmlns="http://www.w3.org/2000/svg" viewBox="0 0 70 70"><defs><style>.cls-1{fill:#bfbfbf;fill-rule:evenodd;}</style></defs><title>png 2</title><path class="cls-1" d="M35,42,61.34,68.52a5,5,0,0,0,7.12,0,5.09,5.09,0,0,0,0-7.16L38.81,31.55A5,5,0,0,0,35,30.09a5,5,0,0,0-3.81,1.46L1.55,61.35a5.09,5.09,0,0,0,0,7.16,5,5,0,0,0,7.12,0Zm0,0"/><path class="cls-1" d="M35,12,61.34,38.44a5,5,0,0,0,7.12,0,5.09,5.09,0,0,0,0-7.16L38.81,1.47A5,5,0,0,0,35,0a5,5,0,0,0-3.81,1.46L1.55,31.27a5.09,5.09,0,0,0,0,7.16,5,5,0,0,0,7.12,0Zm0,0"/></svg>