<svg xmlns="http://www.w3.org/2000/svg" xmlns:xlink="http://www.w3.org/1999/xlink" viewBox="0 0 256 256"><defs><style>.cls-1{fill:none;}.cls-2{isolation:isolate;}.cls-3{fill:#14276f;}.cls-4{fill:#d31c58;}.cls-5{fill:#f95c69;opacity:0.4;mix-blend-mode:screen;}.cls-6{fill:#d8dada;}.cls-7{fill:#c6c8ca;}.cls-8{fill:#fff;}.cls-9{clip-path:url(#clip-path);}.cls-10{fill:#15276f;}.cls-11{fill:#17276f;}.cls-12{fill:#18276f;}.cls-13{fill:#19276e;}.cls-14{fill:#1a276e;}.cls-15{fill:#1c276e;}.cls-16{fill:#1d276e;}.cls-17{fill:#1e276e;}.cls-18{fill:#1f276e;}.cls-19{fill:#21286e;}.cls-20{fill:#22286e;}.cls-21{fill:#23286e;}.cls-22{fill:#24286e;}.cls-23{fill:#25286e;}.cls-24{fill:#26286e;}.cls-25{fill:#27286e;}.cls-26{fill:#28286d;}.cls-27{fill:#29286e;}.cls-28{fill:#2a286d;}.cls-29{fill:#2b286e;}.cls-30{fill:#2c286e;}.cls-31{fill:#2d286d;}.cls-32{fill:#2e286d;}.cls-33{fill:#2f286d;}.cls-34{fill:#30286d;}.cls-35{fill:#31286d;}.cls-36{fill:#32286d;}.cls-37{fill:#33296d;}.cls-38{fill:#34296d;}.cls-39{fill:#35296d;}.cls-40{fill:#36286d;}.cls-41{fill:#37296d;}.cls-42{fill:#38296d;}.cls-43{fill:#39296c;}.cls-44{fill:#3a296d;}.cls-45{fill:#3b296d;}.cls-46{fill:#3c296d;}.cls-47{fill:#3d296c;}.cls-48{fill:#3e296d;}.cls-49{fill:#3f296c;}.cls-50{fill:#40296c;}.cls-51{fill:#41296c;}.cls-52{fill:#42296c;}.cls-53{fill:#432a6c;}.cls-54{fill:#442a6c;}.cls-55{fill:#452a6c;}.cls-56{fill:#46296c;}.cls-57{fill:#47296c;}.cls-58{fill:#48296c;}.cls-59{fill:#492a6c;}.cls-60{fill:#4a2a6c;}.cls-61{fill:#4b2a6c;}.cls-62{fill:#4c2a6c;}.cls-63{fill:#4d2a6c;}.cls-64{fill:#4e2a6b;}.cls-65{fill:#4f2a6b;}.cls-66{fill:#502a6b;}.cls-67{fill:#512a6b;}.cls-68{fill:#522a6b;}.cls-69{fill:#532a6b;}.cls-70{fill:#542a6b;}.cls-71{fill:#552a6b;}.cls-72{fill:#562a6b;}.cls-73{fill:#572a6b;}.cls-74{fill:#582a6b;}.cls-75{fill:#582a6a;}.cls-76{fill:#592a6b;}.cls-77{fill:#5a2a6a;}.cls-78{fill:#5b2a6a;}.cls-79{fill:#5c2a6a;}.cls-80{fill:#5d2a6a;}.cls-81{fill:#5e2a6a;}.cls-82{fill:#5f2b6a;}.cls-83{fill:#602b6a;}.cls-84{fill:#612a6a;}.cls-85{fill:#622a69;}.cls-86{fill:#632a6a;}.cls-87{fill:#642a69;}.cls-88{fill:#652b69;}.cls-89{fill:#662b69;}.cls-90{fill:#672b69;}.cls-91{fill:#672a69;}.cls-92{fill:#682a69;}.cls-93{fill:#692a69;}.cls-94{fill:#6a2a69;}.cls-95{fill:#6b2a69;}.cls-96{fill:#6c2a68;}.cls-97{fill:#6d2b69;}.cls-98{fill:#6d2a68;}.cls-99{fill:#6e2a68;}.cls-100{fill:#6f2a68;}.cls-101{fill:#702a68;}.cls-102{fill:#712a68;}.cls-103{fill:#722a68;}.cls-104{fill:#732a68;}.cls-105{fill:#732a67;}.cls-106{fill:#742a67;}.cls-107{fill:#752a67;}.cls-108{fill:#762a67;}.cls-109{fill:#772a67;}.cls-110{fill:#782a67;}.cls-111{fill:#792a67;}.cls-112{fill:#7a2a67;}.cls-113{fill:#7b2a67;}.cls-114{fill:#7b2966;}.cls-115{fill:#7c2966;}.cls-116{fill:#7d2a66;}.cls-117{fill:#7d2966;}.cls-118{fill:#7e2a66;}.cls-119{fill:#7f2a66;}.cls-120{fill:#802a66;}.cls-121{fill:#812965;}.cls-122{fill:#822965;}.cls-123{fill:#832965;}.cls-124{fill:#842965;}.cls-125{fill:#852965;}.cls-126{fill:#862965;}.cls-127{fill:#872965;}.cls-128{fill:#882864;}.cls-129{fill:#892864;}.cls-130{fill:#8a2964;}.cls-131{fill:#8b2964;}.cls-132{fill:#8c2964;}.cls-133{fill:#8d2964;}.cls-134{fill:#8e2863;}.cls-135{fill:#8f2863;}.cls-136{fill:#902863;}.cls-137{fill:#912863;}.cls-138{fill:#922863;}.cls-139{fill:#932862;}.cls-140{fill:#942863;}.cls-141{fill:#942862;}.cls-142{fill:#952762;}.cls-143{fill:#962762;}.cls-144{fill:#972762;}.cls-145{fill:#982762;}.cls-146{fill:#992761;}.cls-147{fill:#9a2761;}.cls-148{fill:#9b2761;}.cls-149{fill:#9c2861;}.cls-150{fill:#9d2661;}.cls-151{fill:#9d2660;}.cls-152{fill:#9e2661;}.cls-153{fill:#9f2660;}.cls-154{fill:#a02661;}.cls-155{fill:#a12660;}.cls-156{fill:#a22660;}.cls-157{fill:#a32660;}.cls-158{fill:#a42560;}.cls-159{fill:#a52560;}.cls-160{fill:#a6255f;}.cls-161{fill:#a7255f;}.cls-162{fill:#a8255f;}.cls-163{fill:#a9255f;}.cls-164{fill:#aa255f;}.cls-165{fill:#ab265f;}.cls-166{fill:#ac245e;}.cls-167{fill:#ae245e;}.cls-168{fill:#af245e;}.cls-169{fill:#b0245e;}.cls-170{fill:#b1245e;}.cls-171{fill:#b2245d;}.cls-172{fill:#b3235d;}.cls-173{fill:#b5235d;}.cls-174{fill:#b6235d;}.cls-175{fill:#b7235c;}.cls-176{fill:#b8235c;}.cls-177{fill:#b9235c;}.cls-178{fill:#ba225c;}.cls-179{fill:#ba215b;}.cls-180{fill:#bc215b;}.cls-181{fill:#bd215b;}.cls-182{fill:#be215b;}.cls-183{fill:#bf215b;}.cls-184{fill:#c0215b;}.cls-185{fill:#c1215b;}.cls-186{fill:#c2215b;}.cls-187{fill:#c31f5a;}.cls-188{fill:#c51f5a;}.cls-189{fill:#c61f59;}.cls-190{fill:#c71f5a;}.cls-191{fill:#c81f59;}.cls-192{fill:#c91f59;}.cls-193{fill:#ca1f59;}.cls-194{fill:#cb1d59;}.cls-195{fill:#cc1d59;}.cls-196{fill:#cd1d59;}.cls-197{fill:#ce1d59;}.cls-198{fill:#cf1d58;}.cls-199{fill:#d01c58;}.cls-200{fill:#d11c58;}.cls-201{fill:#d21c58;}.cls-202{clip-path:url(#clip-path-2);}</style><clipPath id="clip-path"><path id="SVGID" class="cls-1" d="M88.41,107.94l37.64,16a2.83,2.83,0,0,0,3.94-2.6l-.1-41.12a2.82,2.82,0,0,0-1.72-2.58l-37.64-16a2.83,2.83,0,0,0-3.94,2.6l.1,41.12A2.82,2.82,0,0,0,88.41,107.94Z"/></clipPath><clipPath id="clip-path-2"><path id="SVGID-2" data-name="SVGID" class="cls-1" d="M169.08,61.43,132.92,74.86a4.84,4.84,0,0,1-3.54-.06L91.82,59.28a1.24,1.24,0,0,1,.12-2.34l37-10.89a2.46,2.46,0,0,1,1.49,0l38.62,13A1.24,1.24,0,0,1,169.08,61.43Z"/></clipPath></defs><title>آیکون راننده</title><g class="cls-2"><g id="Layer_1" data-name="Layer 1"><polygon class="cls-3" points="80.29 173.78 46.17 123.88 90.41 123.88 80.29 173.78"/><polygon class="cls-3" points="175.71 173.78 209.83 123.88 165.59 123.88 175.71 173.78"/><circle class="cls-4" cx="128" cy="89.87" r="89.87"/><path class="cls-5" d="M128,7.14A82.73,82.73,0,1,1,45.27,89.87,82.82,82.82,0,0,1,128,7.14M128,0a89.87,89.87,0,1,0,89.87,89.87A89.87,89.87,0,0,0,128,0Z"/><polygon class="cls-3" points="173.78 159.51 82.22 159.51 80.11 173.78 175.89 173.78 173.78 159.51"/><polygon class="cls-4" points="82.22 159.51 128 256 173.78 159.51 82.22 159.51"/><path class="cls-6" d="M90.47,139.14a67.15,67.15,0,0,0,90.84-96.53Z"/><path class="cls-7" d="M129.87,16.31a67.16,67.16,0,0,0-39.4,122.83l90.84-96.53A67,67,0,0,0,129.87,16.31Z"/><circle class="cls-8" cx="128" cy="83.44" r="61.46" transform="translate(41.02 209.07) rotate(-88.4)"/><g class="cls-9"><polygon class="cls-3" points="86.59 108.2 130 112.8 130 124.74 86.59 124.74 86.59 108.2"/><polygon class="cls-3" points="86.59 108.07 130 112.66 130 112.8 86.59 108.2 86.59 108.07"/><polygon class="cls-10" points="86.59 107.94 130 112.53 130 112.66 86.59 108.07 86.59 107.94"/><polygon class="cls-11" points="86.59 107.81 130 112.4 130 112.53 86.59 107.94 86.59 107.81"/><polygon class="cls-12" points="86.59 107.68 130 112.27 130 112.4 86.59 107.81 86.59 107.68"/><polygon class="cls-13" points="86.59 107.55 130 112.14 130 112.27 86.59 107.68 86.59 107.55"/><polygon class="cls-14" points="86.59 107.42 130 112.01 130 112.14 86.59 107.55 86.59 107.42"/><polygon class="cls-15" points="86.59 107.29 130 111.88 130 112.01 86.59 107.42 86.59 107.29"/><polygon class="cls-16" points="86.59 107.16 130 111.75 130 111.88 86.59 107.29 86.59 107.16"/><polygon class="cls-17" points="86.59 107.03 130 111.62 130 111.75 86.59 107.16 86.59 107.03"/><polygon class="cls-18" points="86.59 106.9 130 111.49 130 111.62 86.59 107.03 86.59 106.9"/><polygon class="cls-19" points="86.59 106.77 130 111.36 130 111.49 86.59 106.9 86.59 106.77"/><polygon class="cls-20" points="86.59 106.64 130 111.23 130 111.36 86.59 106.77 86.59 106.64"/><polygon class="cls-21" points="86.59 106.5 130 111.1 130 111.23 86.59 106.64 86.59 106.5"/><polygon class="cls-22" points="86.59 106.38 130 110.97 130 111.1 86.59 106.5 86.59 106.38"/><polygon class="cls-23" points="86.59 106.24 130 110.84 130 110.97 86.59 106.38 86.59 106.24"/><polygon class="cls-24" points="86.59 106.11 130 110.71 130 110.84 86.59 106.24 86.59 106.11"/><polygon class="cls-25" points="86.59 105.98 130 110.58 130 110.71 86.59 106.11 86.59 105.98"/><polygon class="cls-26" points="86.59 105.85 130 110.45 130 110.58 86.59 105.98 86.59 105.85"/><polygon class="cls-27" points="86.59 105.72 130 110.32 130 110.45 86.59 105.85 86.59 105.72"/><polygon class="cls-28" points="86.59 105.59 130 110.19 130 110.32 86.59 105.72 86.59 105.59"/><polygon class="cls-29" points="86.59 105.46 130 110.06 130 110.19 86.59 105.59 86.59 105.46"/><polygon class="cls-30" points="86.59 105.33 130 109.92 130 110.06 86.59 105.46 86.59 105.33"/><polygon class="cls-31" points="86.59 105.2 130 109.79 130 109.92 86.59 105.33 86.59 105.2"/><polygon class="cls-32" points="86.59 105.07 130 109.66 130 109.79 86.59 105.2 86.59 105.07"/><polygon class="cls-33" points="86.59 104.94 130 109.53 130 109.66 86.59 105.07 86.59 104.94"/><polygon class="cls-34" points="86.59 104.81 130 109.4 130 109.53 86.59 104.94 86.59 104.81"/><polygon class="cls-35" points="86.59 104.68 130 109.27 130 109.4 86.59 104.81 86.59 104.68"/><polygon class="cls-36" points="86.59 104.55 130 109.14 130 109.27 86.59 104.68 86.59 104.55"/><polygon class="cls-37" points="86.59 104.42 130 109.01 130 109.14 86.59 104.55 86.59 104.42"/><polygon class="cls-38" points="86.59 104.29 130 108.88 130 109.01 86.59 104.42 86.59 104.29"/><polygon class="cls-38" points="86.59 104.16 130 108.75 130 108.88 86.59 104.29 86.59 104.16"/><polygon class="cls-39" points="86.59 104.03 130 108.62 130 108.75 86.59 104.16 86.59 104.03"/><polygon class="cls-40" points="86.59 103.89 130 108.49 130 108.62 86.59 104.03 86.59 103.89"/><polygon class="cls-41" points="86.59 103.77 130 108.36 130 108.49 86.59 103.89 86.59 103.77"/><polygon class="cls-42" points="86.59 103.63 130 108.23 130 108.36 86.59 103.77 86.59 103.63"/><polygon class="cls-43" points="86.59 103.5 130 108.1 130 108.23 86.59 103.63 86.59 103.5"/><polygon class="cls-44" points="86.59 103.37 130 107.97 130 108.1 86.59 103.5 86.59 103.37"/><polygon class="cls-45" points="86.59 103.24 130 107.84 130 107.97 86.59 103.37 86.59 103.24"/><polygon class="cls-46" points="86.59 103.11 130 107.71 130 107.84 86.59 103.24 86.59 103.11"/><polygon class="cls-46" points="86.59 102.98 130 107.58 130 107.71 86.59 103.11 86.59 102.98"/><polygon class="cls-47" points="86.59 102.85 130 107.44 130 107.58 86.59 102.98 86.59 102.85"/><polygon class="cls-48" points="86.59 102.72 130 107.31 130 107.44 86.59 102.85 86.59 102.72"/><polygon class="cls-49" points="86.59 102.59 130 107.18 130 107.31 86.59 102.72 86.59 102.59"/><polygon class="cls-50" points="86.59 102.46 130 107.05 130 107.18 86.59 102.59 86.59 102.46"/><polygon class="cls-51" points="86.59 102.33 130 106.92 130 107.05 86.59 102.46 86.59 102.33"/><polygon class="cls-51" points="86.59 102.2 130 106.79 130 106.92 86.59 102.33 86.59 102.2"/><polygon class="cls-52" points="86.59 102.07 130 106.66 130 106.79 86.59 102.2 86.59 102.07"/><polygon class="cls-53" points="86.59 101.94 130 106.53 130 106.66 86.59 102.07 86.59 101.94"/><polygon class="cls-54" points="86.59 101.81 130 106.4 130 106.53 86.59 101.94 86.59 101.81"/><polygon class="cls-55" points="86.59 101.68 130 106.27 130 106.4 86.59 101.81 86.59 101.68"/><polygon class="cls-56" points="86.59 101.55 130 106.14 130 106.27 86.59 101.68 86.59 101.55"/><polygon class="cls-57" points="86.59 101.42 130 106.01 130 106.14 86.59 101.55 86.59 101.42"/><polygon class="cls-57" points="86.59 101.29 130 105.88 130 106.01 86.59 101.42 86.59 101.29"/><polygon class="cls-58" points="86.59 101.16 130 105.75 130 105.88 86.59 101.29 86.59 101.16"/><polygon class="cls-59" points="86.59 101.03 130 105.62 130 105.75 86.59 101.16 86.59 101.03"/><polygon class="cls-60" points="86.59 100.89 130 105.49 130 105.62 86.59 101.03 86.59 100.89"/><polygon class="cls-60" points="86.59 100.76 130 105.36 130 105.49 86.59 100.89 86.59 100.76"/><polygon class="cls-61" points="86.59 100.63 130 105.23 130 105.36 86.59 100.76 86.59 100.63"/><polygon class="cls-62" points="86.59 100.5 130 105.1 130 105.23 86.59 100.63 86.59 100.5"/><polygon class="cls-63" points="86.59 100.37 130 104.97 130 105.1 86.59 100.5 86.59 100.37"/><polygon class="cls-64" points="86.59 100.24 130 104.83 130 104.97 86.59 100.37 86.59 100.24"/><polygon class="cls-64" points="86.59 100.11 130 104.7 130 104.83 86.59 100.24 86.59 100.11"/><polygon class="cls-65" points="86.59 99.98 130 104.57 130 104.7 86.59 100.11 86.59 99.98"/><polygon class="cls-66" points="86.59 99.85 130 104.44 130 104.57 86.59 99.98 86.59 99.85"/><polygon class="cls-67" points="86.59 99.72 130 104.31 130 104.44 86.59 99.85 86.59 99.72"/><polygon class="cls-67" points="86.59 99.59 130 104.18 130 104.31 86.59 99.72 86.59 99.59"/><polygon class="cls-68" points="86.59 99.46 130 104.05 130 104.18 86.59 99.59 86.59 99.46"/><polygon class="cls-69" points="86.59 99.33 130 103.92 130 104.05 86.59 99.46 86.59 99.33"/><polygon class="cls-70" points="86.59 99.2 130 103.79 130 103.92 86.59 99.33 86.59 99.2"/><polygon class="cls-70" points="86.59 99.07 130 103.66 130 103.79 86.59 99.2 86.59 99.07"/><polygon class="cls-71" points="86.59 98.94 130 103.53 130 103.66 86.59 99.07 86.59 98.94"/><polygon class="cls-72" points="86.59 98.81 130 103.4 130 103.53 86.59 98.94 86.59 98.81"/><polygon class="cls-73" points="86.59 98.68 130 103.27 130 103.4 86.59 98.81 86.59 98.68"/><polygon class="cls-74" points="86.59 98.55 130 103.14 130 103.27 86.59 98.68 86.59 98.55"/><polygon class="cls-75" points="86.59 98.42 130 103.01 130 103.14 86.59 98.55 86.59 98.42"/><polygon class="cls-76" points="86.59 98.28 130 102.88 130 103.01 86.59 98.42 86.59 98.28"/><polygon class="cls-77" points="86.59 98.15 130 102.75 130 102.88 86.59 98.28 86.59 98.15"/><polygon class="cls-78" points="86.59 98.02 130 102.62 130 102.75 86.59 98.15 86.59 98.02"/><polygon class="cls-78" points="86.59 97.89 130 102.49 130 102.62 86.59 98.02 86.59 97.89"/><polygon class="cls-79" points="86.59 97.76 130 102.36 130 102.49 86.59 97.89 86.59 97.76"/><polygon class="cls-80" points="86.59 97.63 130 102.22 130 102.36 86.59 97.76 86.59 97.63"/><polygon class="cls-81" points="86.59 97.5 130 102.09 130 102.22 86.59 97.63 86.59 97.5"/><polygon class="cls-81" points="86.59 97.37 130 101.96 130 102.09 86.59 97.5 86.59 97.37"/><polygon class="cls-82" points="86.59 97.24 130 101.83 130 101.96 86.59 97.37 86.59 97.24"/><polygon class="cls-83" points="86.59 97.11 130 101.7 130 101.83 86.59 97.24 86.59 97.11"/><polygon class="cls-84" points="86.59 96.98 130 101.57 130 101.7 86.59 97.11 86.59 96.98"/><polygon class="cls-84" points="86.59 96.85 130 101.44 130 101.57 86.59 96.98 86.59 96.85"/><polygon class="cls-85" points="86.59 96.72 130 101.31 130 101.44 86.59 96.85 86.59 96.72"/><polygon class="cls-86" points="86.59 96.59 130 101.18 130 101.31 86.59 96.72 86.59 96.59"/><polygon class="cls-87" points="86.59 96.46 130 101.05 130 101.18 86.59 96.59 86.59 96.46"/><polygon class="cls-88" points="86.59 96.33 130 100.92 130 101.05 86.59 96.46 86.59 96.33"/><polygon class="cls-88" points="86.59 96.2 130 100.79 130 100.92 86.59 96.33 86.59 96.2"/><polygon class="cls-89" points="86.59 96.07 130 100.66 130 100.79 86.59 96.2 86.59 96.07"/><polygon class="cls-90" points="86.59 95.94 130 100.53 130 100.66 86.59 96.07 86.59 95.94"/><polygon class="cls-91" points="86.59 95.81 130 100.4 130 100.53 86.59 95.94 86.59 95.81"/><polygon class="cls-92" points="86.59 95.67 130 100.27 130 100.4 86.59 95.81 86.59 95.67"/><polygon class="cls-93" points="86.59 95.54 130 100.14 130 100.27 86.59 95.67 86.59 95.54"/><polygon class="cls-93" points="86.59 95.41 130 100.01 130 100.14 86.59 95.54 86.59 95.41"/><polygon class="cls-94" points="86.59 95.28 130 99.88 130 100.01 86.59 95.41 86.59 95.28"/><polygon class="cls-95" points="86.59 95.15 130 99.75 130 99.88 86.59 95.28 86.59 95.15"/><polygon class="cls-96" points="86.59 95.02 130 99.61 130 99.75 86.59 95.15 86.59 95.02"/><polygon class="cls-97" points="86.59 94.89 130 99.48 130 99.61 86.59 95.02 86.59 94.89"/><polygon class="cls-98" points="86.59 94.76 130 99.35 130 99.48 86.59 94.89 86.59 94.76"/><polygon class="cls-99" points="86.59 94.63 130 99.22 130 99.35 86.59 94.76 86.59 94.63"/><polygon class="cls-100" points="86.59 94.5 130 99.09 130 99.22 86.59 94.63 86.59 94.5"/><polygon class="cls-100" points="86.59 94.37 130 98.96 130 99.09 86.59 94.5 86.59 94.37"/><polygon class="cls-101" points="86.59 94.24 130 98.83 130 98.96 86.59 94.37 86.59 94.24"/><polygon class="cls-102" points="86.59 94.11 130 98.7 130 98.83 86.59 94.24 86.59 94.11"/><polygon class="cls-103" points="86.59 93.98 130 98.57 130 98.7 86.59 94.11 86.59 93.98"/><polygon class="cls-104" points="86.59 93.85 130 98.44 130 98.57 86.59 93.98 86.59 93.85"/><polygon class="cls-105" points="86.59 93.72 130 98.31 130 98.44 86.59 93.85 86.59 93.72"/><polygon class="cls-106" points="86.59 93.59 130 98.18 130 98.31 86.59 93.72 86.59 93.59"/><polygon class="cls-107" points="86.59 93.46 130 98.05 130 98.18 86.59 93.59 86.59 93.46"/><polygon class="cls-108" points="86.59 93.33 130 97.92 130 98.05 86.59 93.46 86.59 93.33"/><polygon class="cls-109" points="86.59 93.19 130 97.79 130 97.92 86.59 93.33 86.59 93.19"/><polygon class="cls-109" points="86.59 93.06 130 97.66 130 97.79 86.59 93.19 86.59 93.06"/><polygon class="cls-110" points="86.59 92.93 130 97.53 130 97.66 86.59 93.06 86.59 92.93"/><polygon class="cls-111" points="86.59 92.8 130 97.4 130 97.53 86.59 92.93 86.59 92.8"/><polygon class="cls-112" points="86.59 92.67 130 97.27 130 97.4 86.59 92.8 86.59 92.67"/><polygon class="cls-113" points="86.59 92.54 130 97.14 130 97.27 86.59 92.67 86.59 92.54"/><polygon class="cls-114" points="86.59 92.41 130 97 130 97.14 86.59 92.54 86.59 92.41"/><polygon class="cls-115" points="86.59 92.28 130 96.88 130 97 86.59 92.41 86.59 92.28"/><polygon class="cls-116" points="86.59 92.15 130 96.74 130 96.88 86.59 92.28 86.59 92.15"/><polygon class="cls-117" points="86.59 92.02 130 96.61 130 96.74 86.59 92.15 86.59 92.02"/><polygon class="cls-118" points="86.59 91.89 130 96.48 130 96.61 86.59 92.02 86.59 91.89"/><polygon class="cls-119" points="86.59 91.76 130 96.35 130 96.48 86.59 91.89 86.59 91.76"/><polygon class="cls-120" points="86.59 91.63 130 96.22 130 96.35 86.59 91.76 86.59 91.63"/><polygon class="cls-120" points="86.59 91.5 130 96.09 130 96.22 86.59 91.63 86.59 91.5"/><polygon class="cls-120" points="86.59 91.37 130 95.96 130 96.09 86.59 91.5 86.59 91.37"/><polygon class="cls-121" points="86.59 91.24 130 95.83 130 95.96 86.59 91.37 86.59 91.24"/><polygon class="cls-122" points="86.59 91.11 130 95.7 130 95.83 86.59 91.24 86.59 91.11"/><polygon class="cls-122" points="86.59 90.98 130 95.57 130 95.7 86.59 91.11 86.59 90.98"/><polygon class="cls-123" points="86.59 90.85 130 95.44 130 95.57 86.59 90.98 86.59 90.85"/><polygon class="cls-124" points="86.59 90.72 130 95.31 130 95.44 86.59 90.85 86.59 90.72"/><polygon class="cls-125" points="86.59 90.58 130 95.18 130 95.31 86.59 90.72 86.59 90.58"/><polygon class="cls-126" points="86.59 90.45 130 95.05 130 95.18 86.59 90.58 86.59 90.45"/><polygon class="cls-126" points="86.59 90.32 130 94.92 130 95.05 86.59 90.45 86.59 90.32"/><polygon class="cls-127" points="86.59 90.19 130 94.79 130 94.92 86.59 90.32 86.59 90.19"/><polygon class="cls-128" points="86.59 90.06 130 94.66 130 94.79 86.59 90.19 86.59 90.06"/><polygon class="cls-129" points="86.59 89.93 130 94.53 130 94.66 86.59 90.06 86.59 89.93"/><polygon class="cls-130" points="86.59 89.8 130 94.4 130 94.53 86.59 89.93 86.59 89.8"/><polygon class="cls-130" points="86.59 89.67 130 94.27 130 94.4 86.59 89.8 86.59 89.67"/><polygon class="cls-131" points="86.59 89.54 130 94.14 130 94.27 86.59 89.67 86.59 89.54"/><polygon class="cls-132" points="86.59 89.41 130 94 130 94.14 86.59 89.54 86.59 89.41"/><polygon class="cls-132" points="86.59 89.28 130 93.87 130 94 86.59 89.41 86.59 89.28"/><polygon class="cls-133" points="86.59 89.15 130 93.74 130 93.87 86.59 89.28 86.59 89.15"/><polygon class="cls-134" points="86.59 89.02 130 93.61 130 93.74 86.59 89.15 86.59 89.02"/><polygon class="cls-135" points="86.59 88.89 130 93.48 130 93.61 86.59 89.02 86.59 88.89"/><polygon class="cls-136" points="86.59 88.76 130 93.35 130 93.48 86.59 88.89 86.59 88.76"/><polygon class="cls-136" points="86.59 88.63 130 93.22 130 93.35 86.59 88.76 86.59 88.63"/><polygon class="cls-137" points="86.59 88.5 130 93.09 130 93.22 86.59 88.63 86.59 88.5"/><polygon class="cls-138" points="86.59 88.37 130 92.96 130 93.09 86.59 88.5 86.59 88.37"/><polygon class="cls-139" points="86.59 88.24 130 92.83 130 92.96 86.59 88.37 86.59 88.24"/><polygon class="cls-140" points="86.59 88.11 130 92.7 130 92.83 86.59 88.24 86.59 88.11"/><polygon class="cls-141" points="86.59 87.97 130 92.57 130 92.7 86.59 88.11 86.59 87.97"/><polygon class="cls-142" points="86.59 87.84 130 92.44 130 92.57 86.59 87.97 86.59 87.84"/><polygon class="cls-143" points="86.59 87.71 130 92.31 130 92.44 86.59 87.84 86.59 87.71"/><polygon class="cls-144" points="86.59 87.58 130 92.18 130 92.31 86.59 87.71 86.59 87.58"/><polygon class="cls-145" points="86.59 87.45 130 92.05 130 92.18 86.59 87.58 86.59 87.45"/><polygon class="cls-145" points="86.59 87.32 130 91.92 130 92.05 86.59 87.45 86.59 87.32"/><polygon class="cls-146" points="86.59 87.19 130 91.79 130 91.92 86.59 87.32 86.59 87.19"/><polygon class="cls-147" points="86.59 87.06 130 91.66 130 91.79 86.59 87.19 86.59 87.06"/><polygon class="cls-148" points="86.59 86.93 130 91.53 130 91.66 86.59 87.06 86.59 86.93"/><polygon class="cls-149" points="86.59 86.8 130 91.39 130 91.53 86.59 86.93 86.59 86.8"/><polygon class="cls-150" points="86.59 86.67 130 91.26 130 91.39 86.59 86.8 86.59 86.67"/><polygon class="cls-151" points="86.59 86.54 130 91.13 130 91.26 86.59 86.67 86.59 86.54"/><polygon class="cls-152" points="86.59 86.41 130 91 130 91.13 86.59 86.54 86.59 86.41"/><polygon class="cls-153" points="86.59 86.28 130 90.87 130 91 86.59 86.41 86.59 86.28"/><polygon class="cls-154" points="86.59 86.15 130 90.74 130 90.87 86.59 86.28 86.59 86.15"/><polygon class="cls-155" points="86.59 86.02 130 90.61 130 90.74 86.59 86.15 86.59 86.02"/><polygon class="cls-156" points="86.59 85.89 130 90.48 130 90.61 86.59 86.02 86.59 85.89"/><polygon class="cls-157" points="86.59 85.76 130 90.35 130 90.48 86.59 85.89 86.59 85.76"/><polygon class="cls-157" points="86.59 85.63 130 90.22 130 90.35 86.59 85.76 86.59 85.63"/><polygon class="cls-158" points="86.59 85.5 130 90.09 130 90.22 86.59 85.63 86.59 85.5"/><polygon class="cls-159" points="86.59 85.37 130 89.96 130 90.09 86.59 85.5 86.59 85.37"/><polygon class="cls-160" points="86.59 85.23 130 89.83 130 89.96 86.59 85.37 86.59 85.23"/><polygon class="cls-161" points="86.59 85.11 130 89.7 130 89.83 86.59 85.23 86.59 85.11"/><polygon class="cls-162" points="86.59 84.97 130 89.57 130 89.7 86.59 85.11 86.59 84.97"/><polygon class="cls-162" points="86.59 84.84 130 89.44 130 89.57 86.59 84.97 86.59 84.84"/><polygon class="cls-163" points="86.59 84.71 130 89.31 130 89.44 86.59 84.84 86.59 84.71"/><polygon class="cls-164" points="86.59 84.58 130 89.18 130 89.31 86.59 84.71 86.59 84.58"/><polygon class="cls-165" points="86.59 84.45 130 89.05 130 89.18 86.59 84.58 86.59 84.45"/><polygon class="cls-166" points="86.59 84.32 130 88.92 130 89.05 86.59 84.45 86.59 84.32"/><polygon class="cls-166" points="86.59 84.19 130 88.78 130 88.92 86.59 84.32 86.59 84.19"/><polygon class="cls-167" points="86.59 84.06 130 88.65 130 88.78 86.59 84.19 86.59 84.06"/><polygon class="cls-167" points="86.59 83.93 130 88.52 130 88.65 86.59 84.06 86.59 83.93"/><polygon class="cls-168" points="86.59 83.8 130 88.39 130 88.52 86.59 83.93 86.59 83.8"/><polygon class="cls-169" points="86.59 83.67 130 88.26 130 88.39 86.59 83.8 86.59 83.67"/><polygon class="cls-170" points="86.59 83.54 130 88.13 130 88.26 86.59 83.67 86.59 83.54"/><polygon class="cls-171" points="86.59 83.41 130 88 130 88.13 86.59 83.54 86.59 83.41"/><polygon class="cls-172" points="86.59 83.28 130 87.87 130 88 86.59 83.41 86.59 83.28"/><polygon class="cls-172" points="86.59 83.15 130 87.74 130 87.87 86.59 83.28 86.59 83.15"/><polygon class="cls-173" points="86.59 83.02 130 87.61 130 87.74 86.59 83.15 86.59 83.02"/><polygon class="cls-173" points="86.59 82.89 130 87.48 130 87.61 86.59 83.02 86.59 82.89"/><polygon class="cls-174" points="86.59 82.76 130 87.35 130 87.48 86.59 82.89 86.59 82.76"/><polygon class="cls-175" points="86.59 82.63 130 87.22 130 87.35 86.59 82.76 86.59 82.63"/><polygon class="cls-176" points="86.59 82.5 130 87.09 130 87.22 86.59 82.63 86.59 82.5"/><polygon class="cls-177" points="86.59 82.36 130 86.96 130 87.09 86.59 82.5 86.59 82.36"/><polygon class="cls-178" points="86.59 82.23 130 86.83 130 86.96 86.59 82.36 86.59 82.23"/><polygon class="cls-179" points="86.59 82.1 130 86.7 130 86.83 86.59 82.23 86.59 82.1"/><polygon class="cls-180" points="86.59 81.97 130 86.57 130 86.7 86.59 82.1 86.59 81.97"/><polygon class="cls-180" points="86.59 81.84 130 86.44 130 86.57 86.59 81.97 86.59 81.84"/><polygon class="cls-181" points="86.59 81.71 130 86.31 130 86.44 86.59 81.84 86.59 81.71"/><polygon class="cls-182" points="86.59 81.58 130 86.17 130 86.31 86.59 81.71 86.59 81.58"/><polygon class="cls-183" points="86.59 81.45 130 86.04 130 86.17 86.59 81.58 86.59 81.45"/><polygon class="cls-184" points="86.59 81.32 130 85.91 130 86.04 86.59 81.45 86.59 81.32"/><polygon class="cls-185" points="86.59 81.19 130 85.78 130 85.91 86.59 81.32 86.59 81.19"/><polygon class="cls-186" points="86.59 81.06 130 85.65 130 85.78 86.59 81.19 86.59 81.06"/><polygon class="cls-187" points="86.59 80.93 130 85.52 130 85.65 86.59 81.06 86.59 80.93"/><polygon class="cls-187" points="86.59 80.8 130 85.39 130 85.52 86.59 80.93 86.59 80.8"/><polygon class="cls-188" points="86.59 80.67 130 85.26 130 85.39 86.59 80.8 86.59 80.67"/><polygon class="cls-188" points="86.59 80.54 130 85.13 130 85.26 86.59 80.67 86.59 80.54"/><polygon class="cls-189" points="86.59 80.41 130 85 130 85.13 86.59 80.54 86.59 80.41"/><polygon class="cls-190" points="86.59 80.28 130 84.87 130 85 86.59 80.41 86.59 80.28"/><polygon class="cls-191" points="86.59 80.15 130 84.74 130 84.87 86.59 80.28 86.59 80.15"/><polygon class="cls-192" points="86.59 80.02 130 84.61 130 84.74 86.59 80.15 86.59 80.02"/><polygon class="cls-193" points="86.59 79.89 130 84.48 130 84.61 86.59 80.02 86.59 79.89"/><polygon class="cls-194" points="86.59 79.75 130 84.35 130 84.48 86.59 79.89 86.59 79.75"/><polygon class="cls-195" points="86.59 79.62 130 84.22 130 84.35 86.59 79.75 86.59 79.62"/><polygon class="cls-196" points="86.59 79.49 130 84.09 130 84.22 86.59 79.62 86.59 79.49"/><polygon class="cls-197" points="86.59 79.36 130 83.96 130 84.09 86.59 79.49 86.59 79.36"/><polygon class="cls-198" points="86.59 79.23 130 83.83 130 83.96 86.59 79.36 86.59 79.23"/><polygon class="cls-199" points="86.59 79.1 130 83.69 130 83.83 86.59 79.23 86.59 79.1"/><polygon class="cls-200" points="86.59 78.97 130 83.56 130 83.69 86.59 79.1 86.59 78.97"/><polygon class="cls-201" points="86.59 78.84 130 83.43 130 83.56 86.59 78.97 86.59 78.84"/><polygon class="cls-4" points="86.59 78.71 130 83.3 130 83.43 86.59 78.84 86.59 78.71"/><polygon class="cls-4" points="130 83.3 86.59 78.71 86.59 60.85 130 60.85 130 83.3"/></g><path class="cls-4" d="M87.86,107.74l37.64,16a2.83,2.83,0,0,0,3.94-2.6L129.34,80a2.82,2.82,0,0,0-1.72-2.58L90,61.44A2.83,2.83,0,0,0,86,64l.1,41.12A2.82,2.82,0,0,0,87.86,107.74Z"/><path class="cls-1" d="M154.69,97.12l-.09.07Z"/><path class="cls-3" d="M160,90.68c4.12-5.2,5.28-12.63,5.53-18C159,83.07,149.41,90.92,138.92,100c-7.88,6.95-6.27,11.36-5.91,17a18.91,18.91,0,0,1,8.76-12c5.1-3.25,8.57-5.14,11.58-7A58.12,58.12,0,0,0,160,90.68Z"/><path class="cls-4" d="M156.5,95.89l.1-.08a51.57,51.57,0,0,0,7.75-7.44c6.51-7.5,5.66-20.22,5.38-23A54.75,54.75,0,0,1,166,72.43c-.23,5.47-1.39,13.1-5.6,18.43A64.11,64.11,0,0,1,155,96.94l0,0c.45-.31.89-.62,1.34-1Z"/><path class="cls-4" d="M164.8,102.06c5.73-4.93,5.25-13.28,5.05-15.24a29.51,29.51,0,0,1-3.71,4.91c0,3.39-.68,8.1-3.36,11.94C163.45,103.18,164.12,102.65,164.8,102.06Z"/><path class="cls-3" d="M165.61,91.82c-6.24,6.62-15.56,11.41-24.68,17.32-7,4.61-7.39,9.61-7.17,13.34,1.2-3.35,5.35-7.78,9.68-9.86,8.45-4.06,12.88-4.63,18.3-8.37C164.84,100.38,165.56,95.39,165.61,91.82Z"/><path class="cls-4" d="M166.84,104.08a20.28,20.28,0,0,1-3.94,3,22.74,22.74,0,0,1-2.68,7.87C164,112.65,166.24,109.14,166.84,104.08Z"/><path class="cls-3" d="M162.34,107.13c-3.3,1.91-8.06,3.7-15.62,5.78a17.21,17.21,0,0,0-11.17,8.32c10-7.2,14.4-3,20.63-4.77a18.86,18.86,0,0,0,3.48-1.54A22.69,22.69,0,0,0,162.34,107.13Z"/><g class="cls-202"><polygon class="cls-3" points="91.48 45.9 90.74 67.11 90.74 45.9 91.48 45.9"/><polygon class="cls-3" points="91.83 45.9 90.83 74.56 90.74 74.56 90.74 67.11 91.48 45.9 91.83 45.9"/><polygon class="cls-10" points="92.18 45.9 91.18 74.57 90.83 74.56 91.83 45.9 92.18 45.9"/><polygon class="cls-11" points="92.53 45.9 91.53 74.59 91.18 74.57 92.18 45.9 92.53 45.9"/><polygon class="cls-12" points="92.88 45.9 91.87 74.6 91.53 74.59 92.53 45.9 92.88 45.9"/><polygon class="cls-13" points="93.23 45.9 92.22 74.61 91.87 74.6 92.88 45.9 93.23 45.9"/><polygon class="cls-14" points="93.58 45.9 92.57 74.62 92.22 74.61 93.23 45.9 93.58 45.9"/><polygon class="cls-15" points="93.93 45.9 92.92 74.64 92.57 74.62 93.58 45.9 93.93 45.9"/><polygon class="cls-16" points="94.28 45.9 93.27 74.65 92.92 74.64 93.93 45.9 94.28 45.9"/><polygon class="cls-17" points="94.63 45.9 93.62 74.66 93.27 74.65 94.28 45.9 94.63 45.9"/><polygon class="cls-18" points="94.98 45.9 93.97 74.67 93.62 74.66 94.63 45.9 94.98 45.9"/><polygon class="cls-19" points="95.33 45.9 94.31 74.68 93.97 74.67 94.98 45.9 95.33 45.9"/><polygon class="cls-20" points="95.67 45.9 94.66 74.7 94.31 74.68 95.33 45.9 95.67 45.9"/><polygon class="cls-21" points="96.02 45.9 95.01 74.71 94.66 74.7 95.67 45.9 96.02 45.9"/><polygon class="cls-22" points="96.37 45.9 95.36 74.72 95.01 74.71 96.02 45.9 96.37 45.9"/><polygon class="cls-23" points="96.72 45.9 95.71 74.73 95.36 74.72 96.37 45.9 96.72 45.9"/><polygon class="cls-24" points="97.07 45.9 96.06 74.75 95.71 74.73 96.72 45.9 97.07 45.9"/><polygon class="cls-25" points="97.42 45.9 96.41 74.76 96.06 74.75 97.07 45.9 97.42 45.9"/><polygon class="cls-26" points="97.77 45.9 96.76 74.77 96.41 74.76 97.42 45.9 97.77 45.9"/><polygon class="cls-27" points="98.12 45.9 97.1 74.78 96.76 74.77 97.77 45.9 98.12 45.9"/><polygon class="cls-28" points="98.47 45.9 97.45 74.8 97.1 74.78 98.12 45.9 98.47 45.9"/><polygon class="cls-29" points="98.82 45.9 97.8 74.81 97.45 74.8 98.47 45.9 98.82 45.9"/><polygon class="cls-30" points="99.17 45.9 98.15 74.82 97.8 74.81 98.82 45.9 99.17 45.9"/><polygon class="cls-31" points="99.52 45.9 98.5 74.83 98.15 74.82 99.17 45.9 99.52 45.9"/><polygon class="cls-32" points="99.86 45.9 98.85 74.84 98.5 74.83 99.52 45.9 99.86 45.9"/><polygon class="cls-33" points="100.21 45.9 99.2 74.86 98.85 74.84 99.86 45.9 100.21 45.9"/><polygon class="cls-34" points="100.56 45.9 99.55 74.87 99.2 74.86 100.21 45.9 100.56 45.9"/><polygon class="cls-35" points="100.91 45.9 99.89 74.88 99.55 74.87 100.56 45.9 100.91 45.9"/><polygon class="cls-36" points="101.26 45.9 100.24 74.89 99.89 74.88 100.91 45.9 101.26 45.9"/><polygon class="cls-37" points="101.61 45.9 100.59 74.91 100.24 74.89 101.26 45.9 101.61 45.9"/><polygon class="cls-38" points="101.96 45.9 100.94 74.92 100.59 74.91 101.61 45.9 101.96 45.9"/><polygon class="cls-38" points="102.31 45.9 101.29 74.93 100.94 74.92 101.96 45.9 102.31 45.9"/><polygon class="cls-39" points="102.66 45.9 101.64 74.94 101.29 74.93 102.31 45.9 102.66 45.9"/><polygon class="cls-40" points="103.01 45.9 101.99 74.95 101.64 74.94 102.66 45.9 103.01 45.9"/><polygon class="cls-41" points="103.36 45.9 102.33 74.97 101.99 74.95 103.01 45.9 103.36 45.9"/><polygon class="cls-42" points="103.7 45.9 102.68 74.98 102.33 74.97 103.36 45.9 103.7 45.9"/><polygon class="cls-43" points="104.05 45.9 103.03 74.99 102.68 74.98 103.7 45.9 104.05 45.9"/><polygon class="cls-44" points="104.4 45.9 103.38 75 103.03 74.99 104.05 45.9 104.4 45.9"/><polygon class="cls-45" points="104.75 45.9 103.73 75.02 103.38 75 104.4 45.9 104.75 45.9"/><polygon class="cls-46" points="105.1 45.9 104.08 75.03 103.73 75.02 104.75 45.9 105.1 45.9"/><polygon class="cls-46" points="105.45 45.9 104.43 75.04 104.08 75.03 105.1 45.9 105.45 45.9"/><polygon class="cls-47" points="105.8 45.9 104.78 75.05 104.43 75.04 105.45 45.9 105.8 45.9"/><polygon class="cls-48" points="106.15 45.9 105.13 75.06 104.78 75.05 105.8 45.9 106.15 45.9"/><polygon class="cls-49" points="106.5 45.9 105.47 75.08 105.13 75.06 106.15 45.9 106.5 45.9"/><polygon class="cls-50" points="106.85 45.9 105.82 75.09 105.47 75.08 106.5 45.9 106.85 45.9"/><polygon class="cls-51" points="107.2 45.9 106.17 75.1 105.82 75.09 106.85 45.9 107.2 45.9"/><polygon class="cls-51" points="107.55 45.9 106.52 75.11 106.17 75.1 107.2 45.9 107.55 45.9"/><polygon class="cls-52" points="107.89 45.9 106.87 75.13 106.52 75.11 107.55 45.9 107.89 45.9"/><polygon class="cls-53" points="108.24 45.9 107.22 75.14 106.87 75.13 107.89 45.9 108.24 45.9"/><polygon class="cls-54" points="108.59 45.9 107.57 75.15 107.22 75.14 108.24 45.9 108.59 45.9"/><polygon class="cls-55" points="108.94 45.9 107.92 75.16 107.57 75.15 108.59 45.9 108.94 45.9"/><polygon class="cls-56" points="109.29 45.9 108.26 75.17 107.92 75.16 108.94 45.9 109.29 45.9"/><polygon class="cls-57" points="109.64 45.9 108.61 75.19 108.26 75.17 109.29 45.9 109.64 45.9"/><polygon class="cls-57" points="109.99 45.9 108.96 75.2 108.61 75.19 109.64 45.9 109.99 45.9"/><polygon class="cls-58" points="110.34 45.9 109.31 75.21 108.96 75.2 109.99 45.9 110.34 45.9"/><polygon class="cls-59" points="110.69 45.9 109.66 75.22 109.31 75.21 110.34 45.9 110.69 45.9"/><polygon class="cls-60" points="111.04 45.9 110.01 75.23 109.66 75.22 110.69 45.9 111.04 45.9"/><polygon class="cls-60" points="111.39 45.9 110.36 75.25 110.01 75.23 111.04 45.9 111.39 45.9"/><polygon class="cls-61" points="111.74 45.9 110.7 75.26 110.36 75.25 111.39 45.9 111.74 45.9"/><polygon class="cls-62" points="112.08 45.9 111.05 75.27 110.7 75.26 111.74 45.9 112.08 45.9"/><polygon class="cls-63" points="112.43 45.9 111.4 75.28 111.35 75.28 111.05 75.27 112.08 45.9 112.43 45.9"/><polygon class="cls-64" points="112.78 45.9 111.75 75.28 111.4 75.28 112.43 45.9 112.78 45.9"/><polygon class="cls-64" points="113.13 45.9 112.1 75.28 111.75 75.28 112.78 45.9 113.13 45.9"/><polygon class="cls-65" points="113.48 45.9 112.45 75.28 112.1 75.28 113.13 45.9 113.48 45.9"/><polygon class="cls-66" points="113.83 45.9 112.8 75.28 112.45 75.28 113.48 45.9 113.83 45.9"/><polygon class="cls-67" points="114.18 45.9 113.15 75.28 112.8 75.28 113.83 45.9 114.18 45.9"/><polygon class="cls-67" points="114.53 45.9 113.5 75.28 113.15 75.28 114.18 45.9 114.53 45.9"/><polygon class="cls-68" points="114.88 45.9 113.85 75.28 113.5 75.28 114.53 45.9 114.88 45.9"/><polygon class="cls-69" points="115.23 45.9 114.2 75.28 113.85 75.28 114.88 45.9 115.23 45.9"/><polygon class="cls-70" points="115.58 45.9 114.55 75.28 114.2 75.28 115.23 45.9 115.58 45.9"/><polygon class="cls-70" points="115.93 45.9 114.89 75.28 114.55 75.28 115.58 45.9 115.93 45.9"/><polygon class="cls-71" points="116.28 45.9 115.24 75.28 114.89 75.28 115.93 45.9 116.28 45.9"/><polygon class="cls-72" points="116.62 45.9 115.59 75.28 115.24 75.28 116.28 45.9 116.62 45.9"/><polygon class="cls-73" points="116.97 45.9 115.94 75.28 115.59 75.28 116.62 45.9 116.97 45.9"/><polygon class="cls-74" points="117.32 45.9 116.29 75.28 115.94 75.28 116.97 45.9 117.32 45.9"/><polygon class="cls-75" points="117.67 45.9 116.64 75.28 116.29 75.28 117.32 45.9 117.67 45.9"/><polygon class="cls-76" points="118.02 45.9 116.99 75.28 116.64 75.28 117.67 45.9 118.02 45.9"/><polygon class="cls-77" points="118.37 45.9 117.34 75.28 116.99 75.28 118.02 45.9 118.37 45.9"/><polygon class="cls-78" points="118.72 45.9 117.69 75.28 117.34 75.28 118.37 45.9 118.72 45.9"/><polygon class="cls-78" points="119.07 45.9 118.04 75.28 117.69 75.28 118.72 45.9 119.07 45.9"/><polygon class="cls-79" points="119.42 45.9 118.39 75.28 118.04 75.28 119.07 45.9 119.42 45.9"/><polygon class="cls-80" points="119.77 45.9 118.73 75.28 118.39 75.28 119.42 45.9 119.77 45.9"/><polygon class="cls-81" points="120.12 45.9 119.08 75.28 118.73 75.28 119.77 45.9 120.12 45.9"/><polygon class="cls-81" points="120.47 45.9 119.43 75.28 119.08 75.28 120.12 45.9 120.47 45.9"/><polygon class="cls-82" points="120.81 45.9 119.78 75.28 119.43 75.28 120.47 45.9 120.81 45.9"/><polygon class="cls-83" points="121.16 45.9 120.13 75.28 119.78 75.28 120.81 45.9 121.16 45.9"/><polygon class="cls-84" points="121.51 45.9 120.48 75.28 120.13 75.28 121.16 45.9 121.51 45.9"/><polygon class="cls-84" points="121.86 45.9 120.83 75.28 120.48 75.28 121.51 45.9 121.86 45.9"/><polygon class="cls-85" points="122.21 45.9 121.18 75.28 120.83 75.28 121.86 45.9 122.21 45.9"/><polygon class="cls-86" points="122.56 45.9 121.53 75.28 121.18 75.28 122.21 45.9 122.56 45.9"/><polygon class="cls-87" points="122.91 45.9 121.88 75.28 121.53 75.28 122.56 45.9 122.91 45.9"/><polygon class="cls-88" points="123.26 45.9 122.23 75.28 121.88 75.28 122.91 45.9 123.26 45.9"/><polygon class="cls-88" points="123.61 45.9 122.58 75.28 122.23 75.28 123.26 45.9 123.61 45.9"/><polygon class="cls-89" points="123.96 45.9 122.92 75.28 122.58 75.28 123.61 45.9 123.96 45.9"/><polygon class="cls-90" points="124.31 45.9 123.27 75.28 122.92 75.28 123.96 45.9 124.31 45.9"/><polygon class="cls-91" points="124.66 45.9 123.62 75.28 123.27 75.28 124.31 45.9 124.66 45.9"/><polygon class="cls-92" points="125 45.9 123.97 75.28 123.62 75.28 124.66 45.9 125 45.9"/><polygon class="cls-93" points="125.35 45.9 124.32 75.28 123.97 75.28 125 45.9 125.35 45.9"/><polygon class="cls-93" points="125.7 45.9 124.67 75.28 124.32 75.28 125.35 45.9 125.7 45.9"/><polygon class="cls-94" points="126.05 45.9 125.02 75.28 124.67 75.28 125.7 45.9 126.05 45.9"/><polygon class="cls-95" points="126.4 45.9 125.37 75.28 125.02 75.28 126.05 45.9 126.4 45.9"/><polygon class="cls-96" points="126.75 45.9 125.72 75.28 125.37 75.28 126.4 45.9 126.75 45.9"/><polygon class="cls-97" points="127.1 45.9 126.07 75.28 125.72 75.28 126.75 45.9 127.1 45.9"/><polygon class="cls-98" points="127.45 45.9 126.42 75.28 126.07 75.28 127.1 45.9 127.45 45.9"/><polygon class="cls-99" points="127.8 45.9 126.77 75.28 126.42 75.28 127.45 45.9 127.8 45.9"/><polygon class="cls-100" points="128.15 45.9 127.11 75.28 126.77 75.28 127.8 45.9 128.15 45.9"/><polygon class="cls-100" points="128.5 45.9 127.46 75.28 127.11 75.28 128.15 45.9 128.5 45.9"/><polygon class="cls-101" points="128.84 45.9 127.81 75.28 127.46 75.28 128.5 45.9 128.84 45.9"/><polygon class="cls-102" points="129.19 45.9 128.16 75.28 127.81 75.28 128.84 45.9 129.19 45.9"/><polygon class="cls-103" points="129.54 45.9 128.51 75.28 128.16 75.28 129.19 45.9 129.54 45.9"/><polygon class="cls-104" points="129.89 45.9 128.86 75.28 128.51 75.28 129.54 45.9 129.89 45.9"/><polygon class="cls-105" points="130.24 45.9 129.21 75.28 128.86 75.28 129.89 45.9 130.24 45.9"/><polygon class="cls-106" points="130.59 45.9 129.56 75.28 129.21 75.28 130.24 45.9 130.59 45.9"/><polygon class="cls-107" points="130.94 45.9 129.91 75.28 129.56 75.28 130.59 45.9 130.94 45.9"/><polygon class="cls-108" points="131.29 45.9 130.26 75.28 129.91 75.28 130.94 45.9 131.29 45.9"/><polygon class="cls-109" points="131.64 45.9 130.61 75.28 130.26 75.28 131.29 45.9 131.64 45.9"/><polygon class="cls-109" points="131.99 45.9 130.96 75.28 130.61 75.28 131.64 45.9 131.99 45.9"/><polygon class="cls-110" points="132.34 45.9 131.31 75.28 130.96 75.28 131.99 45.9 132.34 45.9"/><polygon class="cls-111" points="132.69 45.9 131.65 75.28 131.31 75.28 132.34 45.9 132.69 45.9"/><polygon class="cls-112" points="133.03 45.9 132 75.28 131.65 75.28 132.69 45.9 133.03 45.9"/><polygon class="cls-113" points="133.38 45.9 132.35 75.28 132 75.28 133.03 45.9 133.38 45.9"/><polygon class="cls-114" points="133.73 45.9 132.7 75.28 132.35 75.28 133.38 45.9 133.73 45.9"/><polygon class="cls-115" points="134.08 45.9 133.05 75.28 132.7 75.28 133.73 45.9 134.08 45.9"/><polygon class="cls-116" points="134.43 45.9 133.4 75.28 133.05 75.28 134.08 45.9 134.43 45.9"/><polygon class="cls-117" points="134.78 45.9 133.75 75.28 133.4 75.28 134.43 45.9 134.78 45.9"/><polygon class="cls-118" points="135.13 45.9 134.1 75.28 133.75 75.28 134.78 45.9 135.13 45.9"/><polygon class="cls-119" points="135.48 45.9 134.45 75.28 134.1 75.28 135.13 45.9 135.48 45.9"/><polygon class="cls-120" points="135.83 45.9 134.8 75.28 134.45 75.28 135.48 45.9 135.83 45.9"/><polygon class="cls-120" points="136.18 45.9 135.15 75.28 134.8 75.28 135.83 45.9 136.18 45.9"/><polygon class="cls-120" points="136.53 45.9 135.5 75.28 135.15 75.28 136.18 45.9 136.53 45.9"/><polygon class="cls-121" points="136.88 45.9 135.84 75.28 135.5 75.28 136.53 45.9 136.88 45.9"/><polygon class="cls-122" points="137.22 45.9 136.19 75.28 135.84 75.28 136.88 45.9 137.22 45.9"/><polygon class="cls-122" points="137.57 45.9 136.54 75.28 136.19 75.28 137.22 45.9 137.57 45.9"/><polygon class="cls-123" points="137.92 45.9 136.89 75.28 136.54 75.28 137.57 45.9 137.92 45.9"/><polygon class="cls-124" points="138.27 45.9 137.24 75.28 136.89 75.28 137.92 45.9 138.27 45.9"/><polygon class="cls-125" points="138.62 45.9 137.59 75.28 137.24 75.28 138.27 45.9 138.62 45.9"/><polygon class="cls-126" points="138.97 45.9 137.94 75.28 137.59 75.28 138.62 45.9 138.97 45.9"/><polygon class="cls-126" points="139.32 45.9 138.29 75.28 137.94 75.28 138.97 45.9 139.32 45.9"/><polygon class="cls-127" points="139.67 45.9 138.64 75.28 138.29 75.28 139.32 45.9 139.67 45.9"/><polygon class="cls-128" points="140.02 45.9 138.99 75.28 138.64 75.28 139.67 45.9 140.02 45.9"/><polygon class="cls-129" points="140.37 45.9 139.34 75.28 138.99 75.28 140.02 45.9 140.37 45.9"/><polygon class="cls-130" points="140.72 45.9 139.69 75.28 139.34 75.28 140.37 45.9 140.72 45.9"/><polygon class="cls-130" points="141.07 45.9 140.03 75.28 139.69 75.28 140.72 45.9 141.07 45.9"/><polygon class="cls-131" points="141.41 45.9 140.38 75.28 140.03 75.28 141.07 45.9 141.41 45.9"/><polygon class="cls-132" points="141.76 45.9 140.73 75.28 140.38 75.28 141.41 45.9 141.76 45.9"/><polygon class="cls-132" points="142.11 45.9 141.08 75.28 140.73 75.28 141.76 45.9 142.11 45.9"/><polygon class="cls-133" points="142.46 45.9 141.43 75.28 141.08 75.28 142.11 45.9 142.46 45.9"/><polygon class="cls-134" points="142.81 45.9 141.78 75.28 141.43 75.28 142.46 45.9 142.81 45.9"/><polygon class="cls-135" points="143.16 45.9 142.13 75.28 141.78 75.28 142.81 45.9 143.16 45.9"/><polygon class="cls-136" points="143.51 45.9 142.48 75.28 142.13 75.28 143.16 45.9 143.51 45.9"/><polygon class="cls-136" points="143.86 45.9 142.83 75.28 142.48 75.28 143.51 45.9 143.86 45.9"/><polygon class="cls-137" points="144.21 45.9 143.18 75.28 142.83 75.28 143.86 45.9 144.21 45.9"/><polygon class="cls-138" points="144.56 45.9 143.53 75.28 143.18 75.28 144.21 45.9 144.56 45.9"/><polygon class="cls-139" points="144.91 45.9 143.88 75.28 143.53 75.28 144.56 45.9 144.91 45.9"/><polygon class="cls-140" points="145.26 45.9 144.22 75.28 143.88 75.28 144.91 45.9 145.26 45.9"/><polygon class="cls-141" points="145.6 45.9 144.57 75.28 144.22 75.28 145.26 45.9 145.6 45.9"/><polygon class="cls-142" points="145.95 45.9 144.92 75.28 144.57 75.28 145.6 45.9 145.95 45.9"/><polygon class="cls-143" points="146.3 45.9 145.27 75.28 144.92 75.28 145.95 45.9 146.3 45.9"/><polygon class="cls-144" points="146.65 45.9 145.62 75.28 145.27 75.28 146.3 45.9 146.65 45.9"/><polygon class="cls-145" points="147 45.9 145.97 75.28 145.62 75.28 146.65 45.9 147 45.9"/><polygon class="cls-145" points="147.35 45.9 146.32 75.28 145.97 75.28 147 45.9 147.35 45.9"/><polygon class="cls-146" points="147.7 45.9 146.67 75.28 146.32 75.28 147.35 45.9 147.7 45.9"/><polygon class="cls-147" points="148.05 45.9 147.02 75.28 146.67 75.28 147.7 45.9 148.05 45.9"/><polygon class="cls-148" points="148.4 45.9 147.37 75.28 147.02 75.28 148.05 45.9 148.4 45.9"/><polygon class="cls-149" points="148.75 45.9 147.72 75.28 147.37 75.28 148.4 45.9 148.75 45.9"/><polygon class="cls-150" points="149.1 45.9 148.06 75.28 147.72 75.28 148.75 45.9 149.1 45.9"/><polygon class="cls-151" points="149.45 45.9 148.41 75.28 148.06 75.28 149.1 45.9 149.45 45.9"/><polygon class="cls-152" points="149.49 45.9 149.79 45.91 148.76 75.28 148.41 75.28 149.45 45.9 149.49 45.9"/><polygon class="cls-153" points="149.79 45.91 150.14 45.93 149.11 75.28 148.76 75.28 149.79 45.91"/><polygon class="cls-154" points="150.14 45.93 150.49 45.94 149.46 75.28 149.11 75.28 150.14 45.93"/><polygon class="cls-155" points="150.49 45.94 150.84 45.95 149.81 75.28 149.46 75.28 150.49 45.94"/><polygon class="cls-156" points="150.84 45.95 151.19 45.96 150.16 75.28 149.81 75.28 150.84 45.95"/><polygon class="cls-157" points="151.19 45.96 151.54 45.98 150.51 75.28 150.16 75.28 151.19 45.96"/><polygon class="cls-157" points="151.54 45.98 151.89 45.99 150.86 75.28 150.51 75.28 151.54 45.98"/><polygon class="cls-158" points="151.89 45.99 152.24 46 151.21 75.28 150.86 75.28 151.89 45.99"/><polygon class="cls-159" points="152.24 46 152.58 46.01 151.56 75.28 151.21 75.28 152.24 46"/><polygon class="cls-160" points="152.58 46.01 152.93 46.02 151.91 75.28 151.56 75.28 152.58 46.01"/><polygon class="cls-161" points="152.93 46.02 153.28 46.04 152.25 75.28 151.91 75.28 152.93 46.02"/><polygon class="cls-162" points="153.28 46.04 153.63 46.05 152.6 75.28 152.25 75.28 153.28 46.04"/><polygon class="cls-162" points="153.63 46.05 153.98 46.06 152.95 75.28 152.6 75.28 153.63 46.05"/><polygon class="cls-163" points="153.98 46.06 154.33 46.07 153.3 75.28 152.95 75.28 153.98 46.06"/><polygon class="cls-164" points="154.33 46.07 154.68 46.09 153.65 75.28 153.3 75.28 154.33 46.07"/><polygon class="cls-165" points="154.68 46.09 155.03 46.1 154 75.28 153.65 75.28 154.68 46.09"/><polygon class="cls-166" points="155.03 46.1 155.37 46.11 154.35 75.28 154 75.28 155.03 46.1"/><polygon class="cls-166" points="155.37 46.11 155.72 46.12 154.7 75.28 154.35 75.28 155.37 46.11"/><polygon class="cls-167" points="155.72 46.12 156.07 46.13 155.05 75.28 154.7 75.28 155.72 46.12"/><polygon class="cls-167" points="156.07 46.13 156.42 46.15 155.4 75.28 155.05 75.28 156.07 46.13"/><polygon class="cls-168" points="156.42 46.15 156.77 46.16 155.75 75.28 155.4 75.28 156.42 46.15"/><polygon class="cls-169" points="156.77 46.16 157.12 46.17 156.1 75.28 155.75 75.28 156.77 46.16"/><polygon class="cls-170" points="157.12 46.17 157.47 46.18 156.44 75.28 156.1 75.28 157.12 46.17"/><polygon class="cls-171" points="157.47 46.18 157.81 46.2 156.79 75.28 156.44 75.28 157.47 46.18"/><polygon class="cls-172" points="157.81 46.2 158.16 46.21 157.14 75.28 156.79 75.28 157.81 46.2"/><polygon class="cls-172" points="158.16 46.21 158.51 46.22 157.49 75.28 157.14 75.28 158.16 46.21"/><polygon class="cls-173" points="158.51 46.22 158.86 46.23 157.84 75.28 157.49 75.28 158.51 46.22"/><polygon class="cls-173" points="158.86 46.23 159.21 46.24 158.19 75.28 157.84 75.28 158.86 46.23"/><polygon class="cls-174" points="159.21 46.24 159.56 46.26 158.54 75.28 158.19 75.28 159.21 46.24"/><polygon class="cls-175" points="159.56 46.26 159.91 46.27 158.89 75.28 158.54 75.28 159.56 46.26"/><polygon class="cls-176" points="159.91 46.27 160.26 46.28 159.24 75.28 158.89 75.28 159.91 46.27"/><polygon class="cls-177" points="160.26 46.28 160.6 46.29 159.59 75.28 159.24 75.28 160.26 46.28"/><polygon class="cls-178" points="160.6 46.29 160.95 46.31 159.94 75.28 159.59 75.28 160.6 46.29"/><polygon class="cls-179" points="160.95 46.31 161.3 46.32 160.28 75.28 159.94 75.28 160.95 46.31"/><polygon class="cls-180" points="161.3 46.32 161.65 46.33 160.63 75.28 160.28 75.28 161.3 46.32"/><polygon class="cls-180" points="161.65 46.33 162 46.34 160.98 75.28 160.63 75.28 161.65 46.33"/><polygon class="cls-181" points="162 46.34 162.35 46.35 161.33 75.28 160.98 75.28 162 46.34"/><polygon class="cls-182" points="162.35 46.35 162.7 46.37 161.68 75.28 161.33 75.28 162.35 46.35"/><polygon class="cls-183" points="162.7 46.37 163.05 46.38 162.03 75.28 161.68 75.28 162.7 46.37"/><polygon class="cls-184" points="163.05 46.38 163.4 46.39 162.38 75.28 162.03 75.28 163.05 46.38"/><polygon class="cls-185" points="163.4 46.39 163.74 46.4 162.73 75.28 162.38 75.28 163.4 46.39"/><polygon class="cls-186" points="163.74 46.4 164.09 46.42 163.08 75.28 162.73 75.28 163.74 46.4"/><polygon class="cls-187" points="164.09 46.42 164.44 46.43 163.43 75.28 163.08 75.28 164.09 46.42"/><polygon class="cls-187" points="164.44 46.43 164.79 46.44 163.78 75.28 163.43 75.28 164.44 46.43"/><polygon class="cls-188" points="164.79 46.44 165.14 46.45 164.13 75.28 163.78 75.28 164.79 46.44"/><polygon class="cls-188" points="165.14 46.45 165.49 46.47 164.47 75.28 164.13 75.28 165.14 46.45"/><polygon class="cls-189" points="165.49 46.47 165.84 46.48 164.82 75.28 164.47 75.28 165.49 46.47"/><polygon class="cls-190" points="165.84 46.48 166.19 46.49 165.17 75.28 164.82 75.28 165.84 46.48"/><polygon class="cls-191" points="166.19 46.49 166.53 46.5 165.52 75.28 165.17 75.28 166.19 46.49"/><polygon class="cls-192" points="166.53 46.5 166.88 46.51 165.87 75.28 165.52 75.28 166.53 46.5"/><polygon class="cls-193" points="166.88 46.51 167.23 46.53 166.22 75.28 165.87 75.28 166.88 46.51"/><polygon class="cls-194" points="167.23 46.53 167.58 46.54 166.57 75.28 166.22 75.28 167.23 46.53"/><polygon class="cls-195" points="167.58 46.54 167.93 46.55 166.92 75.28 166.57 75.28 167.58 46.54"/><polygon class="cls-196" points="167.93 46.55 168.28 46.56 167.27 75.28 166.92 75.28 167.93 46.55"/><polygon class="cls-197" points="168.28 46.56 168.63 46.58 167.62 75.28 167.27 75.28 168.28 46.56"/><polygon class="cls-198" points="168.63 46.58 168.97 46.59 167.97 75.28 167.62 75.28 168.63 46.58"/><polygon class="cls-199" points="168.97 46.59 169.32 46.6 168.32 75.28 167.97 75.28 168.97 46.59"/><polygon class="cls-200" points="169.32 46.6 169.67 46.61 168.66 75.28 168.32 75.28 169.32 46.6"/><polygon class="cls-201" points="169.67 46.61 170.02 46.62 169.01 75.28 168.66 75.28 169.67 46.61"/><polygon class="cls-4" points="170.02 46.62 170.18 46.63 170.18 52.1 169.36 75.28 169.01 75.28 170.02 46.62"/><polygon class="cls-4" points="169.36 75.28 170.18 52.1 170.18 75.28 169.36 75.28"/></g><path class="cls-4" d="M169.1,60.8,132.95,74.23a4.84,4.84,0,0,1-3.54-.06L91.85,58.65A1.24,1.24,0,0,1,92,56.31l37-10.89a2.46,2.46,0,0,1,1.49,0l38.62,13A1.24,1.24,0,0,1,169.1,60.8Z"/><path class="cls-8" d="M115,74.3q-1.54,2.79-3.88,7.88t-4.37,10.14L103,84.25l-4.22-9.33-5.4-12.15L90,61.22c-.3-.13-.65,0-1,0,.81,1.52,1.75,3.33,2.82,5.4q3.65,7.11,5.5,11.08t4.6,10c1.84,4.06,2.87,6.47,3.07,7.21a13.42,13.42,0,0,1,.41,2.48l.46,5.9.44,6a46.53,46.53,0,0,1,.17,4.76,3.08,3.08,0,0,1-.31,1.51l7.23,3.08c0-.17-.1-.35-.14-.55a40.55,40.55,0,0,1-.59-4.69l-.61-7-.61-7.72a60.41,60.41,0,0,1,4-8.21L118,86q1.2-2.15,3.08-4.93a16.24,16.24,0,0,1,3-3.62,3.52,3.52,0,0,1,1.71-.8l-9.59-4.38C115.93,72.75,115.41,73.62,115,74.3Z"/></g></g></svg>