<svg id="Layer_1" data-name="Layer 1" xmlns="http://www.w3.org/2000/svg" viewBox="0 0 50 50"><defs><style>.cls-1{fill:#d2d3d4;}.cls-2{fill:#f3f3f3;}.cls-3{fill:#ef4438;}.cls-4{fill:#d42f2a;}</style></defs><title>mail</title><circle class="cls-1" cx="25" cy="25" r="25"/><polygon class="cls-2" points="36.33 18.41 34.72 34.65 15.28 34.65 13.98 18.72 25 24.89 36.33 18.41"/><polygon class="cls-2" points="35.78 15.35 25 25.48 14.21 15.35 25 15.35 35.78 15.35"/><path class="cls-3" d="M15.28,20V34.65H13.52a1.2,1.2,0,0,1-1.19-1.19V17.87l1.93.05Z"/><path class="cls-4" d="M37.67,17.87V33.46a1.2,1.2,0,0,1-1.2,1.19H34.72V20l1-2.3Z"/><path class="cls-3" d="M37.67,16.54v1.33l-3,2.15L25,27.11,15.28,20l-3-2.15V16.54a1.2,1.2,0,0,1,1.19-1.19h.69L25,23.21l10.78-7.86h.69A1.2,1.2,0,0,1,37.67,16.54Z"/><polygon class="cls-4" points="15.28 20.02 12.33 19.57 12.33 17.87 15.28 20.02"/></svg>