<svg id="Layer_1" data-name="Layer 1" xmlns="http://www.w3.org/2000/svg" viewBox="0 0 70 70"><defs><style>.cls-1{fill:#282f6c;}</style></defs><title>pakat baz</title><path class="cls-1" d="M5.53,13.39l25.21,20A6.48,6.48,0,0,0,35,34.59a6.44,6.44,0,0,0,4.26-1.23l25.21-20c2-1.6,1.56-2.9-1-2.9H6.54c-2.56,0-3,1.3-1,2.9Zm0,0"/><path class="cls-1" d="M66.28,18.66,38.72,39.58a6.65,6.65,0,0,1-7.45,0L3.72,18.66C1.67,17.11,0,17.94,0,20.51V54.83A4.69,4.69,0,0,0,4.66,59.5H65.34A4.69,4.69,0,0,0,70,54.83V20.51c0-2.56-1.67-3.4-3.72-1.85Zm0,0"/></svg>