<svg id="Layer_1" data-name="Layer 1" xmlns="http://www.w3.org/2000/svg" viewBox="0 0 50 50"><defs><style>.cls-1{fill:#37b44a;}.cls-2{fill:#fff;}</style></defs><title>whats</title><path class="cls-1" d="M0,50,4.3,37.1A24.58,24.58,0,1,1,14,46.32Zm0,0"/><path class="cls-2" d="M41.11,32.75c-1.13-2.14-5.32-4.59-5.32-4.59-.95-.54-2.09-.6-2.63.36a21.69,21.69,0,0,1-1.7,1.86,3.18,3.18,0,0,1-4.52-.45l-6.87-6.87a3.18,3.18,0,0,1-.45-4.52,22,22,0,0,1,1.86-1.7c1-.54.9-1.68.36-2.63,0,0-2.45-4.18-4.6-5.32a2.34,2.34,0,0,0-2.76.42L13,10.83c-4.81,4.81-2.44,10.23,2.37,15l8.79,8.79c4.81,4.81,10.24,7.18,15,2.37l1.52-1.52a2.36,2.36,0,0,0,.41-2.77Zm0,0"/></svg>